<svg width="24" height="24" viewBox="0 0 24 24" fill="none" xmlns="http://www.w3.org/2000/svg">
<path fill-rule="evenodd" clip-rule="evenodd" d="M7.5 3.49951C6.67157 3.49951 6 4.17108 6 4.99951V18.0189C6 18.8473 6.67157 19.5189 7.5 19.5189H8.51187C8.78801 19.5189 9.01187 19.7428 9.01187 20.0189C9.01187 20.295 8.78801 20.5189 8.51187 20.5189H7.5C6.11929 20.5189 5 19.3996 5 18.0189V4.99951C5 3.6188 6.11929 2.49951 7.5 2.49951H13.4964C13.5003 2.49951 13.5042 2.49953 13.5081 2.49956L13.6936 2.49955C14.3594 2.49952 14.9977 2.76504 15.467 3.23726L18.2791 6.06682C18.7446 6.53521 19.0059 7.16875 19.0059 7.82911V18.0189C19.0059 19.3996 17.8866 20.5189 16.5059 20.5189H15.506C15.2299 20.5189 15.006 20.295 15.006 20.0189C15.006 19.7428 15.2299 19.5189 15.506 19.5189H16.5059C17.3343 19.5189 18.0059 18.8473 18.0059 18.0189V8.01898C18.0059 7.74284 17.782 7.51898 17.5059 7.51898H15.4964C14.668 7.51898 13.9964 6.84741 13.9964 6.01898V3.99951C13.9964 3.72563 13.7762 3.50319 13.5032 3.49956L12.8985 3.49958C12.8956 3.49958 12.8927 3.49956 12.8899 3.49951H7.5ZM14.9964 4.18237V6.01898C14.9964 6.29512 15.2203 6.51898 15.4964 6.51898H17.3186L14.9964 4.18237ZM12.0029 11.0073C12.1355 11.0073 12.2627 11.06 12.3565 11.1538L15.3565 14.1538C15.5517 14.349 15.5517 14.6656 15.3565 14.8609C15.1612 15.0561 14.8446 15.0561 14.6494 14.8609L12.5029 12.7144V21.0005C12.5029 21.2766 12.2791 21.5005 12.0029 21.5005C11.7268 21.5005 11.5029 21.2766 11.5029 21.0005V12.7144L9.35648 14.8609C9.16122 15.0561 8.84464 15.0561 8.64938 14.8609C8.45411 14.6656 8.45411 14.349 8.64938 14.1538L11.6494 11.1538C11.7431 11.06 11.8703 11.0073 12.0029 11.0073Z" fill="#DB1A74"/>
</svg>
