<svg width="24" height="24" viewBox="0 0 24 24" fill="none" xmlns="http://www.w3.org/2000/svg">
<path fill-rule="evenodd" clip-rule="evenodd" d="M6.0156 5.49822C6.01658 4.67049 6.68787 4 7.5156 4H9.3147C10.4728 4 11.4489 4.69336 12.0043 5.63282C12.5695 4.69197 13.5595 4 14.7147 4H16.5216C17.3507 4 18.0226 4.67266 18.0216 5.50178L18.021 6.00276L19.4937 6.00279C20.3217 6.00281 20.9931 6.67378 20.9937 7.50181L21.0002 17.4977C21.0007 18.3265 20.329 18.9987 19.5001 18.9987L13.8079 18.9986C13.7174 18.9986 13.6282 18.9954 13.539 18.9923C13.3402 18.9852 13.1411 18.9782 12.9252 19.006C12.621 19.0453 12.4942 19.1353 12.4426 19.2333C12.3568 19.3965 12.1881 19.4992 12.0037 19.5005C11.8193 19.5018 11.6491 19.4015 11.561 19.2396C11.5069 19.1403 11.376 19.0503 11.0744 19.0099C10.8575 18.9808 10.6541 18.9871 10.4528 18.9934C10.3685 18.996 10.2846 18.9986 10.2001 18.9986H6.60012L6.59764 18.9986L4.49255 18.9882C3.66704 18.9841 3 18.3137 3 17.4882V7.4925C3 6.66107 3.67627 5.98826 4.50769 5.99252L6.015 6.00025L6.0156 5.49822ZM6.01381 7.00026L4.50256 6.99251C4.22542 6.99109 4 7.21536 4 7.4925V17.4882C4 17.7633 4.22235 17.9868 4.49752 17.9882L6.60012 17.9986H10.2001C10.2362 17.9986 10.286 17.997 10.3461 17.9951C10.5589 17.9883 10.8996 17.9775 11.2072 18.0187C11.2295 18.0217 11.2523 18.025 11.2754 18.0287C11.1815 17.8862 11.0614 17.7678 10.9213 17.669C10.5453 17.404 9.98367 17.2544 9.30012 17.2544H7.5034C6.67427 17.2544 6.00241 16.5817 6.0034 15.7526L6.01381 7.00026ZM12.7279 18.0241C12.7514 18.0204 12.7745 18.0172 12.7972 18.0143C13.1023 17.9749 13.4456 17.987 13.6584 17.9946C13.7209 17.9968 13.7722 17.9986 13.8079 17.9986L19.5002 17.9987C19.7764 17.9987 20.0003 17.7746 20.0002 17.4983L19.9937 7.50247C19.9935 7.22645 19.7697 7.0028 19.4937 7.00279L18.0198 7.00276L18.0094 15.7562C18.0084 16.5839 17.3371 17.2544 16.5094 17.2544H14.7001C14.0166 17.2544 13.455 17.404 13.079 17.669C12.9403 17.7667 12.8214 17.8836 12.7279 18.0241ZM17.0205 6.39191C17.0125 6.42756 17.0082 6.46465 17.0082 6.50274C17.0082 6.54043 17.0124 6.57714 17.0203 6.61243L17.0094 15.755C17.0091 16.0309 16.7853 16.2544 16.5094 16.2544H14.7001C13.8925 16.2544 13.1041 16.4279 12.5029 16.8516C12.502 16.8523 12.501 16.8529 12.5001 16.8536V7.39214C12.5001 6.16151 13.5425 5 14.7147 5H16.5216C16.798 5 17.0219 5.22422 17.0216 5.50059L17.0205 6.39191ZM11.5001 7.39214C11.5001 6.15417 10.4803 5 9.3147 5H7.5156C7.23969 5 7.01593 5.2235 7.0156 5.49941L7.0034 15.7538C7.00307 16.0302 7.22702 16.2544 7.5034 16.2544H9.30012C10.1077 16.2544 10.8961 16.4279 11.4973 16.8516C11.4983 16.8523 11.4992 16.8529 11.5001 16.8536V7.39214Z" fill="#008196"/>
</svg>
