<svg width="24" height="24" viewBox="0 0 24 24" fill="none" xmlns="http://www.w3.org/2000/svg">
<path d="M11.397 12.4773C11.1209 12.4773 10.897 12.7012 10.897 12.9773C10.897 13.2534 11.1209 13.4773 11.397 13.4773H18.4026C18.6788 13.4773 18.9026 13.2534 18.9026 12.9773C18.9026 12.7012 18.6788 12.4773 18.4026 12.4773H11.397Z" fill="#CC5E13"/>
<path d="M10.897 14.9773C10.897 14.7012 11.1209 14.4773 11.397 14.4773H18.4026C18.6788 14.4773 18.9026 14.7012 18.9026 14.9773C18.9026 15.2534 18.6788 15.4773 18.4026 15.4773H11.397C11.1209 15.4773 10.897 15.2534 10.897 14.9773Z" fill="#CC5E13"/>
<path d="M11.397 16.4773C11.1209 16.4773 10.897 16.7012 10.897 16.9773C10.897 17.2534 11.1209 17.4773 11.397 17.4773H15.4272C15.7034 17.4773 15.9272 17.2534 15.9272 16.9773C15.9272 16.7012 15.7034 16.4773 15.4272 16.4773H11.397Z" fill="#CC5E13"/>
<path fill-rule="evenodd" clip-rule="evenodd" d="M14.5832 4.14223C15.5712 5.13025 16.2181 6.33196 16.5225 7.59903C17.7085 7.92293 18.8289 8.55068 19.7605 9.48228C22.0434 11.7652 22.5011 15.1807 21.1361 17.9181L22.1137 21.5667C22.1599 21.7392 22.1106 21.9233 21.9843 22.0496C21.858 22.1759 21.6739 22.2253 21.5013 22.179L17.8527 21.2014C15.1153 22.5665 11.6998 22.1087 9.41694 19.8258C8.42821 18.8371 7.78174 17.6357 7.47752 16.3689C7.02226 16.2445 6.57654 16.0754 6.14739 15.8614L2.49881 16.839C2.32626 16.8852 2.14216 16.8359 2.01584 16.7096C1.88953 16.5833 1.8402 16.3992 1.88643 16.2266L2.86407 12.578C1.49901 9.84063 1.95673 6.42514 4.23964 4.14223C7.09593 1.28594 11.7269 1.28594 14.5832 4.14223ZM13.8761 4.84934C14.6133 5.58655 15.1296 6.45971 15.4259 7.38785C13.2859 7.14269 11.0584 7.84083 9.41694 9.48228C7.83294 11.0663 7.12737 13.1961 7.30023 15.2663C7.02256 15.168 6.75045 15.0498 6.48612 14.9115C6.3706 14.8345 6.22373 14.8056 6.07905 14.8444L3.0765 15.6489L3.88103 12.6464C3.9198 12.5017 3.89097 12.3548 3.81389 12.2393C2.56842 9.85794 2.94689 6.8492 4.94674 4.84934C7.41251 2.38357 11.4103 2.38357 13.8761 4.84934ZM10.124 10.1894C7.65827 12.6552 7.65827 16.653 10.124 19.1187C12.1239 21.1186 15.1326 21.497 17.514 20.2516C17.6295 20.1745 17.7764 20.1457 17.9211 20.1844L20.9236 20.989L20.1191 17.9864C20.0803 17.8417 20.1092 17.6949 20.1862 17.5793C21.4317 15.198 21.0532 12.1892 19.0534 10.1894C16.5876 7.72361 12.5898 7.72361 10.124 10.1894Z" fill="#CC5E13"/>
</svg>
