<svg width="24" height="24" viewBox="0 0 24 24" fill="none" xmlns="http://www.w3.org/2000/svg">
<path fill-rule="evenodd" clip-rule="evenodd" d="M6.65011 3.14337C6.79317 3.00054 7.00817 2.95791 7.19491 3.03535C7.38164 3.11278 7.50338 3.29505 7.50338 3.49721V4.49723C9.24877 4.50145 10.8332 5.19273 12 6.31366C13.1671 5.19219 14.7512 4.50145 16.4966 4.49723V3.49721C16.4966 3.29505 16.6183 3.11278 16.805 3.03535C16.9918 2.95791 17.2068 3.00054 17.3498 3.14337L20.857 6.64482C20.9509 6.73861 21.0037 6.86591 21.0037 6.99866C21.0037 7.13141 20.9509 7.25871 20.857 7.3525L17.3498 10.854C17.2068 10.9968 16.9918 11.0394 16.805 10.962C16.6183 10.8845 16.4966 10.7023 16.4966 10.5001V8.4959C15.1204 8.51134 14.0092 9.63243 14.0092 11.0126V19.0253C13.9942 20.12 13.1019 21.0028 12.0036 21.0028C10.9053 21.0028 10.0132 20.12 9.99819 19.0253L9.998 11.0126H9.9907C9.9907 9.63243 8.87957 8.51134 7.50338 8.4959V10.5001C7.50338 10.7023 7.38164 10.8845 7.19491 10.962C7.00817 11.0394 6.79317 10.9968 6.65011 10.854L3.14295 7.3525C3.04901 7.25871 2.99622 7.13141 2.99622 6.99866C2.99622 6.86591 3.04901 6.73861 3.14295 6.64482L6.65011 3.14337ZM10.3285 8.95812C10.5581 8.26681 10.9003 7.62687 11.3334 7.0601C10.3491 6.1018 9.00942 5.50882 7.53088 5.49738C7.52435 5.49763 7.51779 5.49776 7.5112 5.49776H7.00338C6.72723 5.49776 6.50338 5.2739 6.50338 4.99776V4.70293L4.2039 6.99866L6.50338 9.2944V7.9935C6.50338 7.71735 6.72723 7.4935 7.00338 7.4935H7.48728C7.50547 7.4935 7.52342 7.49447 7.54111 7.49636C8.68891 7.51766 9.70217 8.0892 10.3285 8.95812ZM10.998 11.0126C10.998 7.98141 13.4435 5.52083 16.469 5.49738C16.4755 5.49763 16.4821 5.49776 16.4887 5.49776H16.9966C17.2727 5.49776 17.4966 5.2739 17.4966 4.99776V4.70293L19.796 6.99866L17.4966 9.2944V7.9935C17.4966 7.71735 17.2727 7.4935 16.9966 7.4935H16.5126C16.4945 7.4935 16.4765 7.49447 16.4588 7.49636C14.5475 7.53184 13.0092 9.09307 13.0092 11.0126V18.9972C13.0092 19.5526 12.559 20.0028 12.0036 20.0028C11.4482 20.0028 10.998 19.5526 10.998 18.9972V11.0126Z" fill="#CC5E13"/>
</svg>
