<svg width="24" height="24" viewBox="0 0 24 24" fill="none" xmlns="http://www.w3.org/2000/svg">
<path fill-rule="evenodd" clip-rule="evenodd" d="M12.9935 10.0068C13.822 10.0068 14.4935 10.6784 14.4935 11.5068V14.4961C14.4933 15.3243 13.8218 15.9961 12.9935 15.9961H7.99255C7.16429 15.9961 6.49282 15.3243 6.49255 14.4961V11.5068C6.49255 10.6784 7.16413 10.0068 7.99255 10.0068H12.9935ZM7.99255 11.0068C7.71641 11.0068 7.49255 11.2307 7.49255 11.5068V14.4961C7.49282 14.772 7.71657 14.9961 7.99255 14.9961H12.9935C13.2695 14.9961 13.4933 14.772 13.4935 14.4961V11.5068C13.4935 11.2307 13.2697 11.0068 12.9935 11.0068H7.99255Z" fill="#6610F2"/>
<path d="M13.9935 6.99805C14.2697 6.99805 14.4935 7.2219 14.4935 7.49805C14.4934 7.77408 14.2696 7.99805 13.9935 7.99805H7.00232C6.72626 7.99805 6.50245 7.77408 6.50232 7.49805C6.50232 7.2219 6.72618 6.99805 7.00232 6.99805H13.9935Z" fill="#6610F2"/>
<path d="M11.0052 4.99805C11.2814 4.99805 11.5052 5.2219 11.5052 5.49805C11.5051 5.77408 11.2813 5.99805 11.0052 5.99805H7.00232C6.72626 5.99805 6.50245 5.77408 6.50232 5.49805C6.50232 5.2219 6.72618 4.99805 7.00232 4.99805H11.0052Z" fill="#6610F2"/>
<path fill-rule="evenodd" clip-rule="evenodd" d="M14.9974 1.99707C16.3781 1.99707 17.4974 3.11636 17.4974 4.49707V4.99902H18.0004C19.3811 4.99902 20.5013 6.11831 20.5013 7.49902V19.5029C20.5013 20.8835 19.3818 22.0027 18.0013 22.0029H8.97009C7.58961 22.0027 6.47107 20.8835 6.47107 19.5029V18.9932H5.99939C4.61884 18.9932 3.49965 17.8737 3.49939 16.4932V4.49707C3.49939 3.11636 4.61868 1.99707 5.99939 1.99707H14.9974ZM17.4974 16.4932C17.4972 17.8737 16.378 18.9932 14.9974 18.9932H7.47107V19.5029C7.47107 20.3312 8.14189 21.0027 8.97009 21.0029H18.0013C18.8295 21.0027 19.5013 20.3312 19.5013 19.5029V7.49902C19.5013 6.6706 18.8288 5.99902 18.0004 5.99902H17.4974V16.4932ZM5.99939 2.99707C5.17096 2.99707 4.49939 3.66864 4.49939 4.49707V16.4932C4.49965 17.3214 5.17113 17.9932 5.99939 17.9932H14.9974C15.8257 17.9932 16.4972 17.3214 16.4974 16.4932V4.49707C16.4974 3.66864 15.8259 2.99707 14.9974 2.99707H5.99939Z" fill="#6610F2"/>
</svg>
