<svg width="24" height="24" viewBox="0 0 24 24" fill="none" xmlns="http://www.w3.org/2000/svg">
<path fill-rule="evenodd" clip-rule="evenodd" d="M10.2324 3.65425C11.2087 2.67798 12.7916 2.678 13.7679 3.65429L15.3893 5.27576C15.4729 5.15298 15.5691 5.03633 15.6777 4.92766C16.6151 3.99026 18.135 3.99026 19.0724 4.92766C20.0098 5.86506 20.0098 7.38489 19.0724 8.32229C18.9637 8.43096 18.847 8.52711 18.7243 8.61069L20.3458 10.2322C21.3221 11.2085 21.3221 12.7914 20.3458 13.7678L18.2341 15.8795L18.2266 15.8868C18.1656 15.95 18.0872 15.9979 17.9962 16.0222C17.7294 16.0934 17.4554 15.9349 17.3841 15.6681C17.3229 15.4388 17.2025 15.222 17.0215 15.041C16.4746 14.4941 15.588 14.4941 15.0411 15.041C14.4942 15.5879 14.4942 16.4746 15.0411 17.0214C15.222 17.2024 15.4389 17.3228 15.6682 17.384C15.935 17.4553 16.0935 17.7293 16.0223 17.9961C15.9964 18.093 15.9437 18.1757 15.8743 18.2382C15.8709 18.242 15.8674 18.2458 15.8638 18.2495C15.8612 18.2523 15.8586 18.2549 15.856 18.2576L13.7679 20.3457C12.7916 21.322 11.2087 21.322 10.2324 20.3457L8.61077 18.724C8.52717 18.8469 8.431 18.9635 8.32232 19.0722C7.38492 20.0096 5.86509 20.0096 4.92769 19.0722C3.99029 18.1348 3.99029 16.615 4.92769 15.6776C5.03638 15.5689 5.15306 15.4727 5.27586 15.3891L3.65447 13.7678C2.67816 12.7914 2.67816 11.2085 3.65447 10.2322L5.77216 8.11454C5.83335 8.05065 5.91227 8.00219 6.00399 7.97769C6.27078 7.90645 6.54481 8.06497 6.61606 8.33176C6.6773 8.56109 6.79771 8.77792 6.97865 8.95886C7.52553 9.50574 8.41219 9.50574 8.95907 8.95886C9.50594 8.41199 9.50594 7.52533 8.95907 6.97845C8.77812 6.7975 8.56129 6.6771 8.33196 6.61586C8.06517 6.54461 7.90665 6.27057 7.9779 6.00378C8.0043 5.90492 8.05855 5.82092 8.12995 5.75798C8.13691 5.75009 8.14415 5.74238 8.15169 5.73484L10.2324 3.65425ZM9.31792 5.98284C9.44076 6.06645 9.55746 6.16263 9.66617 6.27134C10.6036 7.20874 10.6036 8.72857 9.66617 9.66597C8.72877 10.6034 7.20895 10.6034 6.27155 9.66597C6.16286 9.55729 6.06669 9.44061 5.9831 9.31781L4.36158 10.9393C3.77579 11.5251 3.77579 12.4749 4.36158 13.0606L6.47793 15.177L6.47956 15.1786C6.54323 15.2398 6.59153 15.3185 6.61597 15.41C6.68721 15.6768 6.52869 15.9509 6.2619 16.0221C6.03257 16.0833 5.81574 16.2038 5.6348 16.3847C5.08792 16.9316 5.08792 17.8182 5.6348 18.3651C6.18167 18.912 7.06833 18.912 7.61521 18.3651C7.79616 18.1842 7.91656 17.9673 7.9778 17.738C8.04905 17.4712 8.32308 17.3127 8.58988 17.3839C8.68148 17.4084 8.76032 17.4568 8.82148 17.5205L8.82277 17.5218L10.9395 19.6385C11.5253 20.2243 12.475 20.2243 13.0608 19.6385L14.6823 18.0171C14.5594 17.9335 14.4427 17.8373 14.334 17.7285C13.3966 16.7911 13.3966 15.2713 14.334 14.3339C15.2714 13.3965 16.7912 13.3965 17.7286 14.3339C17.8373 14.4426 17.9335 14.5594 18.0171 14.6822L19.6387 13.0606C20.2245 12.4749 20.2245 11.5251 19.6387 10.9393L17.5419 8.84257L17.5371 8.83765L17.5295 8.82969C17.4614 8.76744 17.4097 8.68562 17.3841 8.58985C17.3128 8.32306 17.4714 8.04902 17.7382 7.97777C17.9675 7.91653 18.1843 7.79613 18.3653 7.61518C18.9121 7.06831 18.9121 6.18164 18.3653 5.63477C17.8184 5.08789 16.9317 5.08789 16.3848 5.63477C16.2039 5.81572 16.0835 6.03254 16.0223 6.26187C15.951 6.52866 15.677 6.68718 15.4102 6.61594C15.3174 6.59116 15.2377 6.54186 15.1762 6.47687L13.0608 4.3614C12.475 3.77562 11.5253 3.77561 10.9395 4.36137L9.31792 5.98284Z" fill="#008196"/>
</svg>
