<svg width="24" height="24" viewBox="0 0 24 24" fill="none" xmlns="http://www.w3.org/2000/svg">
<path fill-rule="evenodd" clip-rule="evenodd" d="M11.958 3.53914C13.5981 2.24915 16.0039 3.41831 16.0039 5.50496V15.8692C16.0039 17.9555 13.5992 19.1242 11.959 17.835L7.56152 14.378L9.09277 18.8966C9.38969 19.7734 8.73726 20.6836 7.81152 20.6837C7.2318 20.6837 6.71626 20.3138 6.53027 19.7647L4.6416 14.1866H4.5C3.11944 14.1866 2.00024 13.0671 2 11.6866V9.6866C2 8.30589 3.11929 7.1866 4.5 7.1866H7.32129L11.958 3.53914ZM7.47754 19.4434C7.526 19.5865 7.66043 19.6837 7.81152 19.6837C8.05263 19.6836 8.2227 19.4463 8.14551 19.2178L6.44141 14.1866H5.69727L7.47754 19.4434ZM15.0039 5.50496C15.0039 4.25313 13.5612 3.55177 12.5771 4.32527L8 7.92488V13.4512L12.5771 17.0489C13.5613 17.8222 15.0039 17.1209 15.0039 15.8692V5.50496ZM4.5 8.1866C3.67157 8.1866 3 8.85817 3 9.6866V11.6866C3.00024 12.5148 3.67172 13.1866 4.5 13.1866H7V8.1866H4.5Z" fill="#CC5E13"/>
<path d="M18.0869 14.8595C18.2529 14.6388 18.5665 14.5938 18.7871 14.7598L20.1162 15.7598C20.3368 15.9259 20.3808 16.2394 20.2148 16.46C20.0488 16.6807 19.7353 16.7247 19.5146 16.5587L18.1855 15.5587C17.9653 15.3926 17.9212 15.08 18.0869 14.8595Z" fill="#CC5E13"/>
<path d="M21.4961 11.1866C21.7722 11.1866 21.9961 11.4105 21.9961 11.6866C21.9959 11.9625 21.7721 12.1866 21.4961 12.1866H18.4863C18.2103 12.1866 17.9866 11.9625 17.9863 11.6866C17.9863 11.4105 18.2102 11.1866 18.4863 11.1866H21.4961Z" fill="#CC5E13"/>
<path d="M19.5146 6.81355C19.7352 6.64783 20.0489 6.69174 20.2148 6.91218C20.3809 7.13284 20.3359 7.44635 20.1152 7.61238L18.7861 8.61238C18.5655 8.7784 18.252 8.7344 18.0859 8.51375C17.9202 8.2931 17.965 7.97951 18.1855 7.81355L19.5146 6.81355Z" fill="#CC5E13"/>
</svg>
