<svg width="24" height="24" viewBox="0 0 24 24" fill="none" xmlns="http://www.w3.org/2000/svg">
<path fill-rule="evenodd" clip-rule="evenodd" d="M9.01004 13.4977C9.01004 12.6695 9.68133 11.9981 10.5094 11.9981C11.3375 11.9981 12.0088 12.6695 12.0088 13.4977C12.0088 14.326 11.3375 14.9974 10.5094 14.9974C9.68133 14.9974 9.01004 14.326 9.01004 13.4977ZM10.5094 12.9979C10.2334 12.9979 10.0096 13.2217 10.0096 13.4977C10.0096 13.7738 10.2334 13.9976 10.5094 13.9976C10.7854 13.9976 11.0092 13.7738 11.0092 13.4977C11.0092 13.2217 10.7854 12.9979 10.5094 12.9979Z" fill="#008196"/>
<path fill-rule="evenodd" clip-rule="evenodd" d="M9.50105 9.99862C8.39694 9.99862 7.50188 10.8938 7.50188 11.9981V16.9969C7.50188 18.1012 8.39694 18.9964 9.50105 18.9964H14.499C15.6031 18.9964 16.4981 18.1012 16.4981 16.9969V15.9612C16.5051 15.9131 16.5051 15.8642 16.4981 15.8161V11.9981C16.4981 10.8938 15.6031 9.99862 14.499 9.99862H9.50105ZM15.4985 14.6766V11.9981C15.4985 11.446 15.051 10.9984 14.499 10.9984H9.50105C8.94899 10.9984 8.50146 11.446 8.50146 11.9981V16.3426L8.75871 16.0853C9.36687 15.477 10.3641 15.5153 10.9238 16.1684C11.1141 16.3905 11.4577 16.3905 11.648 16.1684L13.0599 14.5209C13.6283 13.8577 14.6409 13.8188 15.2585 14.4365L15.4985 14.6766ZM8.68438 17.5735C8.8654 17.8295 9.16371 17.9966 9.50105 17.9966H14.499C15.051 17.9966 15.4985 17.549 15.4985 16.9969V16.0904L14.5517 15.1434C14.3458 14.9375 14.0083 14.9505 13.8188 15.1716L12.4069 16.8191C11.8177 17.5067 10.7541 17.5067 10.1649 16.8191C9.98406 16.6081 9.66196 16.5957 9.46552 16.7922L8.68438 17.5735Z" fill="#008196"/>
<path fill-rule="evenodd" clip-rule="evenodd" d="M19 18.5006C19 19.881 17.8812 21 16.501 21H7.49895C6.11882 21 5 19.881 5 18.5006V5.49938C5 4.11901 6.11882 3 7.49895 3H13.4929L13.4979 3.00001L13.6905 3C14.3556 2.99997 14.9933 3.26512 15.4623 3.73675L18.2728 6.56261C18.7385 7.03095 19 7.66466 19 8.32524V18.5006ZM12.8892 3.99975H7.49895C6.67087 3.99975 5.99958 4.67116 5.99958 5.49938V18.5006C5.99958 19.3288 6.67087 20.0002 7.49895 20.0002H16.501C17.3291 20.0002 18.0004 19.3288 18.0004 18.5006V8.51458C18.0004 8.2385 17.7767 8.0147 17.5006 8.0147H15.492C14.6639 8.0147 13.9926 7.3433 13.9926 6.51508V4.49963C13.9926 4.22454 13.7705 4.00135 13.4958 3.99976L13.4929 3.99975L12.8952 3.99979C12.8932 3.99979 12.8892 3.99975 12.8892 3.99975ZM14.9922 4.68168V6.51508C14.9922 6.79115 15.216 7.01495 15.492 7.01495H17.3127L14.9922 4.68168Z" fill="#008196"/>
</svg>
