<svg width="24" height="24" viewBox="0 0 24 24" fill="none" xmlns="http://www.w3.org/2000/svg">
<path d="M13.5015 16.0126C13.2253 16.0126 13.0015 16.2364 13.0015 16.5126C13.0015 16.7887 13.2253 17.0126 13.5015 17.0126H17.5002C17.7764 17.0126 18.0002 16.7887 18.0002 16.5126C18.0002 16.2364 17.7764 16.0126 17.5002 16.0126H13.5015Z" fill="#008196"/>
<path fill-rule="evenodd" clip-rule="evenodd" d="M3.00398 6.49707C3.00399 5.1128 4.12885 3.99205 5.51311 3.9971L8.93397 4.00959C9.716 4.01244 10.4516 4.38108 10.922 5.00583L10.9246 5.00929H18.4965C19.8772 5.00929 20.9965 6.12858 20.9965 7.50929V10.5093C20.9965 10.5317 20.995 10.5538 20.9921 10.5754L20.9922 17.5029C20.9922 18.885 19.8708 20.0048 18.4888 20.0029L5.50046 19.985C4.12109 19.9831 3.0039 18.8643 3.00391 17.485L3.00398 6.49707ZM5.50946 4.9971C4.6789 4.99406 4.00399 5.66651 4.00398 6.49707L4.00391 17.485C4.0039 18.3126 4.67421 18.9838 5.50184 18.985L18.4901 19.0029C19.3194 19.0041 19.9922 18.3321 19.9922 17.5029L19.9921 10.4975C19.9921 9.66904 19.3206 8.99747 18.4921 8.99747H13.9228C13.1375 8.99747 12.3979 8.62853 11.9256 8.00121L10.1232 5.60733C9.84092 5.23248 9.39954 5.01129 8.93032 5.00958L5.50946 4.9971ZM12.7244 7.39972L11.6776 6.00929H18.4965C19.3249 6.00929 19.9965 6.68087 19.9965 7.50929V8.50055C19.5779 8.18473 19.0569 7.99747 18.4921 7.99747H13.9228C13.4516 7.99747 13.0078 7.77611 12.7244 7.39972Z" fill="#008196"/>
</svg>
