<svg width="24" height="24" viewBox="0 0 24 24" fill="none" xmlns="http://www.w3.org/2000/svg">
<path d="M14.4994 12.5048C14.4994 12.2286 14.2755 12.0048 13.9994 12.0048C13.7232 12.0048 13.4994 12.2286 13.4994 12.5048V15.5048C13.4994 15.7809 13.7232 16.0048 13.9994 16.0048C14.2755 16.0048 14.4994 15.7809 14.4994 15.5048V12.5048Z" fill="#008196"/>
<path d="M12.0002 13.0048C12.2764 13.0048 12.5002 13.2286 12.5002 13.5048V15.5048C12.5002 15.7809 12.2764 16.0048 12.0002 16.0048C11.7241 16.0048 11.5002 15.7809 11.5002 15.5048V13.5048C11.5002 13.2286 11.7241 13.0048 12.0002 13.0048Z" fill="#008196"/>
<path d="M10.501 14.5048C10.501 14.2286 10.2772 14.0048 10.001 14.0048C9.7249 14.0048 9.50105 14.2286 9.50105 14.5048V15.5048C9.50105 15.7809 9.7249 16.0048 10.001 16.0048C10.2772 16.0048 10.501 15.7809 10.501 15.5048V14.5048Z" fill="#008196"/>
<path fill-rule="evenodd" clip-rule="evenodd" d="M7.00209 10.0048C6.72606 10.0048 6.5023 10.2286 6.5023 10.5048C6.5023 10.7809 6.72606 11.0048 7.00209 11.0048H7.50188V16.5048C7.50188 17.3332 8.17317 18.0048 9.00126 18.0048H11.5002V18.5048C11.5002 18.7809 11.7241 19.0048 12.0002 19.0048C12.2764 19.0048 12.5002 18.7809 12.5002 18.5048V18.0048H14.9987C15.8268 18.0048 16.4981 17.3332 16.4981 16.5048V11.0048H16.9979C17.2739 11.0048 17.4977 10.7809 17.4977 10.5048C17.4977 10.2286 17.2739 10.0048 16.9979 10.0048H7.00209ZM15.4985 16.5048C15.4985 16.7809 15.2748 17.0048 14.9987 17.0048H9.00126C8.72523 17.0048 8.50146 16.7809 8.50146 16.5048V11.0048H15.4985V16.5048Z" fill="#008196"/>
<path fill-rule="evenodd" clip-rule="evenodd" d="M19 18.5045C19 19.8852 17.8812 21.0045 16.501 21.0045H7.49895C6.11882 21.0045 5 19.8852 5 18.5045V5.5C5 4.11929 6.11882 3 7.49895 3H13.4929L13.4979 3.00001L13.6905 3C14.3556 2.99997 14.9933 3.26519 15.4623 3.73693L18.2728 6.5635C18.7385 7.03195 19 7.66583 19 8.32657V18.5045ZM12.8892 4H7.49895C6.67087 4 5.99958 4.67157 5.99958 5.5V18.5045C5.99958 19.3329 6.67087 20.0045 7.49895 20.0045H16.501C17.3291 20.0045 18.0004 19.3329 18.0004 18.5045V8.51595C18.0004 8.23981 17.7767 8.01595 17.5006 8.01595H15.492C14.6639 8.01595 13.9926 7.34438 13.9926 6.51595V4.5C13.9926 4.22485 13.7705 4.0016 13.4958 4.00001L13.4929 4L12.8952 4.00004C12.8932 4.00004 12.8892 4 12.8892 4ZM14.9922 4.6821V6.51595C14.9922 6.79209 15.216 7.01595 15.492 7.01595H17.3127L14.9922 4.6821Z" fill="#008196"/>
</svg>
