<svg width="24" height="24" viewBox="0 0 24 24" fill="none" xmlns="http://www.w3.org/2000/svg">
<path fill-rule="evenodd" clip-rule="evenodd" d="M7.49707 3.99776H12.8895L12.8955 3.99779L13.4935 3.99776L13.4964 3.99777C13.7712 3.99936 13.9935 4.2226 13.9935 4.49776V6.51371C13.9935 7.34214 14.665 8.01371 15.4935 8.01371H17.5029C17.7791 8.01371 18.0029 8.23757 18.0029 8.51371V18.5022C18.0029 19.3307 17.3314 20.0022 16.5029 20.0022H7.49707C6.66864 20.0022 5.99707 19.3307 5.99707 18.5022V17.4956C5.99707 17.2194 5.77321 16.9956 5.49707 16.9956C5.22093 16.9956 4.99707 17.2194 4.99707 17.4956V18.5022C4.99707 19.883 6.11636 21.0022 7.49707 21.0022H16.5029C17.8836 21.0022 19.0029 19.883 19.0029 18.5022V8.32432C19.0029 7.66358 18.7414 7.02971 18.2754 6.56126L15.4638 3.73469C14.9945 3.26295 14.3566 2.99773 13.6912 2.99776L13.4986 2.99777L13.4935 2.99776H7.49707C6.11636 2.99776 4.99707 4.11705 4.99707 5.49776V9.50066C4.99707 9.7768 5.22093 10.0007 5.49707 10.0007C5.77321 10.0007 5.99707 9.7768 5.99707 9.50066V5.49776C5.99707 4.66933 6.66864 3.99776 7.49707 3.99776ZM14.9935 6.51371V4.67986L17.315 7.01371H15.4935C15.2173 7.01371 14.9935 6.78985 14.9935 6.51371Z" fill="#008196"/>
<path fill-rule="evenodd" clip-rule="evenodd" d="M3.28076 11.6415C3.28076 11.5862 3.32553 11.5415 3.38076 11.5415H5.04189C5.38758 11.5415 5.68987 11.6041 5.94516 11.7337C6.20069 11.8605 6.39916 12.038 6.53675 12.2667C6.67402 12.4947 6.7415 12.7541 6.7415 13.0418C6.7415 13.3331 6.67418 13.5905 6.53564 13.8101C6.39719 14.0295 6.19776 14.1969 5.94187 14.3135C5.68746 14.4302 5.38641 14.4866 5.04189 14.4866H4.35967V15.9071C4.35967 15.9623 4.3149 16.0071 4.25967 16.0071H3.38076C3.32553 16.0071 3.28076 15.9623 3.28076 15.9071V11.6415ZM4.35967 13.601H5.04189C5.19967 13.601 5.31884 13.5753 5.40538 13.5306C5.49362 13.483 5.55491 13.4197 5.5937 13.3406C5.63501 13.2563 5.65674 13.1594 5.65674 13.0477C5.65674 12.9339 5.63494 12.8298 5.59218 12.734C5.55175 12.6434 5.48822 12.5705 5.39877 12.5142C5.3139 12.4607 5.19737 12.4299 5.04189 12.4299H4.35967V13.601Z" fill="#008196"/>
<path fill-rule="evenodd" clip-rule="evenodd" d="M7.44795 11.6415C7.44795 11.5862 7.49272 11.5415 7.54795 11.5415H9.20908C9.55477 11.5415 9.85705 11.6041 10.1123 11.7337C10.3679 11.8605 10.5663 12.038 10.7039 12.2667C10.8412 12.4947 10.9087 12.7541 10.9087 13.0418C10.9087 13.3331 10.8414 13.5905 10.7028 13.8101C10.5644 14.0295 10.3649 14.1969 10.1091 14.3135C9.85465 14.4302 9.5536 14.4866 9.20908 14.4866H8.52686V15.9071C8.52686 15.9623 8.48208 16.0071 8.42686 16.0071H7.54795C7.49272 16.0071 7.44795 15.9623 7.44795 15.9071V11.6415ZM8.52686 13.601H9.20908C9.36687 13.601 9.48603 13.5752 9.57257 13.5306C9.66081 13.483 9.7221 13.4197 9.76089 13.3406C9.8022 13.2563 9.82393 13.1594 9.82393 13.0477C9.82393 12.9339 9.80213 12.8298 9.75937 12.734C9.71894 12.6434 9.65541 12.5705 9.56596 12.5142C9.48109 12.4607 9.36456 12.4299 9.20908 12.4299H8.52686V13.601Z" fill="#008196"/>
<path d="M11.4544 11.5415C11.3992 11.5415 11.3544 11.5862 11.3544 11.6415V12.3299C11.3544 12.3852 11.3992 12.4299 11.4544 12.4299H12.6464V15.9071C12.6464 15.9623 12.6912 16.0071 12.7464 16.0071H13.6224C13.6776 16.0071 13.7224 15.9623 13.7224 15.9071V12.4299H14.9349C14.9901 12.4299 15.0349 12.3852 15.0349 12.3299V11.6415C15.0349 11.5862 14.9901 11.5415 14.9349 11.5415H11.4544Z" fill="#008196"/>
</svg>
