<svg width="24" height="24" viewBox="0 0 24 24" fill="none" xmlns="http://www.w3.org/2000/svg">
<path d="M9 9.49812C9.27614 9.49812 9.5 9.72198 9.5 9.99812V16.9981C9.5 17.2743 9.27614 17.4981 9 17.4981C8.72386 17.4981 8.5 17.2743 8.5 16.9981V9.99812C8.5 9.72198 8.72386 9.49812 9 9.49812Z" fill="#008196"/>
<path d="M12 11.4981C12.2761 11.4981 12.5 11.722 12.5 11.9981V16.9981C12.5 17.2743 12.2761 17.4981 12 17.4981C11.7239 17.4981 11.5 17.2743 11.5 16.9981V11.9981C11.5 11.722 11.7239 11.4981 12 11.4981Z" fill="#008196"/>
<path d="M15.5 12.9981C15.5 12.722 15.2761 12.4981 15 12.4981C14.7239 12.4981 14.5 12.722 14.5 12.9981V16.9981C14.5 17.2743 14.7239 17.4981 15 17.4981C15.2761 17.4981 15.5 17.2743 15.5 16.9981V12.9981Z" fill="#008196"/>
<path fill-rule="evenodd" clip-rule="evenodd" d="M19.0029 18.5022C19.0029 19.883 17.8836 21.0022 16.5029 21.0022H7.49707C6.11636 21.0022 4.99707 19.883 4.99707 18.5022V5.49776C4.99707 4.11704 6.11636 2.99776 7.49707 2.99776H13.4935L13.4986 2.99777L13.6912 2.99776C14.3566 2.99773 14.9945 3.26295 15.4638 3.73469L18.2754 6.56126C18.7414 7.02971 19.0029 7.66358 19.0029 8.32432V18.5022ZM12.8895 3.99776H7.49707C6.66864 3.99776 5.99707 4.66933 5.99707 5.49776V18.5022C5.99707 19.3307 6.66864 20.0022 7.49707 20.0022H16.5029C17.3314 20.0022 18.0029 19.3307 18.0029 18.5022V8.51371C18.0029 8.23757 17.7791 8.01371 17.5029 8.01371H15.4935C14.665 8.01371 13.9935 7.34214 13.9935 6.51371V4.49776C13.9935 4.2226 13.7712 3.99936 13.4964 3.99777L13.4935 3.99776L12.8955 3.99779C12.8935 3.99779 12.8895 3.99776 12.8895 3.99776ZM14.9935 4.67986V6.51371C14.9935 6.78985 15.2173 7.01371 15.4935 7.01371H17.315L14.9935 4.67986Z" fill="#008196"/>
</svg>
