<svg width="24" height="24" viewBox="0 0 24 24" fill="none" xmlns="http://www.w3.org/2000/svg">
<path fill-rule="evenodd" clip-rule="evenodd" d="M4.99707 5.4978C4.99707 4.11709 6.11636 2.9978 7.49707 2.9978H13.4935L13.5052 2.99785L13.6912 2.99784C14.3566 2.99781 14.9945 3.26303 15.4638 3.73477L18.2754 6.56134C18.7414 7.02979 19.0029 7.66366 19.0029 8.32441V18.5023C19.0029 19.883 17.8836 21.0023 16.5029 21.0023H7.49707C6.11636 21.0023 4.99707 19.883 4.99707 18.5023V17.4956C4.99707 17.2195 5.22093 16.9956 5.49707 16.9956C5.77321 16.9956 5.99707 17.2195 5.99707 17.4956V18.5023C5.99707 19.3307 6.66864 20.0023 7.49707 20.0023H16.5029C17.3314 20.0023 18.0029 19.3307 18.0029 18.5023V8.51376C18.0029 8.23761 17.7791 8.01376 17.5029 8.01376H15.4935C14.665 8.01376 13.9935 7.34218 13.9935 6.51376V4.4978C13.9935 4.22392 13.7733 4.00147 13.5003 3.99785L12.8955 3.99787L12.887 3.9978H7.49707C6.66864 3.9978 5.99707 4.66938 5.99707 5.4978V9.5007C5.99707 9.77685 5.77321 10.0007 5.49707 10.0007C5.22093 10.0007 4.99707 9.77685 4.99707 9.5007V5.4978ZM14.9935 6.51376V4.67994L17.3149 7.01376H15.4935C15.2173 7.01376 14.9935 6.7899 14.9935 6.51376Z" fill="#008196"/>
<path fill-rule="evenodd" clip-rule="evenodd" d="M13.4536 10.6806C14.1689 10.7006 14.7084 11.0386 14.876 11.5687C15.0903 12.2462 15.062 12.8995 14.4767 13.4239C14.0911 13.7686 13.5874 13.8225 13.0838 13.8389C12.8912 13.8441 12.8407 13.8432 12.755 13.8415C12.6962 13.8404 12.6207 13.8389 12.4715 13.8389V15.6572H10.1842C10.7107 15.4723 11.0604 15.1271 11.272 14.6351C11.4836 14.143 11.5048 13.6535 11.2617 13.1671C10.9223 12.4865 9.99164 12.0227 8.62805 12.4711C8.64493 12.4035 8.66059 12.3374 8.67593 12.2726C8.71743 12.0973 8.75671 11.9314 8.81189 11.7705C8.82712 11.7274 8.95929 11.6996 9.03816 11.6996C9.51521 11.6949 9.99128 11.6953 10.4674 11.6958L11.1823 11.6961V10.7083C11.2219 10.6921 11.2636 10.6805 11.3063 10.6739C11.511 10.6739 11.7157 10.6728 11.9203 10.6717C12.4317 10.669 12.9428 10.6663 13.4536 10.6806ZM12.7221 12.7937C12.7494 12.7895 12.7893 12.7833 12.8863 12.7726C13.0232 12.7625 13.1509 12.7033 13.2431 12.6073C13.3354 12.5112 13.3854 12.3856 13.3829 12.2559C13.3829 11.9775 13.2062 11.7705 12.8988 11.7346C12.8026 11.7234 12.7595 11.7166 12.73 11.712C12.6785 11.704 12.6681 11.7023 12.4883 11.6945V12.8101C12.6659 12.8025 12.6768 12.8008 12.7221 12.7937Z" fill="#008196"/>
<path d="M8.60501 13.392C8.8427 13.1876 9.15817 13.128 9.43556 13.2518C9.57301 13.3114 9.68719 13.4102 9.76203 13.5343C9.83687 13.6584 9.8686 13.8016 9.85274 13.9436C9.84295 14.0858 9.78557 14.2214 9.68888 14.3308C9.5922 14.4402 9.46121 14.5178 9.31481 14.5523C9.02382 14.6263 8.78396 14.5379 8.57292 14.3427C8.50983 14.2847 8.4092 14.2169 8.33414 14.2246C8.01978 14.2573 7.70663 14.3021 7.39333 14.3469C7.28816 14.3619 7.18297 14.3769 7.07771 14.3915C7.17398 14.9165 7.43179 15.1959 8.26942 15.6695H6.22136V13.8584H4.62902V15.6607H3V10.6851H4.61596V12.7879H6.20939V10.6892H7.68798L7.0516 13.3807C7.16454 13.3958 7.27634 13.4114 7.387 13.4269C7.70521 13.4714 8.01591 13.5149 8.32816 13.542C8.41573 13.5497 8.52669 13.4598 8.60501 13.392Z" fill="#008196"/>
</svg>
