<svg width="24" height="24" viewBox="0 0 24 24" fill="none" xmlns="http://www.w3.org/2000/svg">
<path fill-rule="evenodd" clip-rule="evenodd" d="M4.99707 5.4978C4.99707 4.11709 6.11636 2.9978 7.49707 2.9978H13.4935L13.5052 2.99785L13.6912 2.99784C14.3566 2.99781 14.9945 3.26303 15.4638 3.73477L18.2754 6.56134C18.7414 7.02979 19.0029 7.66366 19.0029 8.32441V18.5023C19.0029 19.883 17.8836 21.0023 16.5029 21.0023H7.49707C6.11636 21.0023 4.99707 19.883 4.99707 18.5023V17.4956C4.99707 17.2195 5.22093 16.9956 5.49707 16.9956C5.77321 16.9956 5.99707 17.2195 5.99707 17.4956V18.5023C5.99707 19.3307 6.66864 20.0023 7.49707 20.0023H16.5029C17.3314 20.0023 18.0029 19.3307 18.0029 18.5023V8.51376C18.0029 8.23761 17.7791 8.01376 17.5029 8.01376H15.4935C14.665 8.01376 13.9935 7.34218 13.9935 6.51376V4.4978C13.9935 4.22392 13.7733 4.00147 13.5003 3.99785L12.8955 3.99787L12.887 3.9978H7.49707C6.66864 3.9978 5.99707 4.66938 5.99707 5.4978V9.5007C5.99707 9.77685 5.77321 10.0007 5.49707 10.0007C5.22093 10.0007 4.99707 9.77685 4.99707 9.5007V5.4978ZM14.9935 6.51376V4.67994L17.3149 7.01376H15.4935C15.2173 7.01376 14.9935 6.7899 14.9935 6.51376Z" fill="#008196"/>
<path fill-rule="evenodd" clip-rule="evenodd" d="M12.5677 11.4519C12.329 11.4519 12.1075 11.4812 11.9038 11.5409C11.7027 11.6004 11.5255 11.6864 11.3742 11.7998C11.2226 11.9115 11.1032 12.0475 11.0178 12.2075C10.9311 12.3678 10.8886 12.5455 10.8886 12.7384C10.8886 12.9357 10.9285 13.1136 11.0117 13.269L11.0123 13.27C11.0951 13.4208 11.2073 13.5528 11.3477 13.6659L11.349 13.6669C11.4887 13.7758 11.6483 13.8707 11.8265 13.9517C12.0039 14.0314 12.1916 14.1033 12.3883 14.1668C12.5598 14.2208 12.6969 14.2721 12.801 14.3203C12.9056 14.3689 12.9814 14.416 13.0323 14.4603L13.0337 14.4615C13.0831 14.5029 13.1118 14.5451 13.1264 14.5874L13.1277 14.5909C13.146 14.6382 13.1562 14.694 13.1562 14.7599C13.1562 14.8376 13.1366 14.9046 13.0987 14.9638L13.0977 14.9653C13.0638 15.0205 13.0077 15.0683 12.9229 15.1049C12.8422 15.1404 12.7322 15.1609 12.5882 15.1609C12.47 15.1609 12.3628 15.1489 12.2661 15.1256C12.1743 15.1031 12.0972 15.0674 12.0331 15.0199C11.9734 14.9742 11.926 14.9138 11.8914 14.8363C11.8576 14.7608 11.8386 14.6632 11.8386 14.5402C11.8386 14.485 11.7938 14.4402 11.7386 14.4402H10.8567C10.8015 14.4402 10.7567 14.485 10.7567 14.5402C10.7567 14.7944 10.8095 15.0201 10.9191 15.2135C11.0263 15.4025 11.17 15.5588 11.3487 15.6807C11.5261 15.8003 11.7234 15.8899 11.9384 15.9493C12.1518 16.0062 12.3685 16.0347 12.5882 16.0347C12.8299 16.0347 13.0511 16.0075 13.2507 15.952C13.4502 15.8964 13.6248 15.8144 13.7728 15.7044C13.9217 15.5938 14.0368 15.4577 14.1163 15.2963C14.1963 15.1343 14.2351 14.9528 14.2351 14.7541C14.2351 14.5667 14.2028 14.3955 14.1359 14.2424C14.0694 14.0901 13.971 13.9548 13.8423 13.8366C13.7149 13.7196 13.5582 13.616 13.3738 13.5248C13.1921 13.434 12.9828 13.353 12.7464 13.2815C12.6103 13.2393 12.4916 13.1965 12.3901 13.1533C12.2892 13.1103 12.2069 13.0657 12.1418 13.0199C12.0779 12.975 12.0338 12.9297 12.0054 12.8852C11.9805 12.8433 11.9675 12.7961 11.9675 12.7414C11.9675 12.6645 11.9875 12.598 12.0269 12.539L12.0275 12.538C12.0658 12.4791 12.1253 12.429 12.2126 12.3904L12.2141 12.3898C12.2986 12.3507 12.4102 12.3287 12.553 12.3287C12.7004 12.3287 12.8146 12.3546 12.8996 12.3995C12.9888 12.4458 13.0513 12.5071 13.0916 12.5832L13.0928 12.5853C13.1359 12.6618 13.1591 12.7538 13.1591 12.8644C13.1591 12.9196 13.2039 12.9644 13.2591 12.9644H14.1321C14.1874 12.9644 14.2321 12.9196 14.2321 12.8644C14.2321 12.5925 14.1618 12.3474 14.0194 12.1327C13.8795 11.9188 13.6833 11.7521 13.4344 11.6318C13.184 11.5107 12.8941 11.4519 12.5677 11.4519ZM10.8598 14.6402C10.8578 14.6075 10.8568 14.5742 10.8568 14.5403L10.8567 14.6402H10.8598Z" fill="#008196"/>
<path d="M3.09365 11.5105C3.05779 11.5105 3.02468 11.5297 3.00687 11.5608C2.98905 11.5919 2.98926 11.6302 3.00742 11.6611L4.21974 13.7255L2.9754 15.8251C2.95708 15.856 2.95675 15.8944 2.97454 15.9256C2.99233 15.9568 3.0255 15.9761 3.06143 15.9761H4.08096C4.11758 15.9761 4.15127 15.9561 4.16879 15.9239L4.90713 14.5677L5.64547 15.9239C5.66298 15.9561 5.69668 15.9761 5.7333 15.9761H6.74697C6.78288 15.9761 6.81604 15.9569 6.83383 15.9257C6.85163 15.8945 6.85133 15.8561 6.83305 15.8252L5.59152 13.7255L6.80103 11.661C6.81915 11.6301 6.81933 11.5919 6.80151 11.5608C6.78369 11.5297 6.75059 11.5105 6.71475 11.5105H5.70986C5.6731 11.5105 5.6393 11.5307 5.62185 11.563L4.90713 12.8881L4.19241 11.563C4.17496 11.5307 4.14116 11.5105 4.10439 11.5105H3.09365Z" fill="#008196"/>
<path d="M7.38936 11.6105C7.38936 11.5553 7.43413 11.5105 7.48936 11.5105H8.36826C8.42349 11.5105 8.46826 11.5553 8.46826 11.6105V15.0906H10.2315C10.2868 15.0906 10.3315 15.1353 10.3315 15.1906V15.8761C10.3315 15.9314 10.2868 15.9761 10.2315 15.9761H7.48936C7.43413 15.9761 7.38936 15.9314 7.38936 15.8761V11.6105Z" fill="#008196"/>
</svg>
