<svg width="24" height="24" viewBox="0 0 24 24" fill="none" xmlns="http://www.w3.org/2000/svg">
<path fill-rule="evenodd" clip-rule="evenodd" d="M19 18.5006C19 19.881 17.8812 21 16.501 21H7.49895C6.11882 21 5 19.881 5 18.5006V5.49938C5 4.11901 6.11882 3 7.49895 3H13.4929C13.4945 3 13.4962 3 13.4979 3.00001L13.6905 3C14.3556 2.99997 14.9933 3.26512 15.4623 3.73675L18.2728 6.56261C18.7385 7.03095 19 7.66466 19 8.32524V18.5006ZM12.8892 3.99975H11.0004V6.00145H11.5002C11.7762 6.00145 12 6.22525 12 6.50132C12 6.7774 11.7762 7.0012 11.5002 7.0012H11.0004V8.00095H11.5002C11.7762 8.00095 12 8.22475 12 8.50082C12 8.7769 11.7762 9.0007 11.5002 9.0007H11.0004V10.0005H11.5002C11.7762 10.0005 12 10.2243 12 10.5003C12 10.7764 11.7762 11.0002 11.5002 11.0002H11.0004V12H11.5002C11.7762 12 12 12.2238 12 12.4998C12 12.7759 11.7762 12.9997 11.5002 12.9997H11.0004L11.0004 13.9995H11.5002C11.7762 13.9995 12 14.2233 12 14.4993V15.4991C12 16.3273 11.3287 16.9987 10.5006 16.9987C9.67255 16.9987 9.00126 16.3273 9.00126 15.4991V14.4993C9.00126 14.2233 9.22502 13.9995 9.50105 13.9995H10.0008L10.0008 12H9.50105C9.22502 12 9.00126 11.7761 9.00126 11.5001C9.00126 11.224 9.22502 11.0002 9.50105 11.0002H10.0008V10.0005H9.50105C9.22502 10.0005 9.00126 9.77665 9.00126 9.50058C9.00126 9.2245 9.22502 9.0007 9.50105 9.0007H10.0008V8.00095H9.50105C9.22502 8.00095 9.00126 7.77715 9.00126 7.50107C9.00126 7.225 9.22502 7.0012 9.50105 7.0012H10.0008V6.00145L9.50105 6.00145C9.22502 6.00145 9.00126 5.77765 9.00126 5.50157C9.00126 5.2255 9.22502 5.0017 9.50105 5.0017L10.0008 5.0017V3.99975H7.49895C6.67087 3.99975 5.99958 4.67116 5.99958 5.49938V18.5006C5.99958 19.3288 6.67087 20.0002 7.49895 20.0002H16.501C17.3291 20.0002 18.0004 19.3288 18.0004 18.5006V8.51458C18.0004 8.2385 17.7767 8.0147 17.5006 8.0147H15.492C14.6639 8.0147 13.9926 7.3433 13.9926 6.51508V4.49963C13.9926 4.22454 13.7705 4.00135 13.4958 3.99976C13.4948 3.99975 13.4938 3.99975 13.4929 3.99975L12.8952 3.99979C12.8932 3.99979 12.8912 3.99977 12.8892 3.99975ZM14.9922 4.68168V6.51508C14.9922 6.79115 15.216 7.01495 15.492 7.01495H17.3127L14.9922 4.68168ZM10.0008 14.9992V15.4991C10.0008 15.7752 10.2246 15.999 10.5006 15.999C10.7767 15.999 11.0004 15.7752 11.0004 15.4991V14.9992H10.0008Z" fill="#008196"/>
</svg>
