<svg width="24" height="24" viewBox="0 0 24 24" fill="none" xmlns="http://www.w3.org/2000/svg">
<path fill-rule="evenodd" clip-rule="evenodd" d="M4.99707 5.4978C4.99707 4.11709 6.11636 2.9978 7.49707 2.9978H13.4935L13.5052 2.99785L13.6912 2.99784C14.3566 2.99781 14.9945 3.26303 15.4638 3.73477L18.2754 6.56134C18.7414 7.02979 19.0029 7.66366 19.0029 8.32441V18.5023C19.0029 19.883 17.8836 21.0023 16.5029 21.0023H7.49707C6.11636 21.0023 4.99707 19.883 4.99707 18.5023V17.4956C4.99707 17.2195 5.22093 16.9956 5.49707 16.9956C5.77321 16.9956 5.99707 17.2195 5.99707 17.4956V18.5023C5.99707 19.3307 6.66864 20.0023 7.49707 20.0023H16.5029C17.3314 20.0023 18.0029 19.3307 18.0029 18.5023V8.51376C18.0029 8.23761 17.7791 8.01376 17.5029 8.01376H15.4935C14.665 8.01376 13.9935 7.34218 13.9935 6.51376V4.4978C13.9935 4.22392 13.7733 4.00147 13.5003 3.99785L12.8955 3.99787L12.887 3.9978H7.49707C6.66864 3.9978 5.99707 4.66938 5.99707 5.4978V9.5007C5.99707 9.77685 5.77321 10.0007 5.49707 10.0007C5.22093 10.0007 4.99707 9.77685 4.99707 9.5007V5.4978ZM14.9935 6.51376V4.67994L17.3149 7.01376H15.4935C15.2173 7.01376 14.9935 6.7899 14.9935 6.51376Z" fill="#008196"/>
<path d="M3.12419 15.1139C3.07824 15.0078 3.03229 14.892 2.99553 14.7859C2.95876 14.6798 2.90362 14.429 2.86686 14.2554C2.82354 13.9775 2.84562 13.6927 2.93119 13.4258C2.9362 13.3971 2.9362 13.3677 2.93119 13.339V12.2393C2.93119 12.1635 2.93119 12.1413 2.92485 12.1393C2.92222 12.1385 2.91849 12.1412 2.91321 12.1449C2.90369 12.1517 2.88913 12.1621 2.86686 12.1621H2.729V12.1043L2.98633 11.9403C3.48889 11.6323 4.01447 11.3678 4.55789 11.1493C4.93469 11.0046 5.32069 10.8792 5.71587 10.7634C6.05968 10.6627 6.31306 10.6204 6.59704 10.573L6.72681 10.5512L7.78371 10.3969L8.19727 10.3486H8.2616V10.4162L7.06686 11.3808L6.96577 11.458L7.26905 11.728L7.69181 12.1139H7.76533C7.979 11.8856 8.26166 11.7424 8.56489 11.7088C8.86958 11.6615 9.17923 11.6615 9.48393 11.7088C9.8667 11.7384 10.2334 11.8823 10.5408 12.1235C10.7915 12.3303 10.9693 12.6188 11.0463 12.9435C11.1042 13.2417 11.1258 13.5464 11.1106 13.8502V16.3294C11.1106 16.3872 11.1106 16.4065 11.0463 16.3969H9.82392C9.778 16.3969 9.75964 16.3969 9.75964 16.3294V13.474C9.76282 13.3288 9.7378 13.1844 9.68611 13.0496C9.65551 12.9599 9.60426 12.8794 9.53692 12.8155C9.46958 12.7515 9.38824 12.7061 9.30012 12.6831C9.13494 12.6335 8.95983 12.6335 8.79465 12.6831C8.70103 12.724 8.61849 12.7885 8.55436 12.871C8.49023 12.9534 8.44648 13.0512 8.42703 13.1557C8.39932 13.4315 8.39932 13.7095 8.42703 13.9853V16.2136C8.42703 16.2136 8.42703 16.2715 8.37189 16.2715H7.16795C7.08524 16.2715 7.08524 16.2715 7.08524 16.1846V13.503C7.10145 13.3006 7.05643 13.0981 6.95657 12.9242C6.91251 12.8619 6.86331 12.8038 6.80953 12.7506H6.71763C6.49438 12.9054 6.24472 13.0135 5.9824 13.0689H5.82616C5.82616 13.0689 5.76183 13.0689 5.75264 13.1461C5.74654 13.1973 5.74853 13.2782 5.75057 13.3607C5.7516 13.4025 5.75264 13.4447 5.75264 13.4837V16.1461C5.75264 16.2329 5.75262 16.2329 5.66992 16.2329H4.50275C4.42004 16.2329 4.42004 16.2329 4.42004 16.1557V12.9724C4.42922 12.8859 4.42922 12.7985 4.42004 12.712V12.22C4.42004 12.1621 4.42003 12.1525 4.3557 12.1525H3.12419C3.11659 12.1506 3.10866 12.1509 3.10116 12.1531C3.09366 12.1554 3.08684 12.1596 3.08132 12.1654C3.0758 12.1712 3.07178 12.1783 3.06963 12.1862C3.06749 12.1941 3.06729 12.2024 3.06905 12.2104V13.3101C3.08156 13.4338 3.10307 13.5563 3.13338 13.6766C3.16387 13.8651 3.18534 14.055 3.19771 14.2457V15.1139H3.12419Z" fill="#008196"/>
</svg>
