<svg width="24" height="24" viewBox="0 0 24 24" fill="none" xmlns="http://www.w3.org/2000/svg">
<path d="M11.6465 9.64424C11.8417 9.44922 12.1583 9.44922 12.3535 9.64424L14.4404 11.7312C14.6356 11.9264 14.6355 12.2429 14.4404 12.4382L12.3535 14.5261C12.1583 14.721 11.8417 14.721 11.6465 14.5261C11.4512 14.3308 11.4512 14.0133 11.6465 13.8181L13.3799 12.0847L12 10.7048L8.70703 13.9978L12 17.2907L15.6465 13.6442C15.8417 13.4492 16.1583 13.4492 16.3535 13.6442C16.5487 13.8394 16.5486 14.156 16.3535 14.3513L12.3535 18.3513C12.1583 18.5465 11.8417 18.5465 11.6465 18.3513L7.64648 14.3513C7.45141 14.156 7.45128 13.8394 7.64648 13.6442L11.6465 9.64424Z" fill="#008196"/>
<path fill-rule="evenodd" clip-rule="evenodd" d="M13.6914 2.99775C14.3567 2.99777 14.9947 3.26336 15.4639 3.73506L18.2754 6.56123C18.7413 7.02959 19.0028 7.66333 19.0029 8.32393V18.5026C19.0027 19.8832 17.8835 21.0026 16.5029 21.0026H7.49707C6.11649 21.0026 4.99728 19.8832 4.99707 18.5026V5.49775C4.99707 4.11704 6.11636 2.99775 7.49707 2.99775H13.6914ZM7.49707 3.99775C6.66864 3.99775 5.99707 4.66933 5.99707 5.49775V18.5026C5.99728 19.3309 6.66877 20.0026 7.49707 20.0026H16.5029C17.3312 20.0026 18.0027 19.3309 18.0029 18.5026V8.51338C18.0028 8.23739 17.779 8.01338 17.5029 8.01338H15.4932C14.6649 8.01321 13.9932 7.3417 13.9932 6.51338V4.49775C13.9932 4.22161 13.7693 3.99775 13.4932 3.99775H7.49707ZM14.9932 6.51338C14.9932 6.78942 15.2172 7.01321 15.4932 7.01338H17.3145L14.9932 4.67939V6.51338Z" fill="#008196"/>
</svg>
