<svg width="24" height="24" viewBox="0 0 24 24" fill="none" xmlns="http://www.w3.org/2000/svg">
<path fill-rule="evenodd" clip-rule="evenodd" d="M4.99707 5.4978C4.99707 4.11709 6.11636 2.9978 7.49707 2.9978H13.4935L13.5052 2.99785L13.6912 2.99784C14.3566 2.99781 14.9945 3.26303 15.4638 3.73477L18.2754 6.56134C18.7414 7.02979 19.0029 7.66366 19.0029 8.32441V18.5023C19.0029 19.883 17.8836 21.0023 16.5029 21.0023H7.49707C6.11636 21.0023 4.99707 19.883 4.99707 18.5023V17.4956C4.99707 17.2195 5.22093 16.9956 5.49707 16.9956C5.77321 16.9956 5.99707 17.2195 5.99707 17.4956V18.5023C5.99707 19.3307 6.66864 20.0023 7.49707 20.0023H16.5029C17.3314 20.0023 18.0029 19.3307 18.0029 18.5023V8.51376C18.0029 8.23761 17.7791 8.01376 17.5029 8.01376H15.4935C14.665 8.01376 13.9935 7.34218 13.9935 6.51376V4.4978C13.9935 4.22392 13.7733 4.00147 13.5003 3.99785L12.8955 3.99787L12.887 3.9978H7.49707C6.66864 3.9978 5.99707 4.66938 5.99707 5.4978V9.5007C5.99707 9.77685 5.77321 10.0007 5.49707 10.0007C5.22093 10.0007 4.99707 9.77685 4.99707 9.5007V5.4978ZM14.9935 6.51376V4.67994L17.3149 7.01376H15.4935C15.2173 7.01376 14.9935 6.7899 14.9935 6.51376Z" fill="#008196"/>
<path d="M3.38076 11.192C3.32553 11.192 3.28076 11.2368 3.28076 11.292V15.5576C3.28076 15.6129 3.32553 15.6576 3.38076 15.6576H4.25967C4.3149 15.6576 4.35967 15.6129 4.35967 15.5576V13.8998H5.95889C6.01412 13.8998 6.05889 13.8551 6.05889 13.7998V13.1143C6.05889 13.0591 6.01412 13.0143 5.95889 13.0143H4.35967V12.0805H6.16396C6.21919 12.0805 6.26396 12.0357 6.26396 11.9805V11.292C6.26396 11.2368 6.21919 11.192 6.16396 11.192H3.38076Z" fill="#008196"/>
<path d="M6.97373 11.192C6.9185 11.192 6.87373 11.2368 6.87373 11.292V15.5576C6.87373 15.6129 6.9185 15.6576 6.97373 15.6576H9.71592C9.77115 15.6576 9.81592 15.6129 9.81592 15.5576V14.8721C9.81592 14.8169 9.77115 14.7721 9.71592 14.7721H7.95264V11.292C7.95264 11.2368 7.90787 11.192 7.85264 11.192H6.97373Z" fill="#008196"/>
</svg>
