<svg width="24" height="24" viewBox="0 0 24 24" fill="none" xmlns="http://www.w3.org/2000/svg">
<path d="M12.5005 11.0127C12.5005 10.7366 12.2766 10.5127 12.0005 10.5127C11.7243 10.5127 11.5005 10.7366 11.5005 11.0127V13.009L9.5038 13.0116C9.22766 13.012 9.00409 13.2362 9.00446 13.5123C9.00482 13.7884 9.22898 14.012 9.50512 14.0116L11.5005 14.009V16.004C11.5005 16.2802 11.7243 16.504 12.0005 16.504C12.2766 16.504 12.5005 16.2802 12.5005 16.004V14.0077L14.4964 14.0051C14.7726 14.0047 14.9961 13.7805 14.9958 13.5044C14.9954 13.2283 14.7713 13.0047 14.4951 13.0051L12.5005 13.0077V11.0127Z" fill="#008196"/>
<path fill-rule="evenodd" clip-rule="evenodd" d="M19.0029 18.5041C19.0029 19.8848 17.8836 21.0041 16.5029 21.0041H7.49707C6.11636 21.0041 4.99707 19.8848 4.99707 18.5041V5.49963C4.99707 4.11892 6.11636 2.99963 7.49707 2.99963H13.4935L13.4986 2.99964L13.6912 2.99963C14.3566 2.9996 14.9945 3.26482 15.4638 3.73657L18.2754 6.56313C18.7414 7.03159 19.0029 7.66546 19.0029 8.3262V18.5041ZM12.8895 3.99963H7.49707C6.66864 3.99963 5.99707 4.67121 5.99707 5.49963V18.5041C5.99707 19.3326 6.66864 20.0041 7.49707 20.0041H16.5029C17.3314 20.0041 18.0029 19.3326 18.0029 18.5041V8.51559C18.0029 8.23944 17.7791 8.01559 17.5029 8.01559H15.4935C14.665 8.01559 13.9935 7.34401 13.9935 6.51559V4.49963C13.9935 4.22448 13.7712 4.00124 13.4964 3.99964L13.4935 3.99963L12.8955 3.99967C12.8935 3.99967 12.8895 3.99963 12.8895 3.99963ZM14.9935 4.68173V6.51559C14.9935 6.79173 15.2173 7.01559 15.4935 7.01559H17.315L14.9935 4.68173Z" fill="#008196"/>
</svg>
