<svg width="24" height="24" viewBox="0 0 24 24" fill="none" xmlns="http://www.w3.org/2000/svg">
<path fill-rule="evenodd" clip-rule="evenodd" d="M4.99707 5.4978C4.99707 4.11709 6.11636 2.9978 7.49707 2.9978H13.4935L13.5052 2.99785L13.6912 2.99784C14.3566 2.99781 14.9945 3.26303 15.4638 3.73477L18.2754 6.56134C18.7414 7.02979 19.0029 7.66366 19.0029 8.32441V18.5023C19.0029 19.883 17.8836 21.0023 16.5029 21.0023H7.49707C6.11636 21.0023 4.99707 19.883 4.99707 18.5023V17.4956C4.99707 17.2195 5.22093 16.9956 5.49707 16.9956C5.77321 16.9956 5.99707 17.2195 5.99707 17.4956V18.5023C5.99707 19.3307 6.66864 20.0023 7.49707 20.0023H16.5029C17.3314 20.0023 18.0029 19.3307 18.0029 18.5023V8.51376C18.0029 8.23761 17.7791 8.01376 17.5029 8.01376H15.4935C14.665 8.01376 13.9935 7.34218 13.9935 6.51376V4.4978C13.9935 4.22392 13.7733 4.00147 13.5003 3.99785L12.8955 3.99787L12.887 3.9978H7.49707C6.66864 3.9978 5.99707 4.66938 5.99707 5.4978V9.5007C5.99707 9.77685 5.77321 10.0007 5.49707 10.0007C5.22093 10.0007 4.99707 9.77685 4.99707 9.5007V5.4978ZM14.9935 6.51376V4.67994L17.3149 7.01376H15.4935C15.2173 7.01376 14.9935 6.7899 14.9935 6.51376Z" fill="#008196"/>
<path fill-rule="evenodd" clip-rule="evenodd" d="M5.06533 11.1348C4.7856 11.1348 4.52686 11.1848 4.29049 11.2864C4.05633 11.388 3.85239 11.5359 3.68075 11.7282C3.51091 11.9208 3.38073 12.1524 3.28912 12.421C3.19698 12.6892 3.15186 12.9915 3.15186 13.3266V13.5287C3.15186 13.8619 3.19723 14.1647 3.28926 14.4347C3.38291 14.7034 3.5155 14.9353 3.68737 15.1279C3.85901 15.3182 4.06244 15.4645 4.29635 15.5659C4.53272 15.6675 4.79146 15.7176 5.07119 15.7176C5.35264 15.7176 5.61142 15.6676 5.84603 15.5659C6.08202 15.4645 6.28582 15.3178 6.45577 15.1271C6.62566 14.9344 6.75587 14.7028 6.84748 14.434C6.93952 14.1641 6.98467 13.8619 6.98467 13.5287V13.3266C6.98467 12.9915 6.93856 12.6891 6.84441 12.4208C6.75275 12.1521 6.62154 11.9206 6.44971 11.728C6.27983 11.5354 6.07641 11.388 5.84032 11.2865C5.60567 11.1848 5.34684 11.1348 5.06533 11.1348ZM4.71634 12.1143C4.81532 12.0623 4.93081 12.035 5.06533 12.035C5.19986 12.035 5.31534 12.0623 5.41432 12.1143L5.41552 12.1149C5.51436 12.1652 5.59969 12.2412 5.67124 12.3459C5.74298 12.4508 5.79933 12.5835 5.83818 12.7463C5.87696 12.9087 5.89697 13.0999 5.89697 13.3207V13.5287C5.89697 13.7474 5.87698 13.9387 5.83815 14.1033C5.79924 14.2663 5.74367 14.4004 5.67332 14.5077C5.60373 14.612 5.51932 14.6889 5.42019 14.741C5.3212 14.793 5.20572 14.8203 5.07119 14.8203C4.93667 14.8203 4.82118 14.793 4.7222 14.741C4.62281 14.6887 4.53718 14.6116 4.46551 14.5068C4.39355 14.3997 4.3372 14.2659 4.29838 14.1033C4.25954 13.9387 4.23955 13.7474 4.23955 13.5287V13.3207C4.23955 13.0999 4.25957 12.9087 4.29834 12.7463C4.33723 12.5833 4.39268 12.4505 4.46267 12.3454C4.53441 12.2406 4.6195 12.1644 4.71634 12.1143Z" fill="#008196"/>
<path d="M7.35752 11.1934C7.30229 11.1934 7.25752 11.2381 7.25752 11.2934V11.9818C7.25752 12.0371 7.30229 12.0818 7.35752 12.0818H8.54951V15.559C8.54951 15.6142 8.59428 15.659 8.64951 15.659H9.52549C9.58072 15.659 9.62549 15.6142 9.62549 15.559V12.0818H10.838C10.8932 12.0818 10.938 12.0371 10.938 11.9818V11.2934C10.938 11.2381 10.8932 11.1934 10.838 11.1934H7.35752Z" fill="#008196"/>
<path d="M11.639 11.1934C11.5837 11.1934 11.539 11.2381 11.539 11.2934V15.559C11.539 15.6142 11.5837 15.659 11.639 15.659H12.5179C12.5731 15.659 12.6179 15.6142 12.6179 15.559V13.8162H14.1347V15.559C14.1347 15.6142 14.1794 15.659 14.2347 15.659H15.1106C15.1659 15.659 15.2106 15.6142 15.2106 15.559V11.2934C15.2106 11.2381 15.1659 11.1934 15.1106 11.1934H14.2347C14.1794 11.1934 14.1347 11.2381 14.1347 11.2934V12.9307H12.6179V11.2934C12.6179 11.2381 12.5731 11.1934 12.5179 11.1934H11.639Z" fill="#008196"/>
</svg>
