<svg width="24" height="24" viewBox="0 0 24 24" fill="none" xmlns="http://www.w3.org/2000/svg">
<path fill-rule="evenodd" clip-rule="evenodd" d="M7.49707 3.99776H12.8895L12.8955 3.99779L13.4935 3.99776L13.4964 3.99777C13.7712 3.99936 13.9935 4.2226 13.9935 4.49776V6.51371C13.9935 7.34214 14.665 8.01371 15.4935 8.01371H17.5029C17.7791 8.01371 18.0029 8.23757 18.0029 8.51371V18.5022C18.0029 19.3307 17.3314 20.0022 16.5029 20.0022H7.49707C6.66864 20.0022 5.99707 19.3307 5.99707 18.5022V17.4956C5.99707 17.2194 5.77321 16.9956 5.49707 16.9956C5.22093 16.9956 4.99707 17.2194 4.99707 17.4956V18.5022C4.99707 19.883 6.11636 21.0022 7.49707 21.0022H16.5029C17.8836 21.0022 19.0029 19.883 19.0029 18.5022V8.32432C19.0029 7.66358 18.7414 7.02971 18.2754 6.56126L15.4638 3.73469C14.9945 3.26295 14.3566 2.99773 13.6912 2.99776L13.4986 2.99777L13.4935 2.99776H7.49707C6.11636 2.99776 4.99707 4.11705 4.99707 5.49776V9.50066C4.99707 9.7768 5.22093 10.0007 5.49707 10.0007C5.77321 10.0007 5.99707 9.7768 5.99707 9.50066V5.49776C5.99707 4.66933 6.66864 3.99776 7.49707 3.99776ZM14.9935 6.51371V4.67986L17.315 7.01371H15.4935C15.2173 7.01371 14.9935 6.78985 14.9935 6.51371Z" fill="#008196"/>
<path fill-rule="evenodd" clip-rule="evenodd" d="M13.2718 11.5597H13.1496C12.6779 11.5532 11.9888 11.5473 11.8261 11.5597H11.7892C11.7251 11.5597 11.6728 11.6101 11.6698 11.6734L11.6688 11.6795L11.6684 11.6842L11.6696 15.9287C11.6696 15.9948 11.7231 16.0483 11.7892 16.0483H11.9722L11.972 16.0503H13.0413L13.0408 16.0483H13.4148C13.7541 16.0483 14.0486 16.0002 14.2946 15.8994C14.5439 15.7979 14.7389 15.6441 14.8725 15.4359C15.0059 15.2259 15.0695 14.9724 15.0695 14.6825C15.0695 14.4936 15.0286 14.3151 14.9465 14.1486C14.8632 13.9754 14.73 13.8372 14.5529 13.7334C14.5457 13.729 14.5385 13.7248 14.5312 13.7207C14.664 13.6282 14.7679 13.5145 14.8395 13.3787L14.8523 13.3543C14.9275 13.2132 14.9746 13.0438 14.9746 12.8423C14.9746 11.9457 14.287 11.5976 13.4772 11.5653C13.4106 11.5616 13.3421 11.5597 13.2718 11.5597ZM14.5312 13.7207C14.5189 13.7293 14.5064 13.7376 14.4936 13.7458C14.5058 13.7375 14.518 13.7289 14.53 13.72L14.5312 13.7207ZM12.99 15.1257H12.7843V14.187H13.2748L13.2899 14.1868L13.3064 14.1864C13.4671 14.1829 13.9129 14.173 13.9519 14.598C13.953 14.6092 13.9546 14.62 13.9567 14.6302C13.9574 14.6443 13.9578 14.6588 13.9578 14.6737C13.9578 14.7674 13.9382 14.8455 13.9023 14.9113C13.8685 14.9733 13.8155 15.0253 13.737 15.0663C13.6618 15.1037 13.5566 15.1262 13.4148 15.1262L12.99 15.1257ZM13.6452 13.3418L13.6247 13.2901C13.7088 13.255 13.7633 13.2086 13.7983 13.1534C13.8362 13.0945 13.8585 13.0182 13.8585 12.9197C13.8585 12.8015 13.8358 12.7185 13.8006 12.6616L13.7995 12.6598C13.7675 12.6061 13.7154 12.5627 13.632 12.5334C13.5465 12.5027 13.4276 12.4847 13.2718 12.4847H12.7843V12.4826H12.7798V12.4847H12.7843V13.3417L13.3343 13.3418C13.4563 13.3371 13.5524 13.3186 13.6247 13.2901L13.6229 13.2908L13.6452 13.3418Z" fill="#008196"/>
<path fill-rule="evenodd" clip-rule="evenodd" d="M3.39884 11.5597C3.33282 11.5597 3.2793 11.6133 3.2793 11.6793V15.9287C3.2793 15.9948 3.33282 16.0483 3.39884 16.0483H4.27441C4.34044 16.0483 4.39396 15.9948 4.39396 15.9287V14.5335H5.05367C5.39898 14.5335 5.70186 14.477 5.95852 14.3593C6.21655 14.2418 6.41839 14.0725 6.5586 13.8503C6.69893 13.6279 6.76676 13.3677 6.76676 13.0744C6.76676 12.7845 6.69873 12.5225 6.55993 12.2918C6.42074 12.0606 6.22006 11.8813 5.96245 11.7534C5.70474 11.6226 5.40038 11.5597 5.05367 11.5597H3.39884ZM5.05367 13.6115H4.39396V12.4847H5.05367C5.20607 12.4847 5.31813 12.5149 5.39858 12.5655C5.4845 12.6196 5.54508 12.6893 5.58368 12.7758C5.62507 12.8685 5.64626 12.9695 5.64626 13.0802C5.64626 13.1888 5.62515 13.2823 5.5855 13.3632C5.54885 13.438 5.49095 13.4981 5.40648 13.5436C5.32403 13.5861 5.20881 13.6115 5.05367 13.6115Z" fill="#008196"/>
<path d="M7.51228 11.5597C7.44626 11.5597 7.39273 11.6133 7.39273 11.6793V14.487C7.39273 14.8306 7.46584 15.1296 7.61817 15.3763C7.7709 15.6203 7.98191 15.8042 8.24771 15.9266C8.5128 16.0476 8.81232 16.1066 9.14376 16.1066C9.47501 16.1066 9.77277 16.0477 10.0343 15.9264C10.3001 15.804 10.51 15.6202 10.6608 15.376C10.8152 15.1292 10.8889 14.8308 10.8889 14.487V11.6793C10.8889 11.6133 10.8354 11.5597 10.7694 11.5597H9.89675C9.83073 11.5597 9.77721 11.6133 9.77721 11.6793V14.487C9.77721 14.6663 9.74865 14.8018 9.69934 14.9005L9.69867 14.9019C9.65103 15.0003 9.58295 15.0691 9.49523 15.113C9.40518 15.1588 9.28963 15.1846 9.14376 15.1846C9.00265 15.1846 8.88631 15.1591 8.79116 15.1124C8.70327 15.0684 8.63478 14.9995 8.58525 14.9005C8.53594 14.8018 8.50739 14.6663 8.50739 14.487V11.6793C8.50739 11.6133 8.45387 11.5597 8.38785 11.5597H7.51228Z" fill="#008196"/>
</svg>
