<svg width="24" height="24" viewBox="0 0 24 24" fill="none" xmlns="http://www.w3.org/2000/svg">
<path fill-rule="evenodd" clip-rule="evenodd" d="M4.99707 5.4978C4.99707 4.11709 6.11636 2.9978 7.49707 2.9978H13.4935L13.5052 2.99785L13.6912 2.99784C14.3566 2.99781 14.9945 3.26303 15.4638 3.73477L18.2754 6.56134C18.7414 7.02979 19.0029 7.66366 19.0029 8.32441V18.5023C19.0029 19.883 17.8836 21.0023 16.5029 21.0023H7.49707C6.11636 21.0023 4.99707 19.883 4.99707 18.5023V17.4956C4.99707 17.2195 5.22093 16.9956 5.49707 16.9956C5.77321 16.9956 5.99707 17.2195 5.99707 17.4956V18.5023C5.99707 19.3307 6.66864 20.0023 7.49707 20.0023H16.5029C17.3314 20.0023 18.0029 19.3307 18.0029 18.5023V8.51376C18.0029 8.23761 17.7791 8.01376 17.5029 8.01376H15.4935C14.665 8.01376 13.9935 7.34218 13.9935 6.51376V4.4978C13.9935 4.22392 13.7733 4.00147 13.5003 3.99785L12.8955 3.99787L12.887 3.9978H7.49707C6.66864 3.9978 5.99707 4.66938 5.99707 5.4978V9.5007C5.99707 9.77685 5.77321 10.0007 5.49707 10.0007C5.22093 10.0007 4.99707 9.77685 4.99707 9.5007V5.4978ZM14.9935 6.51376V4.67994L17.3149 7.01376H15.4935C15.2173 7.01376 14.9935 6.7899 14.9935 6.51376Z" fill="#008196"/>
<path fill-rule="evenodd" clip-rule="evenodd" d="M4.51163 11.6454C4.52619 11.6062 4.56358 11.5802 4.60537 11.5802H5.42275C5.46448 11.5802 5.50182 11.6061 5.51643 11.6452L7.11018 15.9108C7.12165 15.9415 7.11735 15.9759 7.09866 16.0028C7.07998 16.0298 7.04928 16.0458 7.0165 16.0458H6.079C6.03581 16.0458 5.99751 16.0181 5.98401 15.9771L5.71079 15.1464H4.3225L4.05 15.977C4.03653 16.0181 3.9982 16.0458 3.95498 16.0458H3.02041C2.98767 16.0458 2.957 16.0298 2.9383 16.0029C2.91961 15.976 2.91527 15.9417 2.92667 15.911L4.51163 11.6454ZM4.614 14.2579H5.41856L5.01577 13.0333L4.614 14.2579Z" fill="#008196"/>
<path d="M7.67061 11.6802C7.67061 11.625 7.71538 11.5802 7.77061 11.5802H8.64658C8.70181 11.5802 8.74658 11.625 8.74658 11.6802V15.9458C8.74658 16.0011 8.70181 16.0458 8.64658 16.0458H7.77061C7.71538 16.0458 7.67061 16.0011 7.67061 15.9458V11.6802Z" fill="#008196"/>
</svg>
