<svg width="24" height="24" viewBox="0 0 24 24" fill="none" xmlns="http://www.w3.org/2000/svg">
<path fill-rule="evenodd" clip-rule="evenodd" d="M12.8895 3.9978H7.49707C6.66864 3.9978 5.99707 4.66938 5.99707 5.4978V9.5007C5.99707 9.77685 5.77321 10.0007 5.49707 10.0007C5.22093 10.0007 4.99707 9.77685 4.99707 9.5007V5.4978C4.99707 4.11709 6.11636 2.9978 7.49707 2.9978H13.4935L13.4986 2.99781L13.6912 2.9978C14.3566 2.99777 14.9945 3.26299 15.4638 3.73474L18.2754 6.5613C18.7414 7.02976 19.0029 7.66363 19.0029 8.32437V18.5023C19.0029 19.883 17.8836 21.0023 16.5029 21.0023H7.49707C6.11636 21.0023 4.99707 19.883 4.99707 18.5023V17.4956C4.99707 17.2195 5.22093 16.9956 5.49707 16.9956C5.77321 16.9956 5.99707 17.2195 5.99707 17.4956V18.5023C5.99707 19.3307 6.66864 20.0023 7.49707 20.0023H16.5029C17.3314 20.0023 18.0029 19.3307 18.0029 18.5023V8.51376C18.0029 8.23761 17.7791 8.01376 17.5029 8.01376H15.4935C14.665 8.01376 13.9935 7.34218 13.9935 6.51376V4.4978C13.9935 4.22265 13.7712 3.9994 13.4964 3.99781L13.4935 3.9978L12.8955 3.99784L12.8895 3.9978ZM14.9935 4.6799V6.51376C14.9935 6.7899 15.2173 7.01376 15.4935 7.01376H17.315L14.9935 4.6799Z" fill="#008196"/>
<path fill-rule="evenodd" clip-rule="evenodd" d="M3.32443 15.9686C3.34592 15.9891 3.37496 16.0016 3.40694 16.0016H4.28458C4.35076 16.0016 4.4044 15.9479 4.4044 15.8817V14.4833H5.06568C5.4118 14.4833 5.7154 14.4266 5.97266 14.3086C6.2313 14.1908 6.43361 14.0211 6.57416 13.7984C6.71482 13.5755 6.78281 13.3146 6.78281 13.0206C6.78281 12.7301 6.71462 12.4674 6.57549 12.2363C6.43598 12.0045 6.23482 11.8247 5.9766 11.6966C5.71828 11.5654 5.41321 11.5024 5.06568 11.5024H3.40694C3.37064 11.5024 3.33812 11.5186 3.31615 11.5441C3.2945 11.5624 3.28076 11.5898 3.28076 11.6204V15.886C3.28076 15.9203 3.29807 15.9506 3.32443 15.9686ZM5.58903 13.3288C5.55207 13.3951 5.49687 13.4492 5.41932 13.491C5.33667 13.5336 5.22118 13.559 5.06568 13.559H4.4044V12.4296H5.06568C5.21844 12.4296 5.33076 12.4599 5.4114 12.5106C5.48322 12.5558 5.53738 12.6119 5.57582 12.6796C5.58165 12.6904 5.5871 12.7015 5.59218 12.7129C5.63494 12.8087 5.65674 12.9129 5.65674 13.0266C5.65674 13.1383 5.63501 13.2353 5.5937 13.3195C5.59218 13.3226 5.59062 13.3257 5.58903 13.3288Z" fill="#008196"/>
<path fill-rule="evenodd" clip-rule="evenodd" d="M7.44795 11.6204C7.44795 11.6094 7.44971 11.5989 7.45296 11.589C7.46738 11.539 7.51348 11.5024 7.56812 11.5024H8.88458C9.18301 11.5024 9.45897 11.5536 9.7109 11.6576C9.9638 11.7592 10.1836 11.906 10.3691 12.0977C10.5547 12.2896 10.6968 12.5183 10.7957 12.782C10.8972 13.0452 10.9469 13.3359 10.9469 13.6525V13.8544C10.9469 14.1693 10.8971 14.4599 10.7958 14.7248C10.6968 14.9886 10.5547 15.2173 10.3691 15.4092C10.1853 15.5993 9.96537 15.7459 9.71081 15.8494C9.45699 15.9513 9.17784 16.0016 8.8758 16.0016H8.6764V16.0042H7.89004V16.0016H7.56812C7.52105 16.0016 7.48032 15.9744 7.46072 15.9349C7.45259 15.9205 7.44795 15.9038 7.44795 15.886V11.6204ZM7.44866 11.6255L7.45005 11.6376V11.6354L7.44866 11.6255ZM8.56559 15.0774V12.4296H8.88458C9.04046 12.4296 9.17345 12.4564 9.28613 12.5069L9.28751 12.5075C9.3998 12.5561 9.49417 12.6286 9.5718 12.7265C9.64966 12.8247 9.71047 12.9487 9.75186 13.1017L9.75222 13.1029C9.79536 13.2557 9.81792 13.4365 9.81792 13.6467V13.8544C9.81792 14.1282 9.77809 14.3557 9.70355 14.5385C9.63136 14.7199 9.52676 14.8521 9.39194 14.9421C9.25743 15.03 9.08756 15.0774 8.8758 15.0774H8.56559Z" fill="#008196"/>
<path d="M11.7644 11.5024C11.6982 11.5024 11.6446 11.5561 11.6446 11.6223V15.8817C11.6446 15.9479 11.6982 16.0016 11.7644 16.0016H12.6421C12.7082 16.0016 12.7619 15.9479 12.7619 15.8817V14.2463H14.3388C14.405 14.2463 14.4587 14.1926 14.4587 14.1265V13.4419C14.4587 13.3757 14.405 13.3221 14.3388 13.3221H12.7619V12.4296H14.5436C14.6098 12.4296 14.6634 12.3759 14.6634 12.3098V11.6223C14.6634 11.5561 14.6098 11.5024 14.5436 11.5024H11.7644Z" fill="#008196"/>
</svg>
