<svg width="24" height="24" viewBox="0 0 24 24" fill="none" xmlns="http://www.w3.org/2000/svg">
<path fill-rule="evenodd" clip-rule="evenodd" d="M9.14645 5.14457C9.34171 4.94931 9.65829 4.94931 9.85355 5.14457L11.3536 6.64457C11.5488 6.83983 11.5488 7.15641 11.3536 7.35168L10.1628 8.54244L10.8536 9.23319C11.0488 9.42845 11.0488 9.74504 10.8536 9.9403C10.6583 10.1356 10.3417 10.1356 10.1464 9.9403L10 9.79385V11.4982C10 11.7743 10.2239 11.9982 10.5 11.9982H11.1271C11.2983 11.6928 11.625 11.4864 12 11.4864C12.375 11.4864 12.7017 11.6928 12.8729 11.9982H13.0053C13.8338 11.9982 14.5053 12.6697 14.5053 13.4982V14.9981H15.5029C16.3314 14.9981 17.0029 15.6697 17.0029 16.4981V17.4981C17.0029 18.3266 16.3314 18.9981 15.5029 18.9981H11.5029C10.6745 18.9981 10.0029 18.3266 10.0029 17.4981H8.70711L8.85355 17.6446C9.04882 17.8398 9.04882 18.1564 8.85355 18.3517C8.65829 18.5469 8.34171 18.5469 8.14645 18.3517L7.14645 17.3517C7.09851 17.3037 7.06234 17.2485 7.03794 17.1895C7.01349 17.1306 7 17.0659 7 16.9981C7 16.9303 7.01349 16.8657 7.03794 16.8067C7.06234 16.7478 7.09851 16.6925 7.14645 16.6446L8.14645 15.6446C8.34171 15.4493 8.65829 15.4493 8.85355 15.6446C9.04882 15.8398 9.04882 16.1564 8.85355 16.3517L8.70711 16.4981H10.0029C10.0029 15.6697 10.6745 14.9981 11.5029 14.9981H13.5053V13.4982C13.5053 13.222 13.2815 12.9982 13.0053 12.9982H12.8593C12.6848 13.2906 12.3653 13.4864 12 13.4864C11.6347 13.4864 11.3152 13.2906 11.1407 12.9982H10.5C9.67157 12.9982 9 12.3266 9 11.4982V9.79385L8.85355 9.9403C8.65829 10.1356 8.34171 10.1356 8.14645 9.9403C7.95118 9.74504 7.95118 9.42845 8.14645 9.23319L8.8372 8.54243L7.64645 7.35168C7.45118 7.15641 7.45118 6.83983 7.64645 6.64457L9.14645 5.14457ZM8.70711 6.99812L9.5 7.79102L10.2929 6.99812L9.5 6.20523L8.70711 6.99812ZM11.5029 15.9981C11.2268 15.9981 11.0029 16.222 11.0029 16.4981V17.4981C11.0029 17.7743 11.2268 17.9981 11.5029 17.9981H15.5029C15.7791 17.9981 16.0029 17.7743 16.0029 17.4981V16.4981C16.0029 16.222 15.7791 15.9981 15.5029 15.9981H11.5029Z" fill="#008196"/>
<path fill-rule="evenodd" clip-rule="evenodd" d="M19.0029 18.5022C19.0029 19.883 17.8836 21.0022 16.5029 21.0022H7.49707C6.11636 21.0022 4.99707 19.883 4.99707 18.5022V5.49776C4.99707 4.11704 6.11636 2.99776 7.49707 2.99776H13.4935L13.4986 2.99777L13.6912 2.99776C14.3566 2.99773 14.9945 3.26295 15.4638 3.73469L18.2754 6.56126C18.7414 7.02971 19.0029 7.66358 19.0029 8.32432V18.5022ZM12.8895 3.99776H7.49707C6.66864 3.99776 5.99707 4.66933 5.99707 5.49776V18.5022C5.99707 19.3307 6.66864 20.0022 7.49707 20.0022H16.5029C17.3314 20.0022 18.0029 19.3307 18.0029 18.5022V8.51371C18.0029 8.23757 17.7791 8.01371 17.5029 8.01371H15.4935C14.665 8.01371 13.9935 7.34214 13.9935 6.51371V4.49776C13.9935 4.2226 13.7712 3.99936 13.4964 3.99777L13.4935 3.99776L12.8955 3.99779C12.8935 3.99779 12.8895 3.99776 12.8895 3.99776ZM14.9935 4.67986V6.51371C14.9935 6.78985 15.2173 7.01371 15.4935 7.01371H17.315L14.9935 4.67986Z" fill="#008196"/>
</svg>
