<svg width="24" height="24" viewBox="0 0 24 24" fill="none" xmlns="http://www.w3.org/2000/svg">
<path d="M12 16.7468C12.2761 16.7468 12.5 16.9706 12.5 17.2468C12.5 17.5229 12.2761 17.7468 12 17.7468C11.7239 17.7468 11.5 17.5229 11.5 17.2468C11.5 16.9706 11.7239 16.7468 12 16.7468Z" fill="#008196"/>
<path d="M11.9795 9.74971C13.3857 9.74971 14.5 10.9206 14.5 12.3327C14.5 13.1701 14.0373 13.735 13.5459 14.1101C13.1982 14.3754 12.7851 14.5806 12.4795 14.7282V15.2497C12.4794 15.5257 12.2556 15.7497 11.9795 15.7497C11.7036 15.7495 11.4796 15.5256 11.4795 15.2497V14.4157C11.4796 14.2287 11.5848 14.0571 11.751 13.9714C11.8501 13.9203 11.9522 13.8716 12.0547 13.822C12.3538 13.6772 12.6609 13.5277 12.9395 13.3151C13.2895 13.0479 13.5 12.745 13.5 12.3327C13.5 11.4437 12.8047 10.7497 11.9795 10.7497C11.2563 10.7499 10.6343 11.281 10.4902 12.0124C10.4369 12.2833 10.1743 12.4603 9.90332 12.4069C9.6326 12.3536 9.45669 12.0908 9.50977 11.82C9.74009 10.6499 10.7483 9.7499 11.9795 9.74971Z" fill="#008196"/>
<path fill-rule="evenodd" clip-rule="evenodd" d="M13.6914 2.99776C14.3567 2.99778 14.9947 3.26336 15.4639 3.73506L18.2754 6.56123C18.7413 7.02959 19.0028 7.66333 19.0029 8.32393V18.5026C19.0027 19.8832 17.8835 21.0026 16.5029 21.0026H7.49707C6.11649 21.0026 4.99728 19.8832 4.99707 18.5026V5.49776C4.99707 4.11704 6.11636 2.99776 7.49707 2.99776H13.6914ZM7.49707 3.99776C6.66864 3.99776 5.99707 4.66933 5.99707 5.49776V18.5026C5.99728 19.3309 6.66877 20.0026 7.49707 20.0026H16.5029C17.3312 20.0026 18.0027 19.3309 18.0029 18.5026V8.51338C18.0028 8.23739 17.779 8.01338 17.5029 8.01338H15.4932C14.6649 8.01321 13.9932 7.34171 13.9932 6.51338V4.49776C13.9932 4.22161 13.7693 3.99776 13.4932 3.99776H7.49707ZM14.9932 6.51338C14.9932 6.78942 15.2172 7.01321 15.4932 7.01338H17.3145L14.9932 4.6794V6.51338Z" fill="#008196"/>
</svg>
