<svg width="24" height="24" viewBox="0 0 24 24" fill="none" xmlns="http://www.w3.org/2000/svg">
<path d="M7.50146 7.00166C7.22532 7.00166 7.00146 7.22552 7.00146 7.50166V8.50288C7.00146 8.77903 7.22532 9.00288 7.50146 9.00288C7.77761 9.00288 8.00146 8.77903 8.00146 8.50288V8.00166H9.00146V11.0017H8.50269C8.22654 11.0017 8.00269 11.2255 8.00269 11.5017C8.00269 11.7778 8.22654 12.0017 8.50269 12.0017H10.5005C10.7766 12.0017 11.0005 11.7778 11.0005 11.5017C11.0005 11.2255 10.7766 11.0017 10.5005 11.0017H10.0015V8.00166H11.0015V8.50288C11.0015 8.77903 11.2253 9.00288 11.5015 9.00288C11.7776 9.00288 12.0015 8.77903 12.0015 8.50288V7.50166C12.0015 7.22552 11.7776 7.00166 11.5015 7.00166H7.50146Z" fill="#008196"/>
<path d="M12.5078 11.0017C12.2317 11.0017 12.0078 11.2255 12.0078 11.5017C12.0078 11.7778 12.2317 12.0017 12.5078 12.0017H15.9999C16.276 12.0017 16.4999 11.7778 16.4999 11.5017C16.4999 11.2255 16.276 11.0017 15.9999 11.0017H12.5078Z" fill="#008196"/>
<path d="M8.5 14.0017C8.22386 14.0017 8 14.2255 8 14.5017C8 14.7778 8.22386 15.0017 8.5 15.0017L16 15.0017C16.2761 15.0017 16.5 14.7778 16.5 14.5017C16.5 14.2255 16.2761 14.0017 16 14.0017L8.5 14.0017Z" fill="#008196"/>
<path d="M8 17.4995C8 17.2233 8.22386 16.9995 8.5 16.9995L16 16.9995C16.2761 16.9995 16.5 17.2233 16.5 17.4995C16.5 17.7756 16.2761 17.9995 16 17.9995L8.5 17.9995C8.22386 17.9995 8 17.7756 8 17.4995Z" fill="#008196"/>
<path fill-rule="evenodd" clip-rule="evenodd" d="M19.0029 18.5022C19.0029 19.883 17.8836 21.0022 16.5029 21.0022H7.49707C6.11636 21.0022 4.99707 19.883 4.99707 18.5022V5.49776C4.99707 4.11704 6.11636 2.99776 7.49707 2.99776H13.4935L13.4986 2.99777L13.6912 2.99776C14.3566 2.99773 14.9945 3.26295 15.4638 3.73469L18.2754 6.56126C18.7414 7.02971 19.0029 7.66358 19.0029 8.32432V18.5022ZM12.8895 3.99776H7.49707C6.66864 3.99776 5.99707 4.66933 5.99707 5.49776V18.5022C5.99707 19.3307 6.66864 20.0022 7.49707 20.0022H16.5029C17.3314 20.0022 18.0029 19.3307 18.0029 18.5022V8.51371C18.0029 8.23757 17.7791 8.01371 17.5029 8.01371H15.4935C14.665 8.01371 13.9935 7.34214 13.9935 6.51371V4.49776C13.9935 4.2226 13.7712 3.99936 13.4964 3.99777L13.4935 3.99776L12.8955 3.99779C12.8935 3.99779 12.8895 3.99776 12.8895 3.99776ZM14.9935 4.67986V6.51371C14.9935 6.78985 15.2173 7.01371 15.4935 7.01371H17.315L14.9935 4.67986Z" fill="#008196"/>
</svg>
