<svg width="24" height="24" viewBox="0 0 24 24" fill="none" xmlns="http://www.w3.org/2000/svg">
<path d="M15.5384 10.467C15.3432 10.2716 15.0266 10.2713 14.8312 10.4665C14.6358 10.6616 14.6356 10.9782 14.8307 11.1736C15.554 11.8978 16.0003 12.8963 16.0003 14C16.0003 15.1037 15.554 16.1022 14.8307 16.8265C14.6356 17.0219 14.6358 17.3385 14.8312 17.5336C15.0266 17.7287 15.3432 17.7285 15.5384 17.5331C16.4411 16.629 17.0003 15.3793 17.0003 14C17.0003 12.6207 16.4411 11.3711 15.5384 10.467Z" fill="#008196"/>
<path fill-rule="evenodd" clip-rule="evenodd" d="M10.4396 16.9853L9.45613 16.0018L8.52574 16.0018C7.69977 16.0018 7.02921 15.3341 7.02571 14.5082L7.0215 13.5117C7.01798 12.6814 7.68963 12.0062 8.51992 12.0053L9.45374 12.0044L10.4396 11.0185C11.3846 10.0735 13.0003 10.7428 13.0003 12.0791V15.9246C13.0003 17.261 11.3846 17.9303 10.4396 16.9853ZM11.1467 11.7256C11.4617 11.4106 12.0003 11.6337 12.0003 12.0791V15.9246C12.0003 16.3701 11.4617 16.5932 11.1467 16.2782L10.0851 15.2166C9.99483 15.0868 9.84454 15.0018 9.67439 15.0018L8.52571 15.0018C8.25039 15.0018 8.02687 14.7792 8.02571 14.5039L8.02149 13.5075C8.02032 13.2307 8.2442 13.0056 8.52096 13.0053L9.66065 13.0042C9.78497 13.004 9.89865 12.9585 9.98604 12.8834C9.99768 12.8737 10.009 12.8633 10.0199 12.8524L11.1467 11.7256Z" fill="#008196"/>
<path d="M14.4247 12.5777C14.2296 12.3823 13.913 12.3821 13.7176 12.5772C13.5222 12.7723 13.5219 13.0889 13.7171 13.2843C13.9006 13.4681 14.0132 13.7204 14.0132 14C14.0132 14.2796 13.9006 14.5319 13.7171 14.7158C13.5219 14.9112 13.5222 15.2277 13.7176 15.4229C13.913 15.618 14.2296 15.6178 14.4247 15.4224C14.7878 15.0587 15.0132 14.5552 15.0132 14C15.0132 13.4448 14.7878 12.9413 14.4247 12.5777Z" fill="#008196"/>
<path fill-rule="evenodd" clip-rule="evenodd" d="M19.0029 8.32432C19.0029 7.66358 18.7414 7.02971 18.2754 6.56125L15.4638 3.73469C14.9945 3.26294 14.3566 2.99772 13.6912 2.99775L13.4986 2.99776L13.4935 2.99775H7.49707C6.11636 2.99775 4.99707 4.11704 4.99707 5.49775V18.5022C4.99707 19.883 6.11636 21.0022 7.49707 21.0022H16.5029C17.8836 21.0022 19.0029 19.883 19.0029 18.5022V8.32432ZM7.49707 3.99775H12.8895L12.8955 3.99779L13.4935 3.99775L13.4964 3.99776C13.7712 3.99935 13.9935 4.2226 13.9935 4.49775V6.51371C13.9935 7.34213 14.665 8.01371 15.4935 8.01371H17.5029C17.7791 8.01371 18.0029 8.23756 18.0029 8.51371V18.5022C18.0029 19.3307 17.3314 20.0022 16.5029 20.0022H7.49707C6.66864 20.0022 5.99707 19.3307 5.99707 18.5022V5.49775C5.99707 4.66933 6.66864 3.99775 7.49707 3.99775ZM14.9935 6.51371V4.67985L17.315 7.01371H15.4935C15.2173 7.01371 14.9935 6.78985 14.9935 6.51371Z" fill="#008196"/>
</svg>
