<svg width="24" height="24" viewBox="0 0 24 24" fill="none" xmlns="http://www.w3.org/2000/svg">
<path fill-rule="evenodd" clip-rule="evenodd" d="M7.49707 3.9978H12.8895L12.8955 3.99784L13.4935 3.9978L13.4964 3.99781C13.7712 3.9994 13.9935 4.22265 13.9935 4.4978V6.51376C13.9935 7.34218 14.665 8.01376 15.4935 8.01376H17.5029C17.7791 8.01376 18.0029 8.23761 18.0029 8.51376V18.5023C18.0029 19.3307 17.3314 20.0023 16.5029 20.0023H7.49707C6.66864 20.0023 5.99707 19.3307 5.99707 18.5023V17.4956C5.99707 17.2195 5.77321 16.9956 5.49707 16.9956C5.22093 16.9956 4.99707 17.2195 4.99707 17.4956V18.5023C4.99707 19.883 6.11636 21.0023 7.49707 21.0023H16.5029C17.8836 21.0023 19.0029 19.883 19.0029 18.5023V8.32437C19.0029 7.66363 18.7414 7.02976 18.2754 6.5613L15.4638 3.73474C14.9945 3.26299 14.3566 2.99777 13.6912 2.9978L13.4986 2.99781L13.4935 2.9978H7.49707C6.11636 2.9978 4.99707 4.11709 4.99707 5.4978V9.5007C4.99707 9.77685 5.22093 10.0007 5.49707 10.0007C5.77321 10.0007 5.99707 9.77685 5.99707 9.5007V5.4978C5.99707 4.66938 6.66864 3.9978 7.49707 3.9978ZM14.9935 6.51376V4.6799L17.315 7.01376H15.4935C15.2173 7.01376 14.9935 6.7899 14.9935 6.51376Z" fill="#008196"/>
<path d="M9.08018 11.5458C8.84153 11.5458 8.62001 11.5751 8.41632 11.6348C8.2152 11.6943 8.038 11.7803 7.88674 11.8936C7.73506 12.0054 7.61572 12.1413 7.53029 12.3013C7.44363 12.4617 7.40107 12.6394 7.40107 12.8323C7.40107 13.0296 7.44104 13.2074 7.52423 13.3629L7.52476 13.3638C7.60759 13.5146 7.71982 13.6466 7.8602 13.7598L7.86147 13.7608C8.00118 13.8697 8.16081 13.9646 8.33899 14.0456C8.51636 14.1253 8.70414 14.1971 8.90075 14.2607C9.07231 14.3147 9.20945 14.3659 9.31346 14.4142C9.41812 14.4628 9.49392 14.5099 9.54477 14.5542L9.54619 14.5554C9.59555 14.5968 9.62435 14.639 9.63886 14.6812L9.64024 14.6848C9.65852 14.732 9.66865 14.7879 9.66865 14.8538C9.66865 14.9315 9.64912 14.9985 9.61122 15.0576L9.61024 15.0592C9.57626 15.1144 9.52023 15.1622 9.43541 15.1988C9.35466 15.2343 9.24465 15.2548 9.10068 15.2548C8.98248 15.2548 8.87528 15.2428 8.77859 15.2195C8.68677 15.197 8.60971 15.1613 8.54563 15.1138C8.48594 15.0681 8.43854 15.0077 8.4039 14.9302C8.37014 14.8546 8.35107 14.7571 8.35107 14.6341C8.35107 14.5788 8.3063 14.5341 8.25107 14.5341H7.36924C7.31401 14.5341 7.26924 14.5788 7.26924 14.6341C7.26924 14.8883 7.32204 15.114 7.43165 15.3074C7.53875 15.4964 7.68247 15.6526 7.86118 15.7746C8.03856 15.8942 8.23591 15.9838 8.45089 16.0432C8.66432 16.1001 8.88099 16.1286 9.10068 16.1286C9.34244 16.1286 9.56358 16.1014 9.76324 16.0458C9.96272 15.9903 10.1373 15.9082 10.2853 15.7983C10.4342 15.6877 10.5493 15.5515 10.6288 15.3902C10.7088 15.2282 10.7476 15.0467 10.7476 14.8479C10.7476 14.6606 10.7153 14.4894 10.6484 14.3362C10.5819 14.1839 10.4835 14.0486 10.3548 13.9305C10.2274 13.8135 10.0707 13.7099 9.88642 13.6187C9.70468 13.5279 9.49529 13.4469 9.25888 13.3754C9.12278 13.3332 9.00413 13.2904 8.90257 13.2471C8.80175 13.2042 8.71941 13.1595 8.65427 13.1138C8.59044 13.0689 8.5463 13.0236 8.51785 12.979C8.49296 12.9372 8.47998 12.89 8.47998 12.8352C8.47998 12.7583 8.50004 12.6919 8.53936 12.6329L8.54 12.6319C8.57832 12.573 8.63785 12.5229 8.72512 12.4843L8.72657 12.4836C8.81115 12.4446 8.92271 12.4225 9.06553 12.4225C9.21291 12.4225 9.32711 12.4485 9.41207 12.4933C9.50134 12.5396 9.56378 12.601 9.60412 12.677L9.60532 12.6792C9.64836 12.7557 9.67158 12.8476 9.67158 12.9583C9.67158 13.0135 9.71635 13.0583 9.77158 13.0583H10.6446C10.6999 13.0583 10.7446 13.0135 10.7446 12.9583C10.7446 12.6863 10.6743 12.4413 10.5319 12.2265C10.392 12.0126 10.1958 11.8459 9.94693 11.7257C9.69646 11.6046 9.40661 11.5458 9.08018 11.5458Z" fill="#008196"/>
<path fill-rule="evenodd" clip-rule="evenodd" d="M3.38076 11.6044C3.32553 11.6044 3.28076 11.6491 3.28076 11.7044V15.97C3.28076 16.0252 3.32553 16.07 3.38076 16.07H4.25967C4.3149 16.07 4.35967 16.0252 4.35967 15.97V14.5495H5.04189C5.38641 14.5495 5.68746 14.4931 5.94187 14.3764C6.19776 14.2598 6.39719 14.0924 6.53564 13.873C6.67418 13.6534 6.7415 13.396 6.7415 13.1048C6.7415 12.817 6.67402 12.5576 6.53675 12.3296C6.39916 12.101 6.2007 11.9235 5.94516 11.7966C5.68987 11.667 5.38758 11.6044 5.04189 11.6044H3.38076ZM5.04189 13.6639H4.35967V12.4928H5.04189C5.19737 12.4928 5.3139 12.5236 5.39877 12.5771C5.48822 12.6334 5.55175 12.7063 5.59218 12.7969C5.63494 12.8927 5.65674 12.9969 5.65674 13.1106C5.65674 13.2223 5.63501 13.3193 5.5937 13.4035C5.55491 13.4827 5.49362 13.5459 5.40538 13.5935C5.31884 13.6382 5.19967 13.6639 5.04189 13.6639Z" fill="#008196"/>
<path fill-rule="evenodd" clip-rule="evenodd" d="M12.8388 16.126H12.6392V16.1285H11.8522V16.126H11.5301C11.4638 16.126 11.4102 16.0723 11.4102 16.006V11.7433L11.4119 11.7587V11.755L11.4102 11.7433C11.4102 11.6771 11.4638 11.6234 11.5301 11.6234H12.8475C13.1462 11.6234 13.4224 11.6746 13.6745 11.7787C13.9276 11.8804 14.1475 12.0273 14.3332 12.2191C14.5189 12.4112 14.6611 12.64 14.7601 12.904C14.8617 13.1673 14.9114 13.4582 14.9114 13.7751V13.9772C14.9114 14.2923 14.8616 14.5831 14.7602 14.8482C14.6611 15.1122 14.519 15.3411 14.3332 15.5332C14.1492 15.7234 13.9291 15.8701 13.6744 15.9737C13.4204 16.0757 13.141 16.126 12.8388 16.126ZM12.5283 12.5513V15.201H12.8388C13.0507 15.201 13.2207 15.1537 13.3553 15.0657C13.4902 14.9757 13.5949 14.8433 13.6671 14.6618C13.7417 14.4789 13.7816 14.2512 13.7816 13.9772V13.7693C13.7816 13.5589 13.759 13.378 13.7158 13.2251L13.7155 13.2239C13.674 13.0708 13.6132 12.9466 13.5353 12.8484C13.4576 12.7504 13.3631 12.6779 13.2508 12.6292L13.2494 12.6286C13.1366 12.5781 13.0035 12.5513 12.8475 12.5513H12.5283Z" fill="#008196"/>
</svg>
