<svg width="24" height="24" viewBox="0 0 24 24" fill="none" xmlns="http://www.w3.org/2000/svg">
<path fill-rule="evenodd" clip-rule="evenodd" d="M7.49707 2.9978C6.11636 2.9978 4.99707 4.11709 4.99707 5.4978V9.5007C4.99707 9.77685 5.22093 10.0007 5.49707 10.0007C5.77321 10.0007 5.99707 9.77685 5.99707 9.5007V5.4978C5.99707 4.66938 6.66864 3.9978 7.49707 3.9978H12.887L12.8955 3.99787L13.5003 3.99785C13.7733 4.00147 13.9935 4.22392 13.9935 4.4978V6.51376C13.9935 7.34218 14.665 8.01376 15.4935 8.01376H17.5029C17.7791 8.01376 18.0029 8.23761 18.0029 8.51376V18.5023C18.0029 19.3307 17.3314 20.0023 16.5029 20.0023H7.49707C6.66864 20.0023 5.99707 19.3307 5.99707 18.5023V17.4956C5.99707 17.2195 5.77321 16.9956 5.49707 16.9956C5.22093 16.9956 4.99707 17.2195 4.99707 17.4956V18.5023C4.99707 19.883 6.11636 21.0023 7.49707 21.0023H16.5029C17.8836 21.0023 19.0029 19.883 19.0029 18.5023V8.32441C19.0029 7.66366 18.7414 7.02979 18.2754 6.56134L15.4638 3.73477C14.9945 3.26303 14.3566 2.99781 13.6912 2.99784L13.5052 2.99785L13.4935 2.9978H7.49707ZM14.9935 4.67994V6.51376C14.9935 6.7899 15.2173 7.01376 15.4935 7.01376H17.3149L14.9935 4.67994Z" fill="#008196"/>
<path d="M5.06533 11.1067C4.78616 11.1067 4.52962 11.1546 4.29714 11.2522C4.06484 11.3497 3.86418 11.4921 3.69608 11.6789C3.52753 11.8661 3.39887 12.095 3.30919 12.362C3.22127 12.6299 3.17822 12.9327 3.17822 13.2692V13.5358C3.17822 13.8727 3.22341 14.1762 3.31556 14.4445C3.4074 14.7098 3.53942 14.9374 3.71195 15.1245C3.88612 15.3111 4.09431 15.4535 4.33413 15.5506C4.57385 15.6457 4.83754 15.6924 5.12393 15.6924C5.44104 15.6924 5.71606 15.6586 5.94692 15.5885C6.17173 15.5203 6.36088 15.4371 6.51001 15.3384C6.65238 15.2421 6.76361 15.149 6.8386 15.0586C6.85348 15.0407 6.86162 15.0181 6.86162 14.9948V13.3043C6.86162 13.2491 6.81685 13.2043 6.76162 13.2043H5.07998C5.02475 13.2043 4.97998 13.2491 4.97998 13.3043V13.9313C4.97998 13.9865 5.02475 14.0313 5.07998 14.0313H5.78271V14.6424C5.76095 14.6598 5.73269 14.6793 5.69695 14.7007C5.65143 14.7274 5.58578 14.7528 5.49762 14.7748C5.4167 14.7955 5.31046 14.8069 5.17666 14.8069C5.02239 14.8069 4.89188 14.7797 4.78258 14.7284C4.67339 14.6773 4.58086 14.6014 4.50446 14.4992C4.42943 14.3943 4.37073 14.2631 4.33029 14.1032C4.28975 13.941 4.26885 13.7522 4.26885 13.5358V13.2633C4.26885 13.0445 4.28886 12.8554 4.32758 12.695C4.36647 12.5339 4.42193 12.403 4.49185 12.2999C4.5615 12.1972 4.64556 12.1218 4.7427 12.0716C4.84188 12.0195 4.95643 11.9922 5.08877 11.9922C5.25616 11.9922 5.38327 12.0212 5.47523 12.0712C5.57247 12.1232 5.64518 12.194 5.69599 12.2841C5.74954 12.3791 5.78723 12.493 5.80724 12.6276C5.81452 12.6767 5.8566 12.7129 5.90615 12.7129H6.75869C6.78707 12.7129 6.81411 12.7009 6.83307 12.6798C6.85204 12.6587 6.86115 12.6305 6.85812 12.6023C6.82748 12.3163 6.7454 12.06 6.61027 11.8353C6.47476 11.6047 6.27824 11.426 6.02441 11.299C5.76777 11.1687 5.44626 11.1067 5.06533 11.1067Z" fill="#008196"/>
<path d="M8.0292 11.2682C8.0292 11.213 8.07397 11.1682 8.1292 11.1682H9.00518C9.0604 11.1682 9.10518 11.213 9.10518 11.2682V15.5338C9.10518 15.5891 9.0604 15.6338 9.00518 15.6338H8.1292C8.07397 15.6338 8.0292 15.5891 8.0292 15.5338V11.2682Z" fill="#008196"/>
<path d="M10.3284 11.2682C10.3284 11.213 10.3732 11.1682 10.4284 11.1682H13.2116C13.2668 11.1682 13.3116 11.213 13.3116 11.2682V11.9567C13.3116 12.0119 13.2668 12.0567 13.2116 12.0567H11.4073V12.9905H13.0065C13.0618 12.9905 13.1065 13.0352 13.1065 13.0905V13.776C13.1065 13.8313 13.0618 13.876 13.0065 13.876H11.4073V15.5338C11.4073 15.5891 11.3626 15.6338 11.3073 15.6338H10.4284C10.3732 15.6338 10.3284 15.5891 10.3284 15.5338V11.2682Z" fill="#008196"/>
</svg>
