<svg width="24" height="24" viewBox="0 0 24 24" fill="none" xmlns="http://www.w3.org/2000/svg">
<path fill-rule="evenodd" clip-rule="evenodd" d="M9.25579 10.5634C9.41249 10.4746 9.60479 10.4771 9.75919 10.5697L14.7564 13.569C14.9069 13.6593 14.999 13.822 14.999 13.9976C14.999 14.1732 14.9069 14.3359 14.7564 14.4262L9.75919 17.4255C9.60479 17.5182 9.41249 17.5206 9.25579 17.4319C9.09909 17.3431 9.00223 17.177 9.00223 16.9969V10.9984C9.00223 10.8183 9.09909 10.6521 9.25579 10.5634ZM10.0018 16.1139L13.5279 13.9976L10.0018 11.8813V16.1139Z" fill="#008196"/>
<path fill-rule="evenodd" clip-rule="evenodd" d="M19 18.5006C19 19.881 17.8812 21 16.501 21H7.49895C6.11882 21 5 19.881 5 18.5006V5.49938C5 4.11901 6.11882 3 7.49895 3H13.4929L13.4979 3.00001L13.6905 3C14.3556 2.99997 14.9933 3.26512 15.4623 3.73675L18.2728 6.56261C18.7385 7.03095 19 7.66466 19 8.32524V18.5006ZM12.8892 3.99975H7.49895C6.67087 3.99975 5.99958 4.67116 5.99958 5.49938V18.5006C5.99958 19.3288 6.67087 20.0002 7.49895 20.0002H16.501C17.3291 20.0002 18.0004 19.3288 18.0004 18.5006V8.51458C18.0004 8.2385 17.7767 8.0147 17.5006 8.0147H15.492C14.6639 8.0147 13.9926 7.3433 13.9926 6.51508V4.49963C13.9926 4.22454 13.7705 4.00135 13.4958 3.99976L13.4929 3.99975L12.8952 3.99979C12.8932 3.99979 12.8892 3.99975 12.8892 3.99975ZM14.9922 4.68168V6.51508C14.9922 6.79115 15.216 7.01495 15.492 7.01495H17.3127L14.9922 4.68168Z" fill="#008196"/>
</svg>
