<svg width="24" height="24" viewBox="0 0 24 24" fill="none" xmlns="http://www.w3.org/2000/svg">
<path fill-rule="evenodd" clip-rule="evenodd" d="M9.5 10.002C8.39543 10.002 7.5 10.8975 7.5 12.002V16.002C7.5 17.1066 8.39543 18.002 9.5 18.002H9.94556C9.96344 18.004 9.9816 18.005 10 18.005C10.0184 18.005 10.0366 18.004 10.0544 18.002H14.5C15.6046 18.002 16.5 17.1066 16.5 16.002V12.002C16.5 10.8975 15.6046 10.002 14.5 10.002H9.5ZM10.5 17.002H14.5C15.0523 17.002 15.5 16.5543 15.5 16.002V16.0008L10.5 16.0008V17.002ZM10.5 15.0008L15.5 15.0008V14.0008L10.5 14.0008L10.5 15.0008ZM9.5 14.0008L9.5 15.0008H8.5V14.0008H9.5ZM10.5 13.0008L15.5 13.0008V12.002C15.5 11.4497 15.0523 11.002 14.5 11.002H10.5V13.0008ZM9.5 11.002V13.0008H8.5V12.002C8.5 11.4497 8.94772 11.002 9.5 11.002ZM9.5 16.0008L9.5 17.002C8.94772 17.002 8.5 16.5543 8.5 16.002V16.0008H9.5Z" fill="#008196"/>
<path fill-rule="evenodd" clip-rule="evenodd" d="M19.0029 18.5022C19.0029 19.883 17.8836 21.0022 16.5029 21.0022H7.49707C6.11636 21.0022 4.99707 19.883 4.99707 18.5022V5.49776C4.99707 4.11704 6.11636 2.99776 7.49707 2.99776H13.4935L13.4986 2.99777L13.6912 2.99776C14.3566 2.99773 14.9945 3.26295 15.4638 3.73469L18.2754 6.56126C18.7414 7.02971 19.0029 7.66358 19.0029 8.32432V18.5022ZM12.8895 3.99776H7.49707C6.66864 3.99776 5.99707 4.66933 5.99707 5.49776V18.5022C5.99707 19.3307 6.66864 20.0022 7.49707 20.0022H16.5029C17.3314 20.0022 18.0029 19.3307 18.0029 18.5022V8.51371C18.0029 8.23757 17.7791 8.01371 17.5029 8.01371H15.4935C14.665 8.01371 13.9935 7.34214 13.9935 6.51371V4.49776C13.9935 4.2226 13.7712 3.99936 13.4964 3.99777L13.4935 3.99776L12.8955 3.99779C12.8935 3.99779 12.8895 3.99776 12.8895 3.99776ZM14.9935 4.67986V6.51371C14.9935 6.78985 15.2173 7.01371 15.4935 7.01371H17.315L14.9935 4.67986Z" fill="#008196"/>
</svg>
