<svg width="24" height="24" viewBox="0 0 24 24" fill="none" xmlns="http://www.w3.org/2000/svg">
<path d="M13.3082 11.0761C13.3803 10.8095 13.2227 10.535 12.9561 10.4629C12.6896 10.3908 12.415 10.5484 12.3429 10.815L10.6914 16.9201C10.6193 17.1866 10.7769 17.4612 11.0434 17.5333C11.31 17.6054 11.5846 17.4478 11.6567 17.1812L13.3082 11.0761Z" fill="#008196"/>
<path d="M9.86332 11.1414C10.0586 11.3367 10.0586 11.6532 9.86332 11.8485L8.21687 13.4949L9.86332 15.1414C10.0586 15.3367 10.0586 15.6532 9.86332 15.8485C9.66806 16.0438 9.35147 16.0438 9.15621 15.8485L7.15621 13.8485C7.06244 13.7547 7.00977 13.6276 7.00977 13.4949C7.00977 13.3623 7.06244 13.2352 7.15621 13.1414L9.15621 11.1414C9.35147 10.9461 9.66806 10.9461 9.86332 11.1414Z" fill="#008196"/>
<path d="M14.1367 16.8548C13.9414 16.6596 13.9414 16.343 14.1367 16.1477L15.7831 14.5013L14.1367 12.8548C13.9414 12.6596 13.9414 12.343 14.1367 12.1477C14.3319 11.9525 14.6485 11.9525 14.8438 12.1477L16.8438 14.1477C16.9376 14.2415 16.9902 14.3687 16.9902 14.5013C16.9902 14.6339 16.9376 14.7611 16.8438 14.8548L14.8438 16.8548C14.6485 17.0501 14.3319 17.0501 14.1367 16.8548Z" fill="#008196"/>
<path fill-rule="evenodd" clip-rule="evenodd" d="M19.0029 18.5022C19.0029 19.883 17.8836 21.0022 16.5029 21.0022H7.49707C6.11636 21.0022 4.99707 19.883 4.99707 18.5022V5.49775C4.99707 4.11704 6.11636 2.99775 7.49707 2.99775H13.4935L13.4986 2.99776L13.6912 2.99775C14.3566 2.99772 14.9945 3.26294 15.4638 3.73469L18.2754 6.56125C18.7414 7.02971 19.0029 7.66358 19.0029 8.32432V18.5022ZM12.8895 3.99775H7.49707C6.66864 3.99775 5.99707 4.66933 5.99707 5.49775V18.5022C5.99707 19.3307 6.66864 20.0022 7.49707 20.0022H16.5029C17.3314 20.0022 18.0029 19.3307 18.0029 18.5022V8.51371C18.0029 8.23756 17.7791 8.01371 17.5029 8.01371H15.4935C14.665 8.01371 13.9935 7.34213 13.9935 6.51371V4.49775C13.9935 4.2226 13.7712 3.99935 13.4964 3.99776L13.4935 3.99775L12.8955 3.99779C12.8935 3.99779 12.8895 3.99775 12.8895 3.99775ZM14.9935 4.67985V6.51371C14.9935 6.78985 15.2173 7.01371 15.4935 7.01371H17.315L14.9935 4.67985Z" fill="#008196"/>
</svg>
