<svg width="24" height="24" viewBox="0 0 24 24" fill="none" xmlns="http://www.w3.org/2000/svg">
<path fill-rule="evenodd" clip-rule="evenodd" d="M10.3 13.9981C10.3 13.0592 11.0611 12.2981 12 12.2981C12.9389 12.2981 13.7 13.0592 13.7 13.9981C13.7 14.937 12.9389 15.6981 12 15.6981C11.0611 15.6981 10.3 14.937 10.3 13.9981ZM12 13.2981C11.6134 13.2981 11.3 13.6115 11.3 13.9981C11.3 14.3847 11.6134 14.6981 12 14.6981C12.3866 14.6981 12.7 14.3847 12.7 13.9981C12.7 13.6115 12.3866 13.2981 12 13.2981Z" fill="#008196"/>
<path fill-rule="evenodd" clip-rule="evenodd" d="M10.7 10.7981C10.7 10.0802 11.282 9.49812 12 9.49812C12.718 9.49812 13.3 10.0802 13.3 10.7981C13.3 10.8058 13.3011 10.8094 13.3013 10.8102L13.3017 10.8112L13.3023 10.8122C13.3035 10.8138 13.3075 10.8183 13.3157 10.8217C13.3239 10.8251 13.33 10.8248 13.3319 10.8245C13.3326 10.8243 13.3331 10.8242 13.334 10.8237C13.3348 10.8233 13.3381 10.8216 13.3435 10.8161C13.8512 10.3085 14.6743 10.3085 15.182 10.8161C15.6897 11.3238 15.6897 12.1469 15.182 12.6546C15.1766 12.66 15.1748 12.6634 15.1744 12.6641C15.1741 12.6647 15.1739 12.6651 15.1738 12.6655C15.1737 12.6658 15.1739 12.6653 15.1738 12.6655C15.1735 12.6675 15.1731 12.6742 15.1765 12.6824C15.1799 12.6906 15.1843 12.6947 15.1859 12.6958C15.1862 12.696 15.1865 12.6962 15.1868 12.6963C15.1871 12.6965 15.1875 12.6966 15.1879 12.6968C15.1887 12.697 15.1923 12.6981 15.2 12.6981C15.918 12.6981 16.5 13.2802 16.5 13.9981C16.5 14.7161 15.918 15.2981 15.2 15.2981C15.1923 15.2981 15.1887 15.2992 15.1879 15.2995C15.187 15.2998 15.1865 15.3 15.1859 15.3004C15.1843 15.3016 15.1799 15.3056 15.1765 15.3139C15.1731 15.3221 15.1733 15.3281 15.1737 15.33C15.1738 15.3307 15.1739 15.3313 15.1744 15.3321C15.1748 15.3329 15.1766 15.3362 15.182 15.3416C15.6897 15.8493 15.6897 16.6724 15.182 17.1801C14.6743 17.6878 13.8512 17.6878 13.3435 17.1801C13.3381 17.1747 13.3348 17.1729 13.334 17.1725C13.3331 17.1721 13.3326 17.1719 13.3319 17.1718C13.33 17.1714 13.3239 17.1712 13.3157 17.1746C13.3075 17.178 13.3035 17.1824 13.3023 17.184C13.302 17.1845 13.3017 17.1849 13.3015 17.1856C13.3014 17.1857 13.3016 17.1854 13.3015 17.1856C13.3012 17.1864 13.3 17.1905 13.3 17.1981C13.3 17.9161 12.718 18.4981 12 18.4981C11.282 18.4981 10.7 17.9161 10.7 17.1981C10.7 17.1905 10.6989 17.1869 10.6987 17.1861L10.6983 17.1851L10.6977 17.184C10.6965 17.1824 10.6925 17.178 10.6843 17.1746C10.6761 17.1712 10.67 17.1714 10.6681 17.1718C10.6674 17.1719 10.6669 17.1721 10.666 17.1725C10.6652 17.1729 10.6619 17.1747 10.6565 17.1801C10.1488 17.6878 9.3257 17.6878 8.81802 17.1801C8.31034 16.6724 8.31034 15.8493 8.81802 15.3416C8.82344 15.3362 8.82522 15.3329 8.82561 15.3321L8.82607 15.3311L8.82634 15.33C8.82668 15.3281 8.82694 15.3221 8.82355 15.3139C8.82015 15.3056 8.8157 15.3016 8.8141 15.3004C8.81351 15.3 8.81301 15.2998 8.81207 15.2995C8.81126 15.2992 8.80767 15.2981 8.8 15.2981C8.08203 15.2981 7.5 14.7161 7.5 13.9981C7.5 13.2802 8.08203 12.6981 8.8 12.6981C8.80767 12.6981 8.81126 12.697 8.81207 12.6968C8.81301 12.6965 8.81351 12.6962 8.8141 12.6958C8.8157 12.6947 8.82015 12.6906 8.82355 12.6824C8.82695 12.6742 8.82668 12.6682 8.82635 12.6662L8.82607 12.6651L8.82561 12.6641C8.82522 12.6633 8.82345 12.66 8.81802 12.6546C8.31034 12.1469 8.31034 11.3238 8.81802 10.8161C9.32571 10.3085 10.1488 10.3085 10.6565 10.8161C10.6619 10.8216 10.6652 10.8233 10.666 10.8237L10.6673 10.8243C10.6692 10.8246 10.6761 10.8251 10.6843 10.8217C10.6925 10.8183 10.6965 10.8138 10.6977 10.8122C10.6981 10.8116 10.6984 10.8111 10.6987 10.8102C10.6989 10.8094 10.7 10.8058 10.7 10.7981ZM12 10.4981C11.8343 10.4981 11.7 10.6324 11.7 10.7981C11.7 11.7117 10.5954 12.1693 9.94939 11.5232C9.83224 11.4061 9.64229 11.4061 9.52513 11.5232C9.40797 11.6404 9.40797 11.8304 9.52513 11.9475C10.1712 12.5935 9.7136 13.6981 8.8 13.6981C8.63431 13.6981 8.5 13.8324 8.5 13.9981C8.5 14.1638 8.63431 14.2981 8.8 14.2981C9.7136 14.2981 10.1712 15.4027 9.52513 16.0487C9.40797 16.1659 9.40797 16.3558 9.52513 16.473C9.64229 16.5902 9.83224 16.5902 9.94939 16.473C10.5954 15.827 11.7 16.2845 11.7 17.1981C11.7 17.3638 11.8343 17.4981 12 17.4981C12.1657 17.4981 12.3 17.3638 12.3 17.1981C12.3 16.2845 13.4046 15.827 14.0506 16.473C14.1678 16.5902 14.3577 16.5902 14.4749 16.473C14.592 16.3558 14.592 16.1659 14.4749 16.0487C13.8289 15.4027 14.2864 14.2981 15.2 14.2981C15.3657 14.2981 15.5 14.1638 15.5 13.9981C15.5 13.8324 15.3657 13.6981 15.2 13.6981C14.2864 13.6981 13.8289 12.5935 14.4749 11.9475C14.592 11.8304 14.592 11.6404 14.4749 11.5232C14.3577 11.4061 14.1678 11.4061 14.0506 11.5232C13.4046 12.1693 12.3 11.7117 12.3 10.7981C12.3 10.6324 12.1657 10.4981 12 10.4981Z" fill="#008196"/>
<path fill-rule="evenodd" clip-rule="evenodd" d="M19.0029 18.5022C19.0029 19.883 17.8836 21.0022 16.5029 21.0022H7.49707C6.11636 21.0022 4.99707 19.883 4.99707 18.5022V5.49776C4.99707 4.11704 6.11636 2.99776 7.49707 2.99776H13.4935C13.4952 2.99776 13.4969 2.99776 13.4986 2.99777L13.6912 2.99776C14.3566 2.99773 14.9945 3.26295 15.4638 3.73469L18.2754 6.56126C18.7414 7.02971 19.0029 7.66358 19.0029 8.32432V18.5022ZM12.8895 3.99776H7.49707C6.66864 3.99776 5.99707 4.66933 5.99707 5.49776V18.5022C5.99707 19.3307 6.66864 20.0022 7.49707 20.0022H16.5029C17.3314 20.0022 18.0029 19.3307 18.0029 18.5022V8.51371C18.0029 8.23757 17.7791 8.01371 17.5029 8.01371H15.4935C14.665 8.01371 13.9935 7.34214 13.9935 6.51371V4.49776C13.9935 4.2226 13.7712 3.99936 13.4964 3.99777C13.4954 3.99776 13.4945 3.99776 13.4935 3.99776L12.8955 3.99779C12.8935 3.99779 12.8915 3.99778 12.8895 3.99776ZM14.9935 4.67986V6.51371C14.9935 6.78985 15.2173 7.01371 15.4935 7.01371H17.315L14.9935 4.67986Z" fill="#008196"/>
</svg>
