<svg width="24" height="24" viewBox="0 0 24 24" fill="none" xmlns="http://www.w3.org/2000/svg">
<path fill-rule="evenodd" clip-rule="evenodd" d="M7.49707 3.9978H12.8895L12.8955 3.99784L13.4935 3.9978L13.4964 3.99781C13.7712 3.9994 13.9935 4.22265 13.9935 4.4978V6.51376C13.9935 7.34218 14.665 8.01376 15.4935 8.01376H17.5029C17.7791 8.01376 18.0029 8.23761 18.0029 8.51376V18.5023C18.0029 19.3307 17.3314 20.0023 16.5029 20.0023H7.49707C6.66864 20.0023 5.99707 19.3307 5.99707 18.5023V17.4956C5.99707 17.2195 5.77321 16.9956 5.49707 16.9956C5.22093 16.9956 4.99707 17.2195 4.99707 17.4956V18.5023C4.99707 19.883 6.11636 21.0023 7.49707 21.0023H16.5029C17.8836 21.0023 19.0029 19.883 19.0029 18.5023V8.32437C19.0029 7.66363 18.7414 7.02976 18.2754 6.5613L15.4638 3.73474C14.9945 3.26299 14.3566 2.99777 13.6912 2.9978L13.4986 2.99781L13.4935 2.9978H7.49707C6.11636 2.9978 4.99707 4.11709 4.99707 5.4978V9.5007C4.99707 9.77685 5.22093 10.0007 5.49707 10.0007C5.77321 10.0007 5.99707 9.77685 5.99707 9.5007V5.4978C5.99707 4.66938 6.66864 3.9978 7.49707 3.9978ZM14.9935 6.51376V4.6799L17.315 7.01376H15.4935C15.2173 7.01376 14.9935 6.7899 14.9935 6.51376Z" fill="#008196"/>
<path fill-rule="evenodd" clip-rule="evenodd" d="M13.2964 15.0796C13.2098 15.033 13.1368 14.9659 13.0772 14.876L13.0508 14.8257L13.0474 14.8255C12.9954 14.7282 12.9545 14.61 12.9263 14.4692C12.8947 14.3091 12.8784 14.1215 12.8784 13.9055V13.6038C12.8784 13.3822 12.8956 13.1923 12.929 13.0329C12.9642 12.8719 13.0158 12.7438 13.0814 12.6456C13.1468 12.5473 13.2259 12.4767 13.3183 12.4305C13.4113 12.384 13.5233 12.3591 13.6573 12.3591C13.8434 12.3591 13.9815 12.3891 14.079 12.4411L14.0808 12.442C14.1803 12.4925 14.2538 12.5678 14.3029 12.6694C14.3542 12.7735 14.3862 12.9052 14.3954 13.0675C14.3984 13.1204 14.4422 13.1618 14.4952 13.1618H15.3741C15.4023 13.1618 15.4291 13.1499 15.4481 13.1291C15.467 13.1083 15.4763 13.0804 15.4737 13.0524C15.4451 12.75 15.3589 12.4775 15.2138 12.237C15.0691 11.9938 14.8648 11.8037 14.6034 11.6667C14.3414 11.5283 14.0245 11.4618 13.6573 11.4618C13.3776 11.4618 13.1214 11.5119 12.8904 11.6139C12.6603 11.7154 12.4615 11.8613 12.2957 12.0499C12.1316 12.2389 12.0063 12.4672 11.9187 12.732C11.8329 12.9956 11.7907 13.2885 11.7907 13.6096V13.9055C11.7907 14.2265 11.8318 14.5192 11.9155 14.7825C11.9992 15.0456 12.1218 15.2732 12.284 15.4623C12.448 15.6512 12.6462 15.7971 12.8764 15.8987C13.1076 15.9987 13.3665 16.0475 13.6515 16.0475C14.0127 16.0475 14.3277 15.983 14.5928 15.8494C14.858 15.7168 15.0667 15.5309 15.2157 15.2917C15.366 15.0536 15.4496 14.7822 15.4681 14.48C15.4698 14.4525 15.46 14.4255 15.4411 14.4054C15.4222 14.3853 15.3958 14.3739 15.3683 14.3739H14.4923C14.4397 14.3739 14.3961 14.4146 14.3925 14.4671C14.3815 14.6285 14.3461 14.7567 14.2908 14.8558L14.2901 14.8569C14.2376 14.9537 14.1622 15.026 14.0614 15.0756C13.9602 15.1253 13.8253 15.1532 13.6515 15.1532C13.5076 15.1532 13.3904 15.1272 13.2964 15.0796ZM13.2964 15.0796L13.2973 15.0801L13.2964 15.0819L13.2945 15.081L13.2954 15.0791L13.2964 15.0796Z" fill="#008196"/>
<path fill-rule="evenodd" clip-rule="evenodd" d="M9.26748 11.4647C8.98774 11.4647 8.72901 11.5148 8.49264 11.6164C8.25848 11.7179 8.05454 11.8658 7.8829 12.0582C7.71301 12.2508 7.5828 12.4825 7.49119 12.7512C7.39911 13.0194 7.354 13.3216 7.354 13.6565V13.8587C7.354 14.1918 7.39938 14.4947 7.49141 14.7646C7.58506 15.0333 7.71765 15.2653 7.88952 15.4579C8.06115 15.6481 8.26459 15.7944 8.4985 15.8959C8.73487 15.9975 8.9936 16.0475 9.27334 16.0475C9.55479 16.0475 9.81357 15.9975 10.0482 15.8959C10.2842 15.7944 10.488 15.6477 10.6579 15.457C10.8278 15.2643 10.958 15.0327 11.0496 14.764C11.1417 14.494 11.1868 14.1918 11.1868 13.8587V13.6565C11.1868 13.3215 11.1407 13.0191 11.0466 12.7508C10.9549 12.4821 10.8237 12.2505 10.6519 12.0579C10.482 11.8653 10.2786 11.718 10.0425 11.6165C9.80782 11.5147 9.54899 11.4647 9.26748 11.4647ZM8.91849 12.4443C9.01747 12.3923 9.13295 12.3649 9.26748 12.3649C9.40201 12.3649 9.51748 12.3923 9.61647 12.4443L9.61766 12.4449C9.7165 12.4951 9.80184 12.5711 9.87339 12.6758C9.94513 12.7808 10.0015 12.9134 10.0403 13.0762C10.0791 13.2387 10.0991 13.4298 10.0991 13.6507V13.8587C10.0991 14.0774 10.0791 14.2686 10.0403 14.4332C10.0014 14.5962 9.94582 14.7303 9.87548 14.8377C9.80589 14.942 9.72147 15.0188 9.62233 15.0709C9.52335 15.1229 9.40787 15.1503 9.27334 15.1503C9.13881 15.1503 9.02333 15.1229 8.92434 15.0709C8.82494 15.0187 8.73931 14.9415 8.66763 14.8367C8.59569 14.7296 8.53934 14.5959 8.50052 14.4333C8.46169 14.2686 8.4417 14.0774 8.4417 13.8587V13.6507C8.4417 13.4298 8.46172 13.2387 8.50049 13.0762C8.53938 12.9133 8.59484 12.7805 8.66483 12.6753C8.73657 12.5705 8.82166 12.4943 8.91849 12.4443Z" fill="#008196"/>
<path fill-rule="evenodd" clip-rule="evenodd" d="M4.50887 16.0415H4.70827C5.0103 16.0415 5.28946 15.9913 5.54327 15.8893C5.79783 15.7858 6.01776 15.6392 6.20155 15.4491C6.38721 15.2572 6.52927 15.0285 6.62825 14.7647C6.7296 14.4998 6.77939 14.2092 6.77939 13.8943V13.6925C6.77939 13.3758 6.72966 13.0851 6.6282 12.8219C6.52923 12.5582 6.38719 12.3295 6.20155 12.1376C6.01608 11.9459 5.79627 11.7992 5.54337 11.6975C5.29144 11.5935 5.01548 11.5424 4.71705 11.5424H3.40059C3.33441 11.5424 3.28076 11.596 3.28076 11.6622V15.9217C3.28076 15.9878 3.33441 16.0415 3.40059 16.0415H3.72251V16.0441H4.50887V16.0415ZM3.28076 11.6622L3.28252 11.6739V11.6776L3.28076 11.6622ZM4.39806 15.1173V12.4695H4.71705C4.87293 12.4695 5.00592 12.4964 5.1186 12.5468L5.11997 12.5474C5.23226 12.596 5.32664 12.6685 5.40426 12.7664C5.48213 12.8646 5.54294 12.9886 5.58433 13.1416L5.58469 13.1429C5.62783 13.2956 5.65039 13.4764 5.65039 13.6866V13.8943C5.65039 14.1682 5.61055 14.3956 5.53602 14.5784C5.46383 14.7598 5.35922 14.8921 5.22441 14.9821C5.0899 15.0699 4.92003 15.1173 4.70827 15.1173H4.39806Z" fill="#008196"/>
</svg>
