<svg width="24" height="24" viewBox="0 0 24 24" fill="none" xmlns="http://www.w3.org/2000/svg">
<path d="M11.4287 11.012C10.3349 11.012 8.0272 11.6975 7.50892 14.4185C7.45725 14.6897 7.63527 14.9515 7.90654 15.0032C8.1778 15.0549 8.43959 14.8769 8.49126 14.6056C8.77432 13.1195 9.73916 12.4328 10.5627 12.162C10.6483 13.4904 10.5169 15.6789 9.57133 17.2548C9.42926 17.4916 9.50604 17.7987 9.74283 17.9408C9.97962 18.0829 10.2867 18.0061 10.4288 17.7693C11.5515 15.8982 11.6557 13.4038 11.5547 12.012H13.5V15.512C13.5 16.5191 13.9739 17.4281 14.7223 17.9278C14.952 18.0812 15.2624 18.0194 15.4158 17.7897C15.5692 17.5601 15.5073 17.2496 15.2777 17.0962C14.8305 16.7976 14.5 16.2142 14.5 15.512V12.012H16.0001C16.2762 12.012 16.5001 11.7882 16.5001 11.512C16.5001 11.2359 16.2762 11.012 16.0001 11.012L11.4287 11.012Z" fill="#008196"/>
<path fill-rule="evenodd" clip-rule="evenodd" d="M19.0029 18.5022C19.0029 19.883 17.8836 21.0022 16.5029 21.0022H7.49707C6.11636 21.0022 4.99707 19.883 4.99707 18.5022V5.49776C4.99707 4.11704 6.11636 2.99776 7.49707 2.99776H13.4935L13.4986 2.99777L13.6912 2.99776C14.3566 2.99773 14.9945 3.26295 15.4638 3.73469L18.2754 6.56126C18.7414 7.02971 19.0029 7.66358 19.0029 8.32432V18.5022ZM12.8895 3.99776H7.49707C6.66864 3.99776 5.99707 4.66933 5.99707 5.49776V18.5022C5.99707 19.3307 6.66864 20.0022 7.49707 20.0022H16.5029C17.3314 20.0022 18.0029 19.3307 18.0029 18.5022V8.51371C18.0029 8.23757 17.7791 8.01371 17.5029 8.01371H15.4935C14.665 8.01371 13.9935 7.34214 13.9935 6.51371V4.49776C13.9935 4.2226 13.7712 3.99936 13.4964 3.99777L13.4935 3.99776L12.8955 3.99779C12.8935 3.99779 12.8895 3.99776 12.8895 3.99776ZM14.9935 4.67986V6.51371C14.9935 6.78985 15.2173 7.01371 15.4935 7.01371H17.315L14.9935 4.67986Z" fill="#008196"/>
</svg>
