<svg width="24" height="24" viewBox="0 0 24 24" fill="none" xmlns="http://www.w3.org/2000/svg">
<path d="M10.5006 11.3341C9.98218 11.3341 9.50062 11.7977 9.50062 12.448V12.8158C9.50062 13.4055 9.27017 13.9492 8.88913 14.3378C9.27017 14.7265 9.50062 15.2701 9.50062 15.8599V16.2277C9.50062 16.878 9.98218 17.3416 10.5006 17.3416C10.7768 17.3416 11.0006 17.5655 11.0006 17.8416C11.0006 18.1178 10.7768 18.3416 10.5006 18.3416C9.36222 18.3416 8.50062 17.3601 8.50062 16.2277L8.50062 15.8599C8.50062 15.3539 8.20168 14.9502 7.82469 14.8059L7.81462 14.802C7.74987 14.776 7.69345 14.738 7.64698 14.6915C7.60046 14.645 7.56243 14.5886 7.53651 14.5238C7.5296 14.5066 7.52365 14.489 7.51868 14.4711C7.50638 14.4269 7.50048 14.3821 7.50049 14.3378C7.5005 14.2731 7.51316 14.2096 7.53696 14.1507C7.56287 14.0864 7.60073 14.0304 7.64698 13.9842C7.69345 13.9377 7.74987 13.8997 7.81462 13.8737L7.82473 13.8698C8.2017 13.7255 8.50062 13.3218 8.50062 12.8158V12.4483C8.50062 11.3159 9.36222 10.3341 10.5006 10.3341C10.7768 10.3341 11.0006 10.5579 11.0006 10.8341C11.0006 11.1102 10.7768 11.3341 10.5006 11.3341Z" fill="#008196"/>
<path d="M14.5133 12.448C14.5133 11.7977 14.0318 11.3341 13.5133 11.3341C13.2372 11.3341 13.0133 11.1102 13.0133 10.8341C13.0133 10.5579 13.2372 10.3341 13.5133 10.3341C14.6517 10.3341 15.5133 11.3156 15.5133 12.448V12.8158C15.5133 13.3218 15.8122 13.7255 16.1892 13.8698L16.1993 13.8737C16.2641 13.8997 16.3205 13.9377 16.367 13.9842C16.4135 14.0307 16.4515 14.0871 16.4774 14.1518C16.4843 14.1691 16.4903 14.1867 16.4953 14.2046C16.5188 14.2896 16.5202 14.3814 16.4953 14.4711C16.4903 14.489 16.4843 14.5066 16.4774 14.5238C16.4515 14.5886 16.4135 14.645 16.367 14.6915C16.3205 14.738 16.2641 14.776 16.1993 14.802L16.1892 14.8059C15.8122 14.9502 15.5133 15.3539 15.5133 15.8599V16.2277C15.5133 17.3601 14.6517 18.3416 13.5133 18.3416C13.2372 18.3416 13.0133 18.1178 13.0133 17.8416C13.0133 17.5655 13.2372 17.3416 13.5133 17.3416C14.0318 17.3416 14.5133 16.878 14.5133 16.2277V15.8599C14.5133 15.2701 14.7438 14.7265 15.1248 14.3378C14.7438 13.9492 14.5133 13.4055 14.5133 12.8158V12.448Z" fill="#008196"/>
<path fill-rule="evenodd" clip-rule="evenodd" d="M16.5029 21.0022C17.8836 21.0022 19.0029 19.883 19.0029 18.5022V8.32432C19.0029 7.66358 18.7414 7.02971 18.2754 6.56126L15.4638 3.73469C14.9945 3.26295 14.3566 2.99773 13.6912 2.99776L13.4986 2.99777L13.4935 2.99776H7.49707C6.11636 2.99776 4.99707 4.11704 4.99707 5.49776V18.5022C4.99707 19.883 6.11636 21.0022 7.49707 21.0022H16.5029ZM7.49707 3.99776H12.8895L12.8955 3.99779L13.4935 3.99776L13.4964 3.99777C13.7712 3.99936 13.9935 4.2226 13.9935 4.49776V6.51371C13.9935 7.34214 14.665 8.01371 15.4935 8.01371H17.5029C17.7791 8.01371 18.0029 8.23757 18.0029 8.51371V18.5022C18.0029 19.3307 17.3314 20.0022 16.5029 20.0022H7.49707C6.66864 20.0022 5.99707 19.3307 5.99707 18.5022V5.49776C5.99707 4.66933 6.66864 3.99776 7.49707 3.99776ZM14.9935 6.51371V4.67986L17.315 7.01371H15.4935C15.2173 7.01371 14.9935 6.78985 14.9935 6.51371Z" fill="#008196"/>
</svg>
