<svg width="24" height="24" viewBox="0 0 24 24" fill="none" xmlns="http://www.w3.org/2000/svg">
<path fill-rule="evenodd" clip-rule="evenodd" d="M12.8871 3.99919H7.49832C6.67045 3.99919 5.99933 4.67022 5.99933 5.49798V18.492C5.99933 19.3197 6.67045 19.9907 7.49831 19.9907H10.4963C10.7723 19.9907 10.996 20.2144 10.996 20.4903C10.996 20.7663 10.7723 20.9899 10.4963 20.9899H7.49831C6.11853 20.9899 5 19.8716 5 18.492V5.49798C5 4.11838 6.11853 3 7.49832 3H13.4907L13.4958 3.00001L13.6883 3C14.3532 2.99997 14.9907 3.26498 15.4597 3.73634L18.2694 6.56062C18.735 7.02869 18.9964 7.66205 18.9964 8.32226V11.4948C18.9964 11.7707 18.7727 11.9944 18.4968 11.9944C18.2208 11.9944 17.9971 11.7707 17.9971 11.4948V8.51149C17.9971 8.23557 17.7734 8.0119 17.4974 8.0119H15.4893C14.6615 8.0119 13.9903 7.34087 13.9903 6.51311V4.49879C13.9903 4.22386 13.7682 4.00079 13.4936 3.9992L13.4907 3.99919L12.8931 3.99923C12.8911 3.99923 12.8871 3.99919 12.8871 3.99919ZM14.9897 4.68074V6.51311C14.9897 6.78903 15.2134 7.01271 15.4893 7.01271H17.3096L14.9897 4.68074Z" fill="#008196"/>
<path d="M8.50545 10.993C8.22949 10.993 8.00579 11.2167 8.00579 11.4926C8.00579 11.7686 8.22949 11.9922 8.50545 11.9922L15.5129 11.9922C15.7889 11.9922 16.0126 11.7686 16.0126 11.4926C16.0126 11.2167 15.7889 10.993 15.5129 10.993L8.50545 10.993Z" fill="#008196"/>
<path fill-rule="evenodd" clip-rule="evenodd" d="M20.4314 13.5584C19.6745 12.8016 18.4476 12.8003 17.6891 13.5556L13.2658 17.9598C13.2124 18.013 13.1716 18.0777 13.1467 18.1489L12.0324 21.3355C11.9687 21.5176 12.0155 21.7201 12.1527 21.8557C12.29 21.9913 12.493 22.0358 12.6744 21.9701L15.8524 20.8177C15.9213 20.7928 15.9838 20.753 16.0355 20.7012L20.4319 16.3029C21.1895 15.5448 21.1894 14.3162 20.4314 13.5584ZM18.3943 14.2636C18.7623 13.8971 19.3576 13.8978 19.7248 14.265C20.0926 14.6327 20.0926 15.2288 19.725 15.5965L15.4073 19.9163L13.323 20.672L14.0522 18.5869L18.3943 14.2636Z" fill="#008196"/>
<path d="M8.00579 14.5058C8.00579 14.2299 8.22949 14.0062 8.50545 14.0062L13.5016 14.0062C13.7775 14.0062 14.0013 14.2299 14.0013 14.5058C14.0013 14.7817 13.7775 15.0054 13.5016 15.0054L8.50545 15.0054C8.22949 15.0054 8.00579 14.7817 8.00579 14.5058Z" fill="#008196"/>
<path d="M8.50545 17.0038C8.22949 17.0038 8.00579 17.2275 8.00579 17.5034C8.00579 17.7793 8.22949 18.003 8.50545 18.003H11.4905C11.7665 18.003 11.9902 17.7793 11.9902 17.5034C11.9902 17.2275 11.7665 17.0038 11.4905 17.0038H8.50545Z" fill="#008196"/>
</svg>
