<svg width="24" height="24" viewBox="0 0 24 24" fill="none" xmlns="http://www.w3.org/2000/svg">
<path fill-rule="evenodd" clip-rule="evenodd" d="M4.99707 5.4978C4.99707 4.11709 6.11636 2.9978 7.49707 2.9978H13.4935L13.5052 2.99785L13.6912 2.99784C14.3566 2.99781 14.9945 3.26303 15.4638 3.73477L18.2754 6.56134C18.7414 7.02979 19.0029 7.66366 19.0029 8.32441V18.5023C19.0029 19.883 17.8836 21.0023 16.5029 21.0023H7.49707C6.11636 21.0023 4.99707 19.883 4.99707 18.5023V17.4956C4.99707 17.2195 5.22093 16.9956 5.49707 16.9956C5.77321 16.9956 5.99707 17.2195 5.99707 17.4956V18.5023C5.99707 19.3307 6.66864 20.0023 7.49707 20.0023H16.5029C17.3314 20.0023 18.0029 19.3307 18.0029 18.5023V8.51376C18.0029 8.23761 17.7791 8.01376 17.5029 8.01376H15.4935C14.665 8.01376 13.9935 7.34218 13.9935 6.51376V4.4978C13.9935 4.22392 13.7733 4.00147 13.5003 3.99785L12.8955 3.99787L12.887 3.9978H7.49707C6.66864 3.9978 5.99707 4.66938 5.99707 5.4978V9.5007C5.99707 9.77685 5.77321 10.0007 5.49707 10.0007C5.22093 10.0007 4.99707 9.77685 4.99707 9.5007V5.4978ZM14.9935 6.51376V4.67994L17.3149 7.01376H15.4935C15.2173 7.01376 14.9935 6.7899 14.9935 6.51376Z" fill="#008196"/>
<path d="M3.39572 11.1934C3.32981 11.1934 3.27637 11.2468 3.27637 11.3127V15.5555C3.27637 15.6214 3.32981 15.6749 3.39572 15.6749H6.24271C6.30863 15.6749 6.36207 15.6214 6.36207 15.5555V14.8736C6.36207 14.8077 6.30863 14.7543 6.24271 14.7543H4.38929V13.8245H5.9484C6.01432 13.8245 6.06776 13.771 6.06776 13.7051V13.0407C6.06776 12.9748 6.01432 12.9214 5.9484 12.9214H4.38929V12.1169H6.2398C6.30572 12.1169 6.35916 12.0634 6.35916 11.9975V11.3127C6.35916 11.2468 6.30572 11.1934 6.2398 11.1934H3.39572Z" fill="#008196"/>
<path fill-rule="evenodd" clip-rule="evenodd" d="M7.29268 11.1934C7.22676 11.1934 7.17332 11.2468 7.17332 11.3127V15.5555C7.17332 15.6214 7.22676 15.6749 7.29268 15.6749H8.16688C8.2328 15.6749 8.28624 15.6214 8.28624 15.5555V14.1625H8.94492C9.28969 14.1625 9.5921 14.1061 9.84835 13.9885C10.106 13.8712 10.3075 13.7022 10.4475 13.4803C10.5876 13.2583 10.6553 12.9985 10.6553 12.7056C10.6553 12.4162 10.5874 12.1546 10.4488 11.9243C10.3099 11.6934 10.1095 11.5144 9.85227 11.3867C9.59496 11.2561 9.29109 11.1934 8.94492 11.1934H7.29268ZM8.94492 13.2419H8.28624V12.1169H8.94492C9.09708 12.1169 9.20897 12.147 9.28929 12.1976C9.37507 12.2516 9.43556 12.3212 9.4741 12.4075C9.51543 12.5001 9.53658 12.6009 9.53658 12.7114C9.53658 12.8199 9.5155 12.9133 9.47592 12.994C9.43933 13.0687 9.38152 13.1286 9.29718 13.1741C9.21486 13.2166 9.09982 13.2419 8.94492 13.2419Z" fill="#008196"/>
<path d="M12.73 11.1934C12.4909 11.1934 12.2689 11.2227 12.0647 11.2825C11.8632 11.3422 11.6856 11.4284 11.534 11.542C11.382 11.654 11.2624 11.7902 11.1768 11.9506C11.0899 12.1112 11.0473 12.2893 11.0473 12.4827C11.0473 12.6804 11.0879 12.8596 11.1712 13.0154C11.2542 13.1665 11.3667 13.2988 11.5074 13.4122L11.5087 13.4132C11.6487 13.5223 11.8087 13.6174 11.9872 13.6986C12.165 13.7785 12.3532 13.8505 12.5502 13.9142C12.7221 13.9683 12.8596 14.0196 12.9638 14.068C13.0687 14.1167 13.1447 14.1639 13.1956 14.2083L13.1971 14.2095C13.2465 14.251 13.2754 14.2933 13.2899 14.3356L13.2913 14.3392C13.3096 14.3865 13.3198 14.4425 13.3198 14.5086C13.3198 14.5865 13.3002 14.6536 13.2622 14.7128L13.2613 14.7144C13.2272 14.7697 13.171 14.8176 13.086 14.8543C13.0051 14.8899 12.8949 14.9104 12.7506 14.9104C12.6321 14.9104 12.5247 14.8984 12.4278 14.8751C12.3358 14.8525 12.2585 14.8167 12.1943 14.7691C12.1345 14.7233 12.087 14.6628 12.0523 14.5851C12.0185 14.5094 11.9993 14.4117 11.9993 14.2884C11.9993 14.233 11.9545 14.1881 11.8991 14.1881H11.0154C10.96 14.1881 10.9152 14.233 10.9152 14.2884C10.9152 14.5431 10.9681 14.7693 11.0779 14.9631C11.1853 15.1526 11.3293 15.3091 11.5084 15.4314C11.6861 15.5512 11.8839 15.641 12.0994 15.7005C12.3133 15.7576 12.5304 15.7861 12.7506 15.7861C12.9929 15.7861 13.2145 15.7589 13.4146 15.7032C13.6145 15.6475 13.7895 15.5653 13.9378 15.4551C14.087 15.3443 14.2023 15.2078 14.2821 15.0462C14.3622 14.8838 14.401 14.7019 14.401 14.5027C14.401 14.3149 14.3687 14.1434 14.3016 13.9899C14.235 13.8372 14.1364 13.7017 14.0075 13.5833C13.8798 13.466 13.7227 13.3622 13.538 13.2708C13.3559 13.1798 13.146 13.0986 12.9091 13.0269C12.7727 12.9846 12.6538 12.9418 12.552 12.8984C12.451 12.8554 12.3685 12.8106 12.3032 12.7648C12.2392 12.7198 12.195 12.6744 12.1665 12.6297C12.1415 12.5878 12.1285 12.5405 12.1285 12.4856C12.1285 12.4085 12.1493 12.341 12.1887 12.2819C12.2271 12.2228 12.2867 12.1726 12.3742 12.1339L12.3757 12.1333C12.4604 12.0941 12.5722 12.072 12.7154 12.072C12.8631 12.072 12.9775 12.098 13.0626 12.143C13.1521 12.1894 13.2147 12.2509 13.2551 12.3271L13.2563 12.3292C13.2995 12.4059 13.3227 12.4981 13.3227 12.6089C13.3227 12.6643 13.3676 12.7091 13.4229 12.7091H14.2979C14.3532 12.7091 14.3981 12.6643 14.3981 12.6089C14.3981 12.3364 14.3276 12.0908 14.1849 11.8756C14.0447 11.6612 13.8481 11.4942 13.5987 11.3736C13.3477 11.2523 13.0572 11.1934 12.73 11.1934Z" fill="#008196"/>
</svg>
