<svg width="24" height="24" viewBox="0 0 24 24" fill="none" xmlns="http://www.w3.org/2000/svg">
<path fill-rule="evenodd" clip-rule="evenodd" d="M15.5029 11.3649C15.5029 11.2824 15.483 11.2045 15.4476 11.1359C15.2923 10.6239 14.8323 10.2454 14.3479 10.0032C13.7219 9.69026 12.8922 9.51111 12.0029 9.51111C11.1137 9.51111 10.284 9.69026 9.65801 10.0032C9.17358 10.2454 8.71361 10.6239 8.55832 11.1359C8.52292 11.2045 8.50293 11.2824 8.50293 11.3649V16.7621C8.50293 17.4677 9.06196 17.9719 9.65801 18.2699C10.284 18.5829 11.1137 18.7621 12.0029 18.7621C12.8922 18.7621 13.7219 18.5829 14.3479 18.2699C14.9439 17.9719 15.5029 17.4677 15.5029 16.7621V11.3649ZM10.1052 10.8977C9.61548 11.1425 9.50293 11.3883 9.50293 11.5111C9.50293 11.6339 9.61548 11.8797 10.1052 12.1246C10.5651 12.3545 11.2353 12.5111 12.0029 12.5111C12.7706 12.5111 13.4408 12.3545 13.9007 12.1246C14.3904 11.8797 14.5029 11.6339 14.5029 11.5111C14.5029 11.3883 14.3904 11.1425 13.9007 10.8977C13.4408 10.6677 12.7706 10.5111 12.0029 10.5111C11.2353 10.5111 10.5651 10.6677 10.1052 10.8977ZM14.5029 12.9361C14.4518 12.9653 14.4 12.9929 14.3479 13.019C13.7219 13.332 12.8922 13.5111 12.0029 13.5111C11.1137 13.5111 10.284 13.332 9.65801 13.019C9.60591 12.9929 9.55411 12.9653 9.50293 12.9361V14.5625C9.51113 14.5732 9.52753 14.5915 9.55827 14.617C9.64756 14.6912 9.80674 14.7805 10.0474 14.8651C10.5242 15.0327 11.2156 15.1457 12.0029 15.1457C12.7903 15.1457 13.4816 15.0327 13.9585 14.8651C14.1991 14.7805 14.3583 14.6912 14.4476 14.617C14.4783 14.5915 14.4947 14.5732 14.5029 14.5625V12.9361ZM14.5029 15.7265C14.4337 15.7557 14.3625 15.783 14.2901 15.8085C13.6811 16.0226 12.8725 16.1457 12.0029 16.1457C11.1334 16.1457 10.3248 16.0226 9.7158 15.8085C9.64337 15.783 9.57222 15.7557 9.50293 15.7265V16.7621C9.50293 16.8849 9.61548 17.1306 10.1052 17.3755C10.5651 17.6054 11.2353 17.7621 12.0029 17.7621C12.7706 17.7621 13.4408 17.6054 13.9007 17.3755C14.3904 17.1306 14.5029 16.8849 14.5029 16.7621V15.7265Z" fill="#008196"/>
<path fill-rule="evenodd" clip-rule="evenodd" d="M19.0059 18.5045C19.0059 19.8852 17.8866 21.0045 16.5059 21.0045H7.5C6.11929 21.0045 5 19.8852 5 18.5045V5.5C5 4.11929 6.11929 3 7.5 3H13.4964L13.5015 3.00001L13.6942 3C14.3595 2.99997 14.9975 3.26519 15.4667 3.73693L18.2783 6.5635C18.7443 7.03195 19.0059 7.66583 19.0059 8.32657V18.5045ZM12.8925 4H7.5C6.67157 4 6 4.67157 6 5.5V18.5045C6 19.3329 6.67157 20.0045 7.5 20.0045H16.5059C17.3343 20.0045 18.0059 19.3329 18.0059 18.5045V8.51595C18.0059 8.23981 17.782 8.01595 17.5059 8.01595H15.4964C14.668 8.01595 13.9964 7.34438 13.9964 6.51595V4.5C13.9964 4.22485 13.7741 4.0016 13.4994 4.00001L13.4964 4L12.8985 4.00004C12.8965 4.00004 12.8925 4 12.8925 4ZM14.9964 4.6821V6.51595C14.9964 6.79209 15.2203 7.01595 15.4964 7.01595H17.3179L14.9964 4.6821Z" fill="#008196"/>
</svg>
