<svg width="24" height="24" viewBox="0 0 24 24" fill="none" xmlns="http://www.w3.org/2000/svg">
<path d="M9.0491 8.33285C8.78233 8.31466 8.40407 8.36289 7.92314 8.48312C7.65525 8.5501 7.38378 8.38722 7.3168 8.11932C7.24983 7.85142 7.41271 7.57996 7.68061 7.51298C8.19968 7.38321 8.69643 7.30647 9.11715 7.33517C9.53126 7.36342 9.98935 7.50588 10.236 7.93754C10.4695 8.3462 10.4146 8.85099 10.2442 9.35392C10.0858 9.82118 9.79606 10.3809 9.36954 11.0439C10.0556 10.9211 11.0272 10.789 11.9232 11.013C12.2047 11.0834 12.4636 11.1858 12.6585 11.3529C12.8767 11.5399 12.9894 11.7871 12.9894 12.0606C12.9894 12.3015 12.9019 12.5255 12.8116 12.7061C12.7183 12.8927 12.5935 13.0871 12.4679 13.2755C12.4289 13.334 12.3893 13.3928 12.3494 13.4522C11.8486 14.197 11.3019 15.0101 11.3019 15.9981C11.3019 16.4359 11.5143 16.7981 11.8831 17.0747C12.2603 17.3576 12.7855 17.5342 13.3268 17.5612C13.8695 17.5884 14.3746 17.4631 14.7294 17.2089C15.0649 16.9684 15.3019 16.5896 15.3019 15.9981C15.3019 15.722 15.5257 15.4981 15.8019 15.4981C16.078 15.4981 16.3019 15.722 16.3019 15.9981C16.3019 16.9066 15.9138 17.5903 15.3119 18.0217C14.7291 18.4393 13.9842 18.5954 13.2769 18.56C12.5682 18.5246 11.8434 18.2949 11.2831 17.8747C10.7144 17.4481 10.3019 16.8103 10.3019 15.9981C10.3019 14.6873 11.0234 13.6242 11.5072 12.9114C11.5524 12.8448 11.5956 12.7812 11.6359 12.7208C11.7602 12.5342 11.8542 12.3848 11.9172 12.2589C11.9574 12.1784 11.9754 12.1257 11.9834 12.0948C11.9415 12.0686 11.8523 12.0261 11.6806 11.9832C10.8759 11.782 9.96044 11.9517 9.25164 12.0831L9.2505 12.0833C9.19178 12.0942 9.13449 12.1048 9.0788 12.115C8.91023 12.1456 8.73596 12.175 8.59153 12.1828C8.52036 12.1867 8.42664 12.1873 8.33108 12.168C8.24411 12.1504 8.06828 12.0987 7.94692 11.9253C7.81418 11.7356 7.83695 11.5345 7.86977 11.4203C7.90146 11.3099 7.95844 11.2155 8.00628 11.146C8.09875 11.0117 8.23844 10.8563 8.4127 10.6802C8.88609 9.96571 9.16361 9.42663 9.2971 9.03286C9.4391 8.61396 9.38423 8.46251 9.36775 8.43367C9.36397 8.42702 9.32087 8.35139 9.0491 8.33285Z" fill="#008196"/>
<path fill-rule="evenodd" clip-rule="evenodd" d="M19.0029 18.5022C19.0029 19.883 17.8836 21.0022 16.5029 21.0022H7.49707C6.11636 21.0022 4.99707 19.883 4.99707 18.5022V5.49775C4.99707 4.11704 6.11636 2.99775 7.49707 2.99775H13.4935C13.4952 2.99775 13.4969 2.99776 13.4986 2.99776L13.6912 2.99775C14.3566 2.99772 14.9945 3.26294 15.4638 3.73469L18.2754 6.56125C18.7414 7.02971 19.0029 7.66358 19.0029 8.32432V18.5022ZM12.8895 3.99775H7.49707C6.66864 3.99775 5.99707 4.66933 5.99707 5.49775V18.5022C5.99707 19.3307 6.66864 20.0022 7.49707 20.0022H16.5029C17.3314 20.0022 18.0029 19.3307 18.0029 18.5022V8.51371C18.0029 8.23756 17.7791 8.01371 17.5029 8.01371H15.4935C14.665 8.01371 13.9935 7.34213 13.9935 6.51371V4.49775C13.9935 4.2226 13.7712 3.99935 13.4964 3.99776C13.4954 3.99776 13.4945 3.99775 13.4935 3.99775L12.8955 3.99779C12.8935 3.99779 12.8915 3.99778 12.8895 3.99775ZM14.9935 4.67985V6.51371C14.9935 6.78985 15.2173 7.01371 15.4935 7.01371H17.315L14.9935 4.67985Z" fill="#008196"/>
</svg>
