<svg width="24" height="24" viewBox="0 0 24 24" fill="none" xmlns="http://www.w3.org/2000/svg">
<path d="M13.5015 16.0033C13.2253 16.0033 13.0015 16.2272 13.0015 16.5033C13.0015 16.7794 13.2253 17.0033 13.5015 17.0033H17.5002C17.7764 17.0033 18.0002 16.7794 18.0002 16.5033C18.0002 16.2272 17.7764 16.0033 17.5002 16.0033H13.5015Z" fill="#008196"/>
<path fill-rule="evenodd" clip-rule="evenodd" d="M3.00398 6.48778C3.00399 5.10351 4.12885 3.98276 5.51311 3.98781L8.93397 4.0003C9.716 4.00315 10.4516 4.37179 10.922 4.99654L10.9246 5H18.4965C19.8772 5 20.9965 6.11929 20.9965 7.5V10.5C20.9965 10.5224 20.995 10.5445 20.9921 10.5661L20.9922 17.4936C20.9922 18.8757 19.8708 19.9955 18.4888 19.9936L5.50046 19.9757C4.12109 19.9738 3.0039 18.8551 3.00391 17.4757L3.00398 6.48778ZM5.50946 4.9878C4.6789 4.98477 4.00399 5.65722 4.00398 6.48778L4.00391 17.4757C4.0039 18.3033 4.67421 18.9746 5.50184 18.9757L18.4901 18.9936C19.3194 18.9948 19.9922 18.3229 19.9922 17.4936L19.9921 10.4882C19.9921 9.65974 19.3206 8.98818 18.4921 8.98818H13.9228C13.1375 8.98818 12.3979 8.61923 11.9256 7.99192L10.1232 5.59804C9.84092 5.22319 9.39954 5.002 8.93032 5.00029L5.50946 4.9878ZM12.7244 7.39042L11.6776 6H18.4965C19.3249 6 19.9965 6.67157 19.9965 7.5V8.49126C19.5779 8.17544 19.0569 7.98818 18.4921 7.98818H13.9228C13.4516 7.98818 13.0078 7.76681 12.7244 7.39042Z" fill="#008196"/>
</svg>
