<svg width="24" height="24" viewBox="0 0 24 24" fill="none" xmlns="http://www.w3.org/2000/svg">
<path d="M13.5071 12.9909C13.7832 12.9909 14.0071 13.2148 14.0071 13.4909C14.0068 13.7669 13.7831 13.9909 13.5071 13.9909H7.50415C7.22817 13.9909 7.00441 13.7669 7.00415 13.4909C7.00415 13.2148 7.22801 12.9909 7.50415 12.9909H13.5071Z" fill="#6610F2"/>
<path d="M16.509 9.99094C16.7851 9.99107 17.009 10.2149 17.009 10.4909C17.0088 10.7668 16.7849 10.9908 16.509 10.9909H7.50415C7.22817 10.9909 7.00441 10.7669 7.00415 10.4909C7.00415 10.2148 7.22801 9.99094 7.50415 9.99094H16.509Z" fill="#6610F2"/>
<path d="M16.509 6.99387C16.785 6.994 17.0089 7.21792 17.009 7.49387C17.009 7.76993 16.7851 7.99373 16.509 7.99387H7.50415C7.22801 7.99387 7.00415 7.77001 7.00415 7.49387C7.00428 7.21784 7.22809 6.99387 7.50415 6.99387H16.509Z" fill="#6610F2"/>
<path fill-rule="evenodd" clip-rule="evenodd" d="M17.5042 2.98996C19.4369 2.99022 21.0042 4.55713 21.0042 6.48996V14.5027C21.0042 16.4355 19.4369 18.0024 17.5042 18.0027H8.21118L4.6106 20.7986C3.95373 21.3087 2.9976 20.8411 2.99731 20.0095V14.5779C2.99701 14.5707 2.99634 14.5636 2.99634 14.5564V6.48996C2.99634 4.55696 4.56334 2.98996 6.49634 2.98996H17.5042ZM6.49634 3.98996C5.11563 3.98996 3.99634 5.10925 3.99634 6.48996V13.9529C3.99665 13.9601 3.99731 13.9679 3.99731 13.9753V20.0095L7.64575 17.1755C7.73743 17.0697 7.8727 17.0027 8.02368 17.0027H17.5042C18.8846 17.0024 20.0042 15.8832 20.0042 14.5027V6.48996C20.0042 5.10941 18.8846 3.99022 17.5042 3.98996H6.49634Z" fill="#6610F2"/>
</svg>
