<svg width="24" height="24" viewBox="0 0 24 24" fill="none" xmlns="http://www.w3.org/2000/svg">
<path d="M15.5078 13.0024C15.7837 13.0027 16.0068 13.2265 16.0068 13.5024C16.0066 13.7784 15.7828 14.0024 15.5068 14.0024H10.5068C10.2309 14.0024 10.0071 13.7784 10.0068 13.5024C10.0068 13.2263 10.2307 13.0024 10.5068 13.0024H15.5078Z" fill="#6610F2"/>
<path fill-rule="evenodd" clip-rule="evenodd" d="M11.2627 7.0083C11.4677 7.00844 11.6521 7.13311 11.7275 7.32373L12.9824 10.5005C13.0839 10.7573 12.958 11.0474 12.7012 11.1489C12.4444 11.2503 12.1542 11.1244 12.0527 10.8677L11.9102 10.5073H10.6143L10.4717 10.8677C10.3702 11.1245 10.0801 11.2504 9.82324 11.1489C9.56648 11.0474 9.44051 10.7573 9.54199 10.5005L10.7969 7.32373C10.8723 7.13295 11.0575 7.0083 11.2627 7.0083ZM11.0098 9.50732H11.5146L11.2627 8.86865L11.0098 9.50732Z" fill="#6610F2"/>
<path d="M16.0068 7.0083C16.1912 7.0083 16.3602 7.10945 16.4473 7.27197C16.5343 7.43455 16.5251 7.63222 16.4229 7.78564L14.9414 10.0083H16.0068C16.283 10.0083 16.5068 10.2322 16.5068 10.5083C16.5066 10.7842 16.2828 11.0083 16.0068 11.0083H14.0068C13.8225 11.0083 13.6534 10.9062 13.5664 10.7437C13.4794 10.5811 13.4885 10.3834 13.5908 10.23L15.0723 8.0083H14.0068C13.7309 8.0083 13.5071 7.78422 13.5068 7.5083C13.5068 7.23216 13.7307 7.0083 14.0068 7.0083H16.0068Z" fill="#6610F2"/>
<path fill-rule="evenodd" clip-rule="evenodd" d="M18.5039 3.00049C18.78 3.00049 19.0039 3.22435 19.0039 3.50049V20.4995C19.0039 20.5339 19.0008 20.5676 18.9941 20.6001C18.9809 20.6651 18.9547 20.7257 18.9189 20.7788C18.8291 20.912 18.6767 20.9995 18.5039 20.9995H6.99316C5.89042 20.9995 4.99609 20.1052 4.99609 19.0024C4.9961 18.9525 5.00029 18.9031 5.00391 18.854V5.50049C5.00391 4.11978 6.12319 3.00049 7.50391 3.00049H18.5039ZM6.99316 18.0063C6.4835 18.0063 6.06342 18.3887 6.00391 18.8823V18.9399C6.00391 18.9652 5.9997 18.9899 5.99609 19.0142C6.00218 19.5594 6.44649 19.9995 6.99316 19.9995H18.0039V18.0063H6.99316ZM7.00879 4.08545C6.42386 4.2901 6.00391 4.84571 6.00391 5.50049V17.269C6.29557 17.1023 6.63315 17.0063 6.99316 17.0063H7.00879V4.08545ZM8.00879 17.0063H18.0039V4.00049H8.00879V17.0063Z" fill="#6610F2"/>
</svg>
