<svg width="24" height="24" viewBox="0 0 24 24" fill="none" xmlns="http://www.w3.org/2000/svg">
<path fill-rule="evenodd" clip-rule="evenodd" d="M8.50366 3.99438C9.33209 3.99438 10.0037 4.66596 10.0037 5.49438V6.50024L14.0476 6.49243C14.2854 5.07472 15.5184 3.99444 17.0037 3.99438C18.659 3.99438 20.0015 5.33618 20.0017 6.99146C20.0017 8.64689 18.6591 9.9895 17.0037 9.9895C15.5189 9.98944 14.2869 8.90948 14.0486 7.49243L10.0037 7.50024V8.49927C10.0037 8.73769 9.94639 8.96219 9.84741 9.16235L14.8386 14.1526C15.0371 14.0556 15.26 14.0013 15.4958 14.0012H18.5007C19.3292 14.0012 20.0007 14.6728 20.0007 15.5012V18.5061C20.0005 19.3343 19.329 20.0061 18.5007 20.0061H15.4958C14.6677 20.006 13.9961 19.3342 13.9958 18.5061V17.4983L9.94897 17.5071C9.70719 18.92 8.47772 19.9954 6.99585 19.9954C5.34062 19.9952 3.99885 18.6536 3.99878 16.9983C3.99878 15.343 5.34058 14.0014 6.99585 14.0012C8.48394 14.0012 9.71746 15.0854 9.9519 16.5071L13.9958 16.4983V15.5012C13.9958 15.2744 14.0473 15.0592 14.1375 14.8665L9.13062 9.85962C8.93963 9.94775 8.72781 9.99927 8.50366 9.99927H5.49878C4.67046 9.99914 3.99878 9.32761 3.99878 8.49927V5.49438C3.99878 4.66604 4.67046 3.99452 5.49878 3.99438H8.50366ZM15.4958 15.0012C15.2198 15.0014 14.9958 15.2252 14.9958 15.5012V16.9661C14.9965 16.9763 14.9988 16.9869 14.9988 16.9973C14.9988 17.0072 14.9964 17.0169 14.9958 17.0266V18.5061C14.9961 18.7819 15.22 19.006 15.4958 19.0061H18.5007C18.7767 19.0061 19.0005 18.782 19.0007 18.5061V15.5012C19.0007 15.2251 18.7769 15.0012 18.5007 15.0012H15.4958ZM6.99585 15.0012C5.89286 15.0014 4.99878 15.8953 4.99878 16.9983C4.99885 18.1013 5.8929 18.9952 6.99585 18.9954C8.09896 18.9954 8.99383 18.1014 8.9939 16.9983C8.9939 15.8951 8.099 15.0012 6.99585 15.0012ZM5.49878 4.99438C5.22275 4.99452 4.99878 5.21832 4.99878 5.49438V8.49927C4.99878 8.77533 5.22275 8.99914 5.49878 8.99927H8.50366C8.7798 8.99927 9.00366 8.77541 9.00366 8.49927V7.03052C9.00316 7.02143 9.00075 7.01238 9.00073 7.00317C9.00072 6.99372 9.00315 6.98418 9.00366 6.97485V5.49438C9.00366 5.21824 8.7798 4.99438 8.50366 4.99438H5.49878ZM17.0037 4.99438C15.9007 4.99445 15.0068 5.88851 15.0066 6.99146C15.0066 8.09457 15.9006 8.98944 17.0037 8.9895C18.1068 8.9895 19.0017 8.09461 19.0017 6.99146C19.0015 5.88847 18.1067 4.99438 17.0037 4.99438Z" fill="#791D13"/>
</svg>
