<svg width="24" height="24" viewBox="0 0 24 24" fill="none" xmlns="http://www.w3.org/2000/svg">
<path d="M7.99609 11.4995C7.99609 11.2234 8.21995 10.9995 8.49609 10.9995H15.498C15.7742 10.9995 15.998 11.2234 15.998 11.4995C15.998 11.7757 15.7742 11.9995 15.498 11.9995H8.49609C8.21995 11.9995 7.99609 11.7757 7.99609 11.4995Z" fill="#008196"/>
<path d="M7.99609 14.4995C7.99609 14.2234 8.21995 13.9995 8.49609 13.9995H15.498C15.7742 13.9995 15.998 14.2234 15.998 14.4995C15.998 14.7757 15.7742 14.9995 15.498 14.9995H8.49609C8.21995 14.9995 7.99609 14.7757 7.99609 14.4995Z" fill="#008196"/>
<path d="M8.49609 17.002C8.21995 17.002 7.99609 17.2258 7.99609 17.502C7.99609 17.7781 8.21995 18.002 8.49609 18.002H15.498C15.7742 18.002 15.998 17.7781 15.998 17.502C15.998 17.2258 15.7742 17.002 15.498 17.002H8.49609Z" fill="#008196"/>
<path fill-rule="evenodd" clip-rule="evenodd" d="M19.0029 18.5041C19.0029 19.8848 17.8836 21.0041 16.5029 21.0041H7.49707C6.11636 21.0041 4.99707 19.8848 4.99707 18.5041V5.49963C4.99707 4.11892 6.11636 2.99963 7.49707 2.99963H13.4935L13.4986 2.99964L13.6912 2.99963C14.3566 2.9996 14.9945 3.26482 15.4638 3.73657L18.2754 6.56313C18.7414 7.03159 19.0029 7.66546 19.0029 8.3262V18.5041ZM12.8895 3.99963H7.49707C6.66864 3.99963 5.99707 4.67121 5.99707 5.49963V18.5041C5.99707 19.3326 6.66864 20.0041 7.49707 20.0041H16.5029C17.3314 20.0041 18.0029 19.3326 18.0029 18.5041V8.51559C18.0029 8.23944 17.7791 8.01559 17.5029 8.01559H15.4935C14.665 8.01559 13.9935 7.34401 13.9935 6.51559V4.49963C13.9935 4.22448 13.7712 4.00124 13.4964 3.99964L13.4935 3.99963L12.8955 3.99967C12.8935 3.99967 12.8895 3.99963 12.8895 3.99963ZM14.9935 4.68173V6.51559C14.9935 6.79173 15.2173 7.01559 15.4935 7.01559H17.315L14.9935 4.68173Z" fill="#008196"/>
</svg>
