<svg width="24" height="24" viewBox="0 0 24 24" fill="none" xmlns="http://www.w3.org/2000/svg">
<path d="M16.8087 14.5342C17.004 14.3389 17.3205 14.3389 17.5157 14.5342C17.7109 14.7294 17.7109 15.046 17.5157 15.2412L16.2872 16.4697C16.1935 16.5633 16.0662 16.6162 15.9337 16.6162C15.8012 16.6161 15.6739 16.5634 15.5802 16.4697L14.9835 15.8721C14.7883 15.6768 14.7882 15.3603 14.9835 15.165C15.1788 14.9699 15.4953 14.9699 15.6906 15.165L15.9337 15.4092L16.8087 14.5342Z" fill="#DB1A74"/>
<path d="M12.0011 15.002C12.2772 15.002 12.5011 15.2258 12.5011 15.502C12.501 15.778 12.2772 16.002 12.0011 16.002H7.0011C6.72504 16.002 6.50123 15.778 6.5011 15.502C6.5011 15.2258 6.72496 15.002 7.0011 15.002H12.0011Z" fill="#DB1A74"/>
<path d="M16.8087 10.9961C17.0039 10.801 17.3205 10.8011 17.5157 10.9961C17.711 11.1913 17.7109 11.5078 17.5157 11.7031L16.2872 12.9316C16.1935 13.0254 16.0664 13.0781 15.9337 13.0781C15.8012 13.078 15.6739 13.0254 15.5802 12.9316L14.9835 12.335C14.7883 12.1397 14.7883 11.8232 14.9835 11.6279C15.1788 11.4327 15.4953 11.4326 15.6906 11.6279L15.9337 11.8711L16.8087 10.9961Z" fill="#DB1A74"/>
<path d="M12.0011 11.5312C12.2772 11.5312 12.5011 11.7551 12.5011 12.0312C12.5011 12.3074 12.2772 12.5312 12.0011 12.5312H7.0011C6.72496 12.5312 6.5011 12.3074 6.5011 12.0312C6.5011 11.7551 6.72496 11.5312 7.0011 11.5312H12.0011Z" fill="#DB1A74"/>
<path d="M16.5411 7.39648C16.7364 7.20122 17.0529 7.20122 17.2482 7.39648C17.4434 7.59175 17.4434 7.90825 17.2482 8.10352L16.9562 8.39551L17.2482 8.6875C17.4434 8.88276 17.4434 9.19927 17.2482 9.39453C17.0529 9.58979 16.7364 9.58979 16.5411 9.39453L16.2491 9.10254L15.9572 9.39453C15.7619 9.58979 15.4454 9.58979 15.2501 9.39453C15.0549 9.19927 15.0549 8.88276 15.2501 8.6875L15.5421 8.39551L15.2501 8.10352C15.0549 7.90825 15.0549 7.59175 15.2501 7.39648C15.4454 7.20122 15.7619 7.20122 15.9572 7.39648L16.2491 7.68848L16.5411 7.39648Z" fill="#DB1A74"/>
<path d="M12.0011 8.01758C12.2772 8.01758 12.5011 8.24144 12.5011 8.51758C12.501 8.79361 12.2772 9.01758 12.0011 9.01758H7.0011C6.72504 9.01758 6.50123 8.79361 6.5011 8.51758C6.5011 8.24144 6.72496 8.01758 7.0011 8.01758H12.0011Z" fill="#DB1A74"/>
<path fill-rule="evenodd" clip-rule="evenodd" d="M18.5011 4C19.8817 4.00013 21.0011 5.11937 21.0011 6.5V17.5C21.0011 18.8806 19.8817 19.9999 18.5011 20H5.49915C4.11843 20 2.99915 18.8807 2.99915 17.5V6.5C2.99915 5.11929 4.11843 4 5.49915 4H18.5011ZM5.49915 5C4.67072 5 3.99915 5.67157 3.99915 6.5V17.5C3.99915 18.3284 4.67072 19 5.49915 19H18.5011C19.3294 18.9999 20.0011 18.3283 20.0011 17.5V6.5C20.0011 5.67165 19.3294 5.00013 18.5011 5H5.49915Z" fill="#DB1A74"/>
</svg>
