<svg width="24" height="24" viewBox="0 0 24 24" fill="none" xmlns="http://www.w3.org/2000/svg">
<path fill-rule="evenodd" clip-rule="evenodd" d="M11.7764 3.05273C11.9171 2.98235 12.0829 2.98235 12.2236 3.05273L20.2236 7.05273C20.393 7.13743 20.5 7.31062 20.5 7.5V16.5C20.5 16.6894 20.393 16.8626 20.2236 16.9473L12.2236 20.9473C12.0829 21.0176 11.9171 21.0176 11.7764 20.9473L3.77637 16.9473C3.60698 16.8626 3.5 16.6894 3.5 16.5V7.5C3.5 7.31062 3.60698 7.13743 3.77637 7.05273L11.7764 3.05273ZM4.5 16.1914L11.5 19.6914V11.8086L8.5 10.3086V13C8.5 13.2761 8.27614 13.5 8 13.5C7.72386 13.5 7.5 13.2761 7.5 13V9.80859L4.5 8.30859V16.1914ZM12.5 11.8086V19.6914L19.5 16.1914V8.30859L12.5 11.8086ZM8.96387 9.42285L12 10.9404L18.8818 7.49902L15.8447 5.98047L8.96387 9.42285ZM5.11719 7.49902L7.8457 8.86328L14.7266 5.42188L12 4.05859L5.11719 7.49902Z" fill="#791D13"/>
</svg>
