<svg width="24" height="24" viewBox="0 0 24 24" fill="none" xmlns="http://www.w3.org/2000/svg">
<path d="M6.41309 14.002C6.68923 14.002 6.91309 14.2258 6.91309 14.502C6.91295 14.778 6.68915 15.002 6.41309 15.002H5.85742C5.58136 15.002 5.35755 14.778 5.35742 14.502C5.35742 14.2258 5.58128 14.002 5.85742 14.002H6.41309Z" fill="#1D2125"/>
<path d="M18.1602 14.002C18.4361 14.0022 18.6602 14.226 18.6602 14.502C18.66 14.7778 18.436 15.0017 18.1602 15.002H8.64453C8.36847 15.002 8.14466 14.778 8.14453 14.502C8.14453 14.2258 8.36839 14.002 8.64453 14.002H18.1602Z" fill="#1D2125"/>
<path d="M6.41309 11.5C6.68923 11.5 6.91309 11.7239 6.91309 12C6.91309 12.2761 6.68923 12.5 6.41309 12.5H5.85742C5.58128 12.5 5.35742 12.2761 5.35742 12C5.35742 11.7239 5.58128 11.5 5.85742 11.5H6.41309Z" fill="#1D2125"/>
<path d="M18.1602 11.5C18.4361 11.5003 18.6602 11.724 18.6602 12C18.6602 12.276 18.4361 12.4997 18.1602 12.5H8.64453C8.36839 12.5 8.14453 12.2761 8.14453 12C8.14453 11.7239 8.36839 11.5 8.64453 11.5H18.1602Z" fill="#1D2125"/>
<path d="M6.41309 9.00098C6.68923 9.00098 6.91309 9.22483 6.91309 9.50098C6.91309 9.77712 6.68923 10.001 6.41309 10.001H5.85742C5.58128 10.001 5.35742 9.77712 5.35742 9.50098C5.35742 9.22483 5.58128 9.00098 5.85742 9.00098H6.41309Z" fill="#1D2125"/>
<path d="M18.1602 9.00098C18.4361 9.00124 18.6602 9.225 18.6602 9.50098C18.6602 9.77696 18.4361 10.0007 18.1602 10.001H8.64453C8.36839 10.001 8.14453 9.77712 8.14453 9.50098C8.14453 9.22483 8.36839 9.00098 8.64453 9.00098H18.1602Z" fill="#1D2125"/>
<path fill-rule="evenodd" clip-rule="evenodd" d="M19.5 5C20.8807 5 22 6.11929 22 7.5V16.5C22 17.8807 20.8807 19 19.5 19H4.5C3.11929 19 2 17.8807 2 16.5V7.5C2 6.11929 3.11929 5 4.5 5H19.5ZM4.5 6C3.67157 6 3 6.67157 3 7.5V16.5C3 17.3284 3.67157 18 4.5 18H19.5C20.3284 18 21 17.3284 21 16.5V7.5C21 6.67157 20.3284 6 19.5 6H4.5Z" fill="#1D2125"/>
</svg>
