<svg width="24" height="24" viewBox="0 0 24 24" fill="none" xmlns="http://www.w3.org/2000/svg">
<path d="M6.49707 11.8682C6.77313 11.8682 6.99694 12.0921 6.99707 12.3682V16.5049C6.99706 16.781 6.77321 17.0049 6.49707 17.0049C6.22093 17.0049 5.99708 16.781 5.99707 16.5049V12.3682C5.9972 12.0921 6.22101 11.8682 6.49707 11.8682Z" fill="#CC5E13"/>
<path d="M10.166 7.00391C10.442 7.00391 10.6658 7.22799 10.666 7.50391V16.5049C10.666 16.781 10.4421 17.0049 10.166 17.0049C9.88991 17.0049 9.66607 16.781 9.66602 16.5049V7.50488C9.66602 7.22874 9.88987 7.00391 10.166 7.00391Z" fill="#CC5E13"/>
<path d="M13.8359 8.98438C14.1117 8.98464 14.3357 9.20862 14.3359 9.48438V16.5049C14.3359 16.7808 14.1118 17.0046 13.8359 17.0049C13.5598 17.0049 13.336 16.781 13.3359 16.5049V9.48535C13.3359 9.20921 13.5598 8.98438 13.8359 8.98438Z" fill="#CC5E13"/>
<path d="M17.5049 11C17.7806 11.0003 18.0046 11.2242 18.0049 11.5V16.5C18.0049 16.776 17.7808 16.9997 17.5049 17C17.2289 17 17.0051 16.7769 17.0049 16.501V11.501C17.0049 11.2248 17.2287 11 17.5049 11Z" fill="#CC5E13"/>
<path fill-rule="evenodd" clip-rule="evenodd" d="M18.501 4C19.8816 4.00013 21.001 5.11937 21.001 6.5V17.5C21.001 18.8806 19.8816 19.9999 18.501 20H5.49902C4.11831 20 2.99902 18.8807 2.99902 17.5V6.5C2.99902 5.11929 4.11831 4 5.49902 4H18.501ZM5.49902 5C4.6706 5 3.99902 5.67157 3.99902 6.5V17.5C3.99902 18.3284 4.6706 19 5.49902 19H18.501C19.3293 18.9999 20.001 18.3283 20.001 17.5V6.5C20.001 5.67165 19.3293 5.00013 18.501 5H5.49902Z" fill="#CC5E13"/>
</svg>
