<svg width="24" height="24" viewBox="0 0 24 24" fill="none" xmlns="http://www.w3.org/2000/svg">
<path d="M8.00391 8.49817C8.00391 8.22203 8.22776 7.99817 8.50391 7.99817L15.5085 7.99817C15.7847 7.99817 16.0085 8.22203 16.0085 8.49817C16.0085 8.5279 16.006 8.55702 16.001 8.58532V10.3736C16.001 10.6498 15.7771 10.8736 15.501 10.8736C15.2248 10.8736 15.001 10.6498 15.001 10.3736V8.99817H12.5V14.9989H13.5C13.7761 14.9989 14 15.2228 14 15.4989C14 15.775 13.7761 15.9989 13.5 15.9989H10.5C10.2239 15.9989 10 15.775 10 15.4989C10 15.2228 10.2239 14.9989 10.5 14.9989H11.5V8.99817H9.00391V10.3736C9.00391 10.6498 8.78005 10.8736 8.50391 10.8736C8.22776 10.8736 8.00391 10.6498 8.00391 10.3736V8.49817Z" fill="#008196"/>
<path fill-rule="evenodd" clip-rule="evenodd" d="M3 2.50024C2.72386 2.50024 2.5 2.7241 2.5 3.00024V6.00024C2.5 6.27639 2.72386 6.50024 3 6.50024H4V17.5H3C2.72386 17.5 2.5 17.7239 2.5 18V21C2.5 21.2761 2.72386 21.5 3 21.5H6C6.27614 21.5 6.5 21.2761 6.5 21V20H17.5V21C17.5 21.2761 17.7239 21.5 18 21.5H21C21.2761 21.5 21.5 21.2761 21.5 21V18C21.5 17.7239 21.2761 17.5 21 17.5H19.9998V6.50024H21C21.2761 6.50024 21.5 6.27639 21.5 6.00024V3.00024C21.5 2.7241 21.2761 2.50024 21 2.50024H18C17.7239 2.50024 17.5 2.7241 17.5 3.00024V4.00024H6.5V3.00024C6.5 2.7241 6.27614 2.50024 6 2.50024H3ZM6.5 5.00024V6.00024C6.5 6.27639 6.27614 6.50024 6 6.50024H5V17.5H6C6.27614 17.5 6.5 17.7239 6.5 18V19H17.5V18C17.5 17.7239 17.7239 17.5 18 17.5H18.9998V6.50024H18C17.7239 6.50024 17.5 6.27639 17.5 6.00024V5.00024H6.5ZM3.5 5.50024V3.50024H5.5V5.50024H3.5ZM3.5 20.5V18.5H5.5V20.5H3.5ZM18.5 3.50024V5.50024H20.5V3.50024H18.5ZM18.5 20.5V18.5H20.5V20.5H18.5Z" fill="#008196"/>
</svg>
