<svg width="24" height="24" viewBox="0 0 24 24" fill="none" xmlns="http://www.w3.org/2000/svg">
<path d="M19.1913 5.04646C17.5601 3.41525 14.9154 3.41525 13.2842 5.04646L11.9842 6.34646C11.7889 6.54172 11.7889 6.85831 11.9842 7.05357C12.1795 7.24883 12.496 7.24883 12.6913 7.05357L13.9913 5.75356C15.232 4.51288 17.2435 4.51288 18.4842 5.75356C19.7249 6.99425 19.7249 9.00579 18.4842 10.2465L15.8842 12.8465C14.6435 14.0872 12.632 14.0872 11.3913 12.8465C11.196 12.6512 10.8795 12.6512 10.6842 12.8465C10.4889 13.0417 10.4889 13.3583 10.6842 13.5536C12.3154 15.1848 14.9601 15.1848 16.5913 13.5536L19.1913 10.9536C20.8225 9.32238 20.8225 6.67767 19.1913 5.04646Z" fill="#008196"/>
<path d="M4.81691 18.9537C6.44812 20.5849 9.09283 20.5849 10.724 18.9537L12.024 17.6537C12.2193 17.4584 12.2193 17.1418 12.024 16.9466C11.8288 16.7513 11.5122 16.7513 11.3169 16.9466L10.0169 18.2466C8.77625 19.4872 6.7647 19.4872 5.52402 18.2466C4.28333 17.0059 4.28334 14.9943 5.52402 13.7536L8.12403 11.1536C9.36471 9.91295 11.3763 9.91295 12.6169 11.1536C12.8122 11.3489 13.1288 11.3489 13.324 11.1536C13.5193 10.9584 13.5193 10.6418 13.324 10.4465C11.6928 8.81532 9.04813 8.81532 7.41692 10.4465L4.81691 13.0465C3.1857 14.6777 3.1857 17.3225 4.81691 18.9537Z" fill="#008196"/>
</svg>
