<svg width="24" height="24" viewBox="0 0 24 24" fill="none" xmlns="http://www.w3.org/2000/svg">
<path fill-rule="evenodd" clip-rule="evenodd" d="M9.50049 3.00269C10.3318 3.00285 11.0054 3.67715 11.0054 4.50854C11.0053 4.99223 10.776 5.42066 10.4214 5.69604L11.436 8.75366C11.6265 8.71916 11.8226 8.70095 12.0229 8.70093C12.7456 8.70093 13.4131 8.93611 13.9546 9.33276L16.4097 6.88745C16.1501 6.49308 15.9976 6.02186 15.9976 5.5144C15.9976 4.13256 17.1177 3.01258 18.4995 3.01245C19.8814 3.01245 21.0024 4.13248 21.0024 5.5144C21.0024 6.89633 19.8814 8.01636 18.4995 8.01636C17.9867 8.01631 17.5106 7.86115 17.1138 7.59644L14.6626 10.0388C15.0606 10.5808 15.2963 11.2495 15.2964 11.9734C15.2964 12.0568 15.2908 12.1396 15.2847 12.2214L18.4741 12.9021C18.7969 12.3255 19.4139 11.9363 20.1216 11.9363C21.1632 11.9365 22.0072 12.7804 22.0073 13.822C22.0073 14.8637 21.1633 15.7086 20.1216 15.7087C19.0974 15.7087 18.2647 14.8923 18.2368 13.8748L15.0581 13.196C14.7612 13.9326 14.2049 14.5353 13.5015 14.8923L14.5405 17.988C15.352 18.011 16.0024 18.6749 16.0024 19.4919C16.0023 20.3232 15.3288 20.9967 14.4976 20.9968C13.6662 20.9968 12.9919 20.3233 12.9917 19.4919C12.9917 19.0022 13.2262 18.5677 13.5884 18.2927L12.5503 15.2029C12.3787 15.2307 12.2024 15.2468 12.0229 15.2468C11.323 15.2468 10.6751 15.0255 10.1431 14.6511L7.94873 16.8591C8.18727 17.242 8.32764 17.6931 8.32764 18.1775C8.3275 19.5573 7.20846 20.6764 5.82861 20.6765C4.44866 20.6765 3.32972 19.5574 3.32959 18.1775C3.32959 16.7975 4.44858 15.6785 5.82861 15.6785C6.36217 15.6785 6.85537 15.8476 7.26123 16.1326L9.42139 13.9587C9.00066 13.4081 8.75049 12.7199 8.75049 11.9734C8.75051 11.7689 8.77024 11.5689 8.80615 11.3748L5.8833 9.79858C5.47236 10.2337 4.89234 10.5076 4.24658 10.5076C3.00181 10.5075 1.99274 9.49843 1.99268 8.25366C1.99268 7.00884 3.00177 5.99982 4.24658 5.99976C5.49145 5.99976 6.50049 7.0088 6.50049 8.25366C6.50048 8.4922 6.46174 8.72147 6.39307 8.93726L9.14111 10.4197C9.44833 9.85111 9.91965 9.38397 10.4907 9.08081L9.47217 6.01147C8.65372 5.99652 7.99479 5.33053 7.99463 4.50854C7.99463 3.67705 8.66899 3.00269 9.50049 3.00269ZM14.4976 18.9861C14.2183 18.9861 13.9917 19.2127 13.9917 19.4919C13.9919 19.771 14.2184 19.9968 14.4976 19.9968C14.7765 19.9967 15.0023 19.7709 15.0024 19.4919C15.0024 19.2128 14.7766 18.9862 14.4976 18.9861ZM5.82861 16.6785C5.00086 16.6785 4.32959 17.3497 4.32959 18.1775C4.32972 19.0051 5.00094 19.6765 5.82861 19.6765C6.65617 19.6764 7.3275 19.0051 7.32764 18.1775C7.32764 17.3498 6.65625 16.6786 5.82861 16.6785ZM20.1216 12.9363C19.6321 12.9363 19.2349 13.3326 19.2349 13.822C19.2349 14.3116 19.632 14.7087 20.1216 14.7087C20.611 14.7086 21.0073 14.3114 21.0073 13.822C21.0072 13.3327 20.6109 12.9365 20.1216 12.9363ZM12.0229 9.70093C10.768 9.7011 9.75066 10.7184 9.75049 11.9734C9.75049 13.2285 10.7679 14.2467 12.0229 14.2468C13.2782 14.2468 14.2964 13.2286 14.2964 11.9734C14.2962 10.7183 13.2781 9.70093 12.0229 9.70093ZM4.24658 6.99976C3.55406 6.99982 2.99268 7.56112 2.99268 8.25366C2.99274 8.94615 3.5541 9.5075 4.24658 9.50757C4.93912 9.50757 5.50042 8.94619 5.50049 8.25366C5.50049 7.56108 4.93916 6.99976 4.24658 6.99976ZM18.4995 4.01245C17.67 4.01258 16.9976 4.68485 16.9976 5.5144C16.9976 6.34396 17.67 7.01623 18.4995 7.01636C19.3292 7.01636 20.0024 6.34404 20.0024 5.5144C20.0024 4.68476 19.3292 4.01245 18.4995 4.01245ZM9.50049 4.00269C9.22128 4.00269 8.99463 4.22933 8.99463 4.50854C8.99479 4.78762 9.22138 5.01343 9.50049 5.01343C9.77946 5.01326 10.0052 4.78752 10.0054 4.50854C10.0054 4.22943 9.77956 4.00285 9.50049 4.00269Z" fill="#6610F2"/>
</svg>
