<svg width="24" height="24" viewBox="0 0 24 24" fill="none" xmlns="http://www.w3.org/2000/svg">
<path d="M16.5016 15.4588C19.2676 15.4588 21.5131 17.6928 21.5133 20.453C21.5133 20.7291 21.2894 20.953 21.0133 20.953C20.7372 20.953 20.5133 20.7291 20.5133 20.453C20.5131 18.2486 18.7188 16.4588 16.5016 16.4588C14.2844 16.4588 12.4901 18.2486 12.4899 20.453C12.4899 20.7291 12.266 20.953 11.9899 20.953C11.8864 20.953 11.7903 20.9218 11.7106 20.868C11.6573 20.832 11.6108 20.7865 11.5748 20.7332C11.5209 20.6534 11.4899 20.5565 11.4899 20.453C11.4896 18.2477 9.69918 16.4591 7.48889 16.4588C5.27839 16.4588 3.48719 18.2476 3.48694 20.453C3.48694 20.7291 3.26308 20.953 2.98694 20.953C2.7108 20.953 2.48694 20.7291 2.48694 20.453C2.48719 17.6939 4.72749 15.4588 7.48889 15.4588C9.46823 15.459 11.1793 16.6075 11.9899 18.2742C12.8022 16.6068 14.5184 15.4588 16.5016 15.4588Z" fill="#DB1A74"/>
<path fill-rule="evenodd" clip-rule="evenodd" d="M7.48889 9.45393C8.8606 9.45419 9.98869 10.5489 9.98889 11.9178C9.98889 13.2869 8.86072 14.3814 7.48889 14.3817C6.11684 14.3817 4.98889 13.2871 4.98889 11.9178C4.98909 10.5487 6.11696 9.45393 7.48889 9.45393ZM7.48889 10.4539C6.65193 10.4539 5.98909 11.1181 5.98889 11.9178C5.98889 12.7176 6.6518 13.3817 7.48889 13.3817C8.32575 13.3814 8.98889 12.7175 8.98889 11.9178C8.98869 11.1183 8.32562 10.4542 7.48889 10.4539Z" fill="#DB1A74"/>
<path fill-rule="evenodd" clip-rule="evenodd" d="M16.5016 9.45393C17.8735 9.45393 19.0014 10.5487 19.0016 11.9178C19.0016 13.2871 17.8736 14.3817 16.5016 14.3817C15.1295 14.3817 14.0016 13.2871 14.0016 11.9178C14.0018 10.5487 15.1297 9.45393 16.5016 9.45393ZM16.5016 10.4539C15.6646 10.4539 15.0018 11.1181 15.0016 11.9178C15.0016 12.7176 15.6645 13.3817 16.5016 13.3817C17.3387 13.3817 18.0016 12.7176 18.0016 11.9178C18.0014 11.1181 17.3385 10.4539 16.5016 10.4539Z" fill="#DB1A74"/>
<path d="M6.63733 3.06819C6.90571 3.14151 7.0649 3.4153 6.9928 3.67952L6.61194 5.07112C8.1269 4.05231 9.98359 3.45393 11.986 3.45393C13.9279 3.45397 15.7332 4.01598 17.2223 4.97932L16.8688 3.67952C16.7967 3.41523 16.9557 3.14142 17.2242 3.06819C17.4926 2.99516 17.7682 3.14987 17.8405 3.41389L18.5319 5.9471C18.5665 6.07462 18.5486 6.21114 18.4811 6.326C18.4135 6.441 18.3015 6.52519 18.1715 6.5594L15.5924 7.23713C15.3234 7.30791 15.049 7.15122 14.9791 6.88655C14.9095 6.62161 15.0713 6.34896 15.3405 6.27815L16.7916 5.89534C15.442 4.99042 13.7836 4.45397 11.986 4.45393C10.1738 4.45393 8.50259 4.99859 7.14709 5.91682L8.52112 6.27815C8.78996 6.34903 8.95177 6.62087 8.88245 6.88557C8.81278 7.15051 8.53735 7.30795 8.26819 7.23713L5.68909 6.55842C5.55927 6.52418 5.44807 6.4408 5.38049 6.326C5.31288 6.21101 5.29487 6.07379 5.32971 5.94612L6.02014 3.41389C6.09228 3.14964 6.36883 2.99496 6.63733 3.06819Z" fill="#DB1A74"/>
</svg>
