<svg width="9" height="7" viewBox="0 0 9 7" xmlns="http://www.w3.org/2000/svg">
<path d="M4.50391 0C5.75391 0 6.76953 0.578125 7.50391 1.26562C8.23828 1.9375 8.72266 2.75 8.95703 3.3125C9.00391 3.4375 9.00391 3.57812 8.95703 3.70312C8.72266 4.25 8.23828 5.0625 7.50391 5.75C6.76953 6.4375 5.75391 7 4.50391 7C3.23828 7 2.22266 6.4375 1.48828 5.75C0.753906 5.0625 0.269531 4.25 0.0351562 3.70312C-0.0117188 3.57812 -0.0117188 3.4375 0.0351562 3.3125C0.269531 2.75 0.753906 1.9375 1.48828 1.26562C2.22266 0.578125 3.23828 0 4.50391 0ZM2.25391 3.5C2.25391 4.3125 2.67578 5.04688 3.37891 5.45312C4.06641 5.85938 4.92578 5.85938 5.62891 5.45312C6.31641 5.04688 6.75391 4.3125 6.75391 3.5C6.75391 2.70312 6.31641 1.96875 5.62891 1.5625C4.92578 1.15625 4.06641 1.15625 3.37891 1.5625C2.67578 1.96875 2.25391 2.70312 2.25391 3.5ZM4.50391 2.5C4.50391 2.39062 4.47266 2.29688 4.44141 2.1875C4.41016 2.10938 4.47266 2 4.56641 2C5.19141 2.03125 5.76953 2.46875 5.94141 3.125C6.16016 3.92188 5.69141 4.73438 4.87891 4.95312C4.08203 5.17188 3.25391 4.6875 3.05078 3.89062C3.01953 3.78125 3.00391 3.67188 3.00391 3.57812C2.98828 3.48438 3.09766 3.42188 3.17578 3.45312C3.28516 3.48438 3.37891 3.5 3.50391 3.5C4.05078 3.5 4.50391 3.0625 4.50391 2.5Z" fill="currentColor"/>
</svg>
