<svg width="6" height="6" viewBox="0 0 6 6" xmlns="http://www.w3.org/2000/svg">
<path d="M5.81747 1.02496L3.85179 2.99064L5.81747 4.97504C6.06084 5.19969 6.06084 5.59282 5.81747 5.81747C5.59282 6.06084 5.19969 6.06084 4.97504 5.81747L3.00936 3.85179L1.02496 5.81747C0.800312 6.06084 0.407176 6.06084 0.182527 5.81747C-0.0608424 5.59282 -0.0608424 5.19969 0.182527 4.97504L2.14821 2.99064L0.182527 1.02496C-0.0608424 0.800312 -0.0608424 0.407176 0.182527 0.182527C0.407176 -0.0608424 0.800312 -0.0608424 1.02496 0.182527L3.00936 2.14821L4.97504 0.182527C5.19969 -0.0608424 5.59282 -0.0608424 5.81747 0.182527C6.06084 0.407176 6.06084 0.800312 5.81747 1.02496Z" fill="currentColor"/>
</svg>
