<svg width="10" height="8" viewBox="0 0 10 8" xmlns="http://www.w3.org/2000/svg">
<path d="M0.60379 0.0885031L2.35264 1.44699C3.05531 0.916085 3.92973 0.494487 5.00715 0.494487C6.25633 0.494487 7.27129 1.07223 8.00518 1.75928C8.73908 2.43072 9.22314 3.24268 9.45736 3.80482C9.5042 3.92973 9.5042 4.07027 9.45736 4.19518C9.25436 4.69486 8.83277 5.41314 8.20818 6.03773L9.84773 7.33375C10.0195 7.45867 10.0507 7.69289 9.91018 7.84904C9.78527 8.0208 9.55105 8.05203 9.3949 7.9115L0.150962 0.666249C-0.0208002 0.541331 -0.0520297 0.30711 0.0885031 0.150962C0.213421 -0.0208002 0.447643 -0.0520297 0.60379 0.0885031ZM3.49252 2.33703L4.89785 3.44568C4.96031 3.30514 5.00715 3.16461 5.00715 3.00846C5.00715 2.88354 4.97592 2.78986 4.94469 2.68055C4.92908 2.60248 4.97592 2.49318 5.06961 2.50879C5.70982 2.52441 6.27195 2.96162 6.44371 3.61744C6.5374 3.96096 6.50617 4.30449 6.38125 4.60117L6.97461 5.06961C7.14637 4.75732 7.25568 4.38256 7.25568 3.99219C7.25568 2.75863 6.24072 1.74367 5.00715 1.74367C4.41379 1.74367 3.88289 1.97789 3.49252 2.33703ZM5.83473 6.08457L6.97461 6.99023C6.39686 7.30252 5.74104 7.4899 5.00715 7.4899C3.74236 7.4899 2.7274 6.92777 1.9935 6.24072C1.25961 5.55367 0.775552 4.7417 0.541331 4.19518C0.494487 4.07027 0.494487 3.92973 0.541331 3.80482C0.697479 3.44568 0.947315 2.99285 1.30645 2.52441L2.77424 3.6799C2.75863 3.7892 2.75863 3.8985 2.75863 3.99219C2.75863 5.24137 3.75797 6.24072 5.00715 6.24072C5.28822 6.24072 5.56928 6.19387 5.83473 6.08457Z" fill="currentColor"/>
</svg>
