<svg width="13" height="13" viewBox="0 0 13 13" fill="none" xmlns="http://www.w3.org/2000/svg">
<path d="M6.17227 0C6.40664 0 6.59414 0.140625 6.68789 0.328125L8.30508 3.63281L11.891 4.17188C12.102 4.19531 12.266 4.33594 12.3363 4.54688C12.4066 4.75781 12.3598 4.96875 12.1957 5.13281L9.59414 7.71094L10.2035 11.3438C10.2504 11.5547 10.1566 11.7891 9.99258 11.9062C9.80508 12.0234 9.5707 12.0469 9.3832 11.9531L6.17227 10.2188L2.98477 11.9531C2.77383 12.0469 2.56289 12.0234 2.37539 11.9062C2.21133 11.7656 2.11758 11.5547 2.16445 11.3438L2.77383 7.71094L0.172266 5.13281C0.00820312 4.96875 -0.0386719 4.75781 0.0316406 4.54688C0.101953 4.35938 0.266016 4.19531 0.476953 4.17188L4.06289 3.63281L5.68008 0.328125C5.77383 0.140625 5.96133 0 6.17227 0ZM6.17227 1.85156L4.95352 4.40625C4.85977 4.57031 4.71914 4.6875 4.53164 4.71094L1.76602 5.10938L3.7582 7.10156C3.89883 7.24219 3.96914 7.42969 3.92227 7.59375L3.45352 10.4062L5.91445 9.09375C6.07852 9 6.28945 9 6.45352 9.09375L8.91445 10.4062L8.4457 7.61719C8.39883 7.42969 8.46914 7.24219 8.60977 7.125L10.602 5.10938L7.83633 4.71094C7.64883 4.6875 7.5082 4.57031 7.41445 4.40625L6.17227 1.85156Z" fill="#1D2125"/>
</svg>
