<svg width="13" height="13" viewBox="0 0 13 13" fill="none" xmlns="http://www.w3.org/2000/svg">
<path d="M6.84706 0.421875L8.3705 3.53906L11.7221 4.03125C12.0033 4.07812 12.2377 4.26562 12.3314 4.54688C12.4252 4.80469 12.3549 5.10938 12.1439 5.29688L9.70643 7.71094L10.2924 11.1328C10.3392 11.4141 10.2221 11.6953 9.98768 11.8594C9.75331 12.0469 9.44862 12.0469 9.19081 11.9297L6.19081 10.3125L3.16737 11.9297C2.933 12.0469 2.62831 12.0469 2.39393 11.8594C2.15956 11.6953 2.04237 11.4141 2.08925 11.1328L2.65175 7.71094L0.214245 5.29688C0.0267453 5.10938 -0.0435672 4.80469 0.0267453 4.54688C0.120495 4.26562 0.35487 4.07812 0.63612 4.03125L4.01112 3.53906L5.51112 0.421875C5.62831 0.164062 5.88612 0 6.19081 0C6.47206 0 6.72987 0.164062 6.84706 0.421875Z" fill="#0F6CBF"/>
</svg>
