<svg width="20" height="20" viewBox="0 0 20 20" fill="none" xmlns="http://www.w3.org/2000/svg">
<path d="M4.12109 5.87891L8.22266 9.98047L4.12109 14.1211C3.61328 14.5898 3.61328 15.4102 4.12109 15.8789C4.58984 16.3867 5.41016 16.3867 5.87891 15.8789L9.98047 11.7773L14.1211 15.8789C14.5898 16.3867 15.4102 16.3867 15.8789 15.8789C16.3867 15.4102 16.3867 14.5898 15.8789 14.1211L11.7773 9.98047L15.8789 5.87891C16.3867 5.41016 16.3867 4.58984 15.8789 4.12109C15.4102 3.61328 14.5898 3.61328 14.1211 4.12109L9.98047 8.22266L5.87891 4.12109C5.41016 3.61328 4.58984 3.61328 4.12109 4.12109C3.61328 4.58984 3.61328 5.41016 4.12109 5.87891Z" fill="#1D2125"/>
</svg>
